<?xml version="1.0" encoding="UTF-8" standalone="no"?>
<!-- Created with Inkscape (http://www.inkscape.org/) -->

<svg
   xmlns:dc="http://purl.org/dc/elements/1.1/"
   xmlns:cc="http://creativecommons.org/ns#"
   xmlns:rdf="http://www.w3.org/1999/02/22-rdf-syntax-ns#"
   xmlns:svg="http://www.w3.org/2000/svg"
   xmlns="http://www.w3.org/2000/svg"
   xmlns:sodipodi="http://sodipodi.sourceforge.net/DTD/sodipodi-0.dtd"
   xmlns:inkscape="http://www.inkscape.org/namespaces/inkscape"
   width="478.19165"
   height="694.75885"
   id="svg2"
   version="1.1"
   inkscape:version="0.47 r22583"
   sodipodi:docname="princess.svg">
  <title
     id="title3716">princess</title>
  <defs
     id="defs4">
    <inkscape:perspective
       sodipodi:type="inkscape:persp3d"
       inkscape:vp_x="0 : 526.18109 : 1"
       inkscape:vp_y="0 : 1000 : 0"
       inkscape:vp_z="744.09448 : 526.18109 : 1"
       inkscape:persp3d-origin="372.04724 : 350.78739 : 1"
       id="perspective10" />
    <inkscape:perspective
       id="perspective3815"
       inkscape:persp3d-origin="0.5 : 0.33333333 : 1"
       inkscape:vp_z="1 : 0.5 : 1"
       inkscape:vp_y="0 : 1000 : 0"
       inkscape:vp_x="0 : 0.5 : 1"
       sodipodi:type="inkscape:persp3d" />
  </defs>
  <sodipodi:namedview
     id="base"
     pagecolor="#ffffff"
     bordercolor="#666666"
     borderopacity="1.0"
     inkscape:pageopacity="0.0"
     inkscape:pageshadow="2"
     inkscape:zoom="7.9195959"
     inkscape:cx="328.05328"
     inkscape:cy="502.31023"
     inkscape:document-units="px"
     inkscape:current-layer="layer2"
     showgrid="false"
     inkscape:window-width="1920"
     inkscape:window-height="1152"
     inkscape:window-x="0"
     inkscape:window-y="0"
     inkscape:window-maximized="1" />
  <metadata
     id="metadata7">
    <rdf:RDF>
      <cc:Work
         rdf:about="">
        <dc:format>image/svg+xml</dc:format>
        <dc:type
           rdf:resource="http://purl.org/dc/dcmitype/StillImage" />
        <dc:title>princess</dc:title>
        <dc:date>2011-02-28</dc:date>
        <dc:creator>
          <cc:Agent>
            <dc:title>tzunghaor (Prim András)</dc:title>
          </cc:Agent>
        </dc:creator>
        <cc:license
           rdf:resource="http://creativecommons.org/licenses/publicdomain/" />
        <dc:publisher>
          <cc:Agent>
            <dc:title>openclipart.org</dc:title>
          </cc:Agent>
        </dc:publisher>
        <dc:subject>
          <rdf:Bag>
            <rdf:li>princess</rdf:li>
            <rdf:li>royal</rdf:li>
            <rdf:li>fairy tale</rdf:li>
            <rdf:li>cartoon</rdf:li>
            <rdf:li></rdf:li>
          </rdf:Bag>
        </dc:subject>
      </cc:Work>
      <cc:License
         rdf:about="http://creativecommons.org/licenses/publicdomain/">
        <cc:permits
           rdf:resource="http://creativecommons.org/ns#Reproduction" />
        <cc:permits
           rdf:resource="http://creativecommons.org/ns#Distribution" />
        <cc:permits
           rdf:resource="http://creativecommons.org/ns#DerivativeWorks" />
      </cc:License>
    </rdf:RDF>
  </metadata>
  <g
     inkscape:groupmode="layer"
     id="layer2"
     inkscape:label="Réteg"
     style="opacity:0.96901957"
     transform="translate(-214.12094,-140.45841)">
    <path
       sodipodi:type="inkscape:offset"
       inkscape:radius="14.142136"
       inkscape:original="M 377.6875 154.65625 C 375.60213 154.8432 373.63074 156.37786 370.71875 159.90625 C 366.71418 164.75849 363.86324 170.71919 361.875 176.3125 C 360.06185 176.3125 358.59375 178.16745 358.59375 180.46875 C 358.59375 181.68907 359.02886 182.76918 359.6875 183.53125 C 358.99828 186.19405 358.5144 188.52587 358.1875 190.34375 C 349.4291 191.19833 340.57894 192.37864 331.9375 194.25 C 279.38818 205.62992 243.65393 220.52173 239.90625 241.21875 C 235.19829 267.21896 274.25 286.65625 274.25 286.65625 C 270.38714 273.15763 261.59163 261.10016 264.65625 259.40625 C 285.81745 247.70982 298.61129 299.68194 286.875 305.875 C 252.29228 324.12376 255.25634 308.42836 268.6875 295.75 C 268.6875 295.75 247.40389 306.29169 239.40625 317.46875 C 228.06227 333.32243 221.54684 343.10463 238.40625 346.78125 C 261.51968 351.82173 298 349.28125 298 349.28125 L 319.21875 372.53125 C 332.30428 386.86302 309.82503 387.56739 302.03125 385.65625 C 289.04667 382.47226 297.25442 372.85746 294.96875 366.46875 C 287.72061 376.0652 278.03575 396.26919 296.46875 409.90625 C 324.39993 413.36022 332.38088 409.54303 345.625 407.65625 C 334.54358 419.35562 324.84908 433.89428 322.75 443.25 C 319.00467 459.94314 329.13978 465.41687 333.84375 471.03125 C 335.1111 472.54388 339.31374 474.5873 344.6875 476.78125 C 345.08854 476.94466 345.49229 477.11659 345.90625 477.28125 C 346.38071 477.47046 346.82281 477.65318 347.3125 477.84375 C 347.6795 477.98621 348.03171 478.10708 348.40625 478.25 C 348.98018 478.4698 349.56706 478.68585 350.15625 478.90625 C 350.04525 480.06732 349.84187 481.45811 349.5625 483.03125 C 348.87641 483.03725 348.19429 483.0243 347.5 483.0625 C 345.93366 485.5625 343.13062 488.0625 346.0625 490.5625 C 346.73392 490.4754 347.40904 490.4172 348.0625 490.375 C 347.8558 491.28421 347.62238 492.18642 347.40625 493.09375 C 346.25057 493.23119 345.09318 493.45788 343.9375 493.78125 C 342.9482 495.92411 339.51679 498.07589 342.84375 500.21875 C 343.84525 500.03553 344.79999 499.91615 345.71875 499.84375 C 344.78943 503.40989 344.0229 506.22985 343.71875 507.125 C 342.12016 511.82979 326.52987 536.41948 319.375 543.5 C 314.37277 548.45025 308.03125 550.71875 308.03125 550.71875 C 307.8641 550.73395 307.67609 550.82403 307.46875 550.9375 C 304.42464 545.78318 302.07532 540.3809 294.46875 536.9375 C 291.92994 535.78821 287.12754 537.69083 286.875 540.46875 C 286.62247 543.24667 292.1875 547.65625 292.1875 547.65625 C 290.33217 546.54306 283.22031 547.94676 283.09375 551.59375 C 282.95405 555.61928 288.53919 559.03252 293.96875 558.90625 C 293.06075 562.84259 284.06891 564.96748 282.84375 568 C 280.21866 574.49764 287.81564 575.99129 293.40625 575.1875 C 290.62678 582.3613 288.6012 589.85598 288.65625 595.78125 C 288.67755 598.07003 288.80409 599.97689 288.96875 601.65625 C 287.03524 606.92541 286.96424 612.21133 291.40625 615.84375 L 291.53125 615.59375 C 291.53725 615.63685 291.5552 615.67695 291.5625 615.71875 C 286.6545 629.03149 280.79066 638.61271 275.15625 651.40625 L 270.21875 650.8125 C 264.12507 663.80889 261.85425 672.99304 261.125 680.625 L 268.8125 689 L 268.875 688.84375 C 265.36857 706.80809 260.23498 727.39882 257.21875 743.21875 C 254.84493 744.26474 252.93509 743.18245 251.53125 744.78125 C 246.5078 750.50225 245.67997 763.45931 248.5 770.53125 C 253.67912 783.51922 259.59361 785.71299 264.28125 784.65625 C 266.25259 785.12582 268.11773 784.85833 269.78125 784.21875 C 273.66997 788.9183 277.81278 793.51181 288.40625 795.4375 C 288.43915 795.4435 288.467 795.46255 288.5 795.46875 C 289.11584 795.57934 289.74566 795.68936 290.40625 795.78125 C 298.70627 796.93577 298.99679 793.34994 302.53125 791.75 L 306.59375 797.3125 C 314.24553 797.00933 323.5716 798.39693 335.25 802.125 C 335.76126 802.29124 336.26235 802.44816 336.78125 802.625 C 337.97616 803.01999 339.16259 803.4316 340.40625 803.875 C 339.07404 806.60452 336.34445 808.61901 346.46875 810.9375 C 357.65553 813.4993 368.20762 817.75071 381.84375 816.5 C 383.06715 816.38779 384.0978 816.20576 385 815.96875 C 385.67831 815.79082 386.27846 815.57827 386.8125 815.34375 C 387.0394 815.24475 387.23253 815.17004 387.4375 815.0625 C 387.5145 815.0223 387.58213 814.9788 387.65625 814.9375 C 388.04645 814.71934 388.3966 814.46352 388.71875 814.21875 C 388.84608 814.12195 388.97499 814.03771 389.09375 813.9375 C 389.15755 813.8839 389.21971 813.83574 389.28125 813.78125 C 389.42197 813.65643 389.55685 813.53506 389.6875 813.40625 C 389.88756 813.20946 390.06739 813.01622 390.25 812.8125 C 390.41063 812.63366 390.56615 812.46336 390.71875 812.28125 C 391.09457 811.83246 391.4624 811.35389 391.84375 810.90625 C 391.97892 810.74796 392.13877 810.59306 392.28125 810.4375 C 392.45513 810.24742 392.62206 810.05888 392.8125 809.875 C 392.9774 809.71554 393.13092 809.55934 393.3125 809.40625 C 393.3347 809.38755 393.3526 809.36235 393.375 809.34375 C 393.55903 809.1916 393.76348 809.05026 393.96875 808.90625 L 413.65625 812.4375 C 413.65625 812.4375 411.72787 813.62376 411.1875 815.03125 C 411.1384 815.1592 411.11765 815.30689 411.09375 815.4375 C 410.99805 815.95994 411.11995 816.49492 411.625 817 C 411.89949 817.27449 412.20055 817.54067 412.5 817.78125 C 412.62195 817.87875 412.74908 817.97045 412.875 818.0625 C 413.1724 818.28127 413.46275 818.46638 413.78125 818.65625 C 413.98446 818.77691 414.19496 818.89049 414.40625 819 C 414.46795 819.0321 414.5314 819.06265 414.59375 819.09375 C 414.7685 819.18075 414.94516 819.26379 415.125 819.34375 C 422.85918 822.8011 435.25176 819.78513 444.46875 820.03125 C 447.75175 819.27364 450.03125 815.46875 450.03125 815.46875 C 450.03125 815.46875 450.0556 815.7275 450.125 816.09375 C 450.1775 816.37742 450.2471 816.64648 450.375 817.0625 C 450.4581 817.33759 450.56158 817.61252 450.6875 817.90625 C 450.769 818.09564 450.86673 818.28221 450.96875 818.46875 C 451.00205 818.52975 451.0269 818.59617 451.0625 818.65625 C 451.1479 818.79992 451.24419 818.92691 451.34375 819.0625 C 451.50518 819.28349 451.67238 819.50228 451.875 819.6875 C 452.42796 820.19394 453.14332 820.53125 454.0625 820.53125 C 476.75465 818.67448 478.2784 813.88525 483.75 809.65625 C 502.07095 818.08493 526.1727 816.79062 551.03125 805.875 C 582.40397 791.47889 610.40455 787.75866 631.34375 765.46875 C 637.37017 759.05359 637.36007 746.45741 630.34375 733.15625 L 624.5625 732.71875 C 620.84853 718.63518 615.74857 707.17685 611.6875 699.40625 C 620.52899 692.78335 615.10801 682.00496 605.09375 667.5 L 596 664.21875 L 597.5 668.09375 C 590.00036 650.62175 578.27128 628.12157 564.53125 613.28125 C 568.18212 611.34717 562.50948 602.13613 556.15625 593.875 C 557.11896 594.02029 558.20169 594.13181 559.5 594.25 C 564.39999 594.69608 573.93154 591.78577 563.03125 584.40625 C 570.53849 583.22599 573.12757 572.1771 560.25 572.78125 C 546.44848 573.42873 542.96268 570.62758 538 567.625 C 537.77945 567.14488 537.6081 566.79974 537.40625 566.375 C 537.08862 565.70332 536.82871 565.15049 536.5625 564.625 C 536.4679 564.43783 536.40008 564.29272 536.3125 564.125 C 536.17348 563.85769 536.08921 563.717 535.96875 563.5 C 535.79111 563.17699 535.63569 562.89952 535.5 562.6875 C 528.66548 552.00842 520.09375 551.0625 520.09375 551.0625 C 520.18205 550.68006 520.25003 550.34438 520.28125 550 C 520.29215 549.8793 520.3082 549.77257 520.3125 549.65625 C 520.3155 549.57205 520.31254 549.48821 520.3125 549.40625 C 520.31206 549.26512 520.29135 549.13468 520.28125 549 C 520.27725 548.9463 520.28625 548.89643 520.28125 548.84375 C 520.26565 548.69396 520.24615 548.54823 520.21875 548.40625 C 520.21275 548.37385 520.1941 548.3445 520.1875 548.3125 C 520.1735 548.247 520.1414 548.18889 520.125 548.125 C 520.0996 548.02379 520.0939 547.90972 520.0625 547.8125 C 520.0095 547.65207 519.94351 547.4939 519.875 547.34375 C 519.8092 547.19885 519.73558 547.04211 519.65625 546.90625 C 519.64485 546.88705 519.6366 546.86285 519.625 546.84375 C 519.46244 546.57426 519.27345 546.33098 519.0625 546.09375 C 519.0335 546.06085 518.99855 546.0322 518.96875 546 C 518.55312 545.55409 518.05042 545.16855 517.5 544.8125 C 517.31313 544.69139 517.10472 544.58203 516.90625 544.46875 C 516.78804 544.40145 516.68426 544.31491 516.5625 544.25 C 516.2367 544.07589 515.9083 543.91044 515.5625 543.75 C 513.78779 539.09453 512.63161 534.95619 511.90625 531.15625 C 514.23126 531.9445 516.39404 532.71875 516.5625 532.71875 C 519.76581 529.74256 518.39486 526.75744 518 523.78125 C 515.3658 523.34865 513.04383 523.03789 510.84375 522.75 C 510.78255 521.86851 510.75415 521.01201 510.71875 520.15625 C 512.447 520.12395 514.17458 520.1246 515.9375 520.25 C 517.2793 515.83858 515.73036 514.84409 513.3125 512.3125 C 512.4239 512.2872 511.48538 512.2347 510.53125 512.1875 C 510.52225 511.4502 510.5171 510.70569 510.5 509.96875 C 510.5205 509.96575 510.542 509.97175 510.5625 509.96875 C 511.32358 509.87305 512.0848 509.7571 512.84375 509.625 C 513.17663 509.5673 513.51137 509.50233 513.84375 509.4375 C 514.06422 509.3944 514.27977 509.32749 514.5 509.28125 C 515.23104 509.12805 515.95947 508.96959 516.6875 508.78125 C 517.37758 508.60254 518.06313 508.4295 518.75 508.21875 C 519.10243 508.11066 519.46101 507.99166 519.8125 507.875 C 521.13416 507.43571 522.44393 506.93758 523.75 506.375 C 535.11025 501.48167 544.50289 496.3264 554.5625 484.65625 C 556.92115 481.91998 558.36622 478.6304 559.125 475.03125 C 569.74352 483.86435 581.22452 488.2345 595.5 489.1875 C 588.84376 480.57888 584.76749 475.20183 587.40625 463.9375 C 610.47139 459.89689 642.84122 450.47118 651.5625 442.21875 C 657.75158 436.36239 652.77915 423.7345 652.5625 413.9375 C 644.14456 419.49834 637.15678 430.98827 627.3125 419 C 620.66852 410.90902 623.62255 403.9045 627.3125 395.75 C 634.52769 402.46044 649.36053 399.85248 668.21875 397.28125 C 682.20195 395.37471 681.23094 384.78684 666.6875 330.09375 C 655.87988 320.05881 645.82896 309.49549 629.84375 303.34375 C 634.62356 317.56727 657.38851 344.85986 629.3125 342.21875 C 619.72794 341.31713 610.17106 350.0102 604.0625 321 C 603.91255 302.23326 603.37551 283.61242 597 257.375 C 597 257.375 615.2676 246.88895 610.125 239.1875 C 597.91136 220.89663 586.89822 207.44995 568.71875 196.25 C 577.022 208.5734 576.00249 244.93501 541.4375 211.90625 L 496 168.46875 C 484.20094 155.7267 477.20725 152.15441 439.4375 177.875 C 437.26148 175.4096 433.81959 172.96539 425.78125 170.5 C 413.73369 166.80496 397.06228 163.56535 385.4375 157.4375 C 381.99455 155.62259 379.77287 154.4693 377.6875 154.65625 z M 460.0625 491.78125 C 460.57302 492.2947 461.08054 492.79586 461.625 493.25 C 470.67972 500.80266 481.00098 506.32376 491.65625 508.84375 C 491.75958 508.86825 491.86535 508.88225 491.96875 508.90625 C 492.30193 508.98315 492.63493 509.05402 492.96875 509.125 C 493.01605 509.66869 493.04175 510.20726 493.09375 510.75 C 490.60886 510.4892 488.06076 510.19234 485.5 509.90625 C 484.45488 513.63637 483.79258 517.08429 486.5 518 C 489.06152 519.01196 491.53096 519.6081 493.9375 519.96875 C 493.968 520.40417 494.00675 520.8443 494.03125 521.28125 C 491.9245 521.17255 489.8589 521.07816 487.65625 520.9375 C 485.20592 526.35193 485.83204 530.38814 491.9375 532 C 491.9375 532 492.65626 531.7056 493.78125 531.3125 C 493.57175 533.07252 493.26951 534.86668 492.8125 536.6875 C 491.82336 540.62844 491.18334 543.80732 490.75 546.53125 C 480.41163 539.1564 469.81637 532.03746 459.90625 525.75 C 458.22412 518.7039 454.22795 508.60141 447.5 509.90625 C 446.44629 510.11061 445.4304 510.3484 444.4375 510.59375 C 444.85348 510.0458 445.27152 509.50738 445.6875 508.96875 C 446.3291 508.13835 446.98339 507.30972 447.625 506.5 C 448.68163 505.1661 449.75587 503.84701 450.8125 502.5625 C 452.30858 500.74448 453.78515 498.98893 455.28125 497.25 C 456.05635 496.34852 456.81865 495.47872 457.59375 494.59375 C 458.41769 493.65345 459.23858 492.70673 460.0625 491.78125 z M 366.9375 506.5 C 370.15687 512.21331 372.8481 517.03572 375.09375 521.09375 C 370.07915 523.06463 365.13361 525.44789 360.28125 528.1875 C 360.37645 527.83058 360.46599 527.48058 360.5625 527.125 C 360.70451 526.60204 360.85522 526.08263 361 525.5625 C 361.52155 523.68789 362.04053 521.84294 362.59375 520 C 362.73514 519.52925 362.88807 519.06271 363.03125 518.59375 C 364.27664 514.51257 365.5986 510.48766 366.9375 506.5 z "
       style="fill:#000000;fill-opacity:1;stroke:none"
       id="path4159"
       d="m 376.4375,140.5625 c -8.15138,0.73076 -12.99992,5.95132 -16.625,10.34375 -4.08954,4.9552 -6.74411,10.19977 -8.9375,15.3125 -3.46963,3.01494 -5.55381,7.27658 -6.1875,11.5 -5.21445,0.71885 -10.48108,1.57773 -15.75,2.71875 -26.87373,5.81969 -49.72546,12.47169 -67.46875,21.0625 -17.74329,8.59081 -32.29673,19.66964 -35.46875,37.1875 -3.68558,20.354 9.13337,36.0439 19.9375,45.59375 2.01418,1.78035 4.00232,3.2615 5.96875,4.75 -0.89913,0.54639 -1.5195,0.86312 -2.46875,1.46875 -6.99923,4.46552 -15.30205,10.04441 -21.53125,18.75 -5.7274,8.00427 -11.39386,13.98782 -13.46875,24.78125 -1.03745,5.39671 0.42545,13.53764 5.125,18.53125 4.69955,4.99361 10.1681,6.79353 15.84375,8.03125 14.50968,3.16421 31.27575,3.71022 44.125,3.5625 -3.34425,5.53919 -6.39891,12.40023 -7.46875,20.71875 -1.51017,11.74232 3.14701,26.89738 16,36.40625 a 14.14355,14.14355 0 0 0 6.65625,2.65625 c 7.88501,0.97506 14.38883,1.33323 20.09375,1.375 -2.54737,4.81424 -4.72529,9.71945 -5.875,14.84375 -2.54149,11.32758 -0.0546,21.95785 4.28125,28.75 4.33588,6.79215 9.18733,10.50989 9.78125,11.21875 3.3665,4.01804 5.46967,4.71049 7.8125,5.875 -0.0798,0.60471 -0.11065,1.25266 -0.125,1.90625 -0.41838,0.70679 -0.72154,1.14102 -1.4375,2.5 -1.14709,2.17732 -2.75611,6.53425 -1.53125,11.5625 0.27028,1.10954 0.69313,2.11178 1.15625,3.0625 -0.30227,0.57805 -0.4955,1.02898 -0.84375,1.625 -1.63771,2.80287 -3.84147,6.40201 -6.21875,10.03125 -4.08622,6.23817 -8.73505,12.30456 -11,15 -2.77749,-2.84445 -6.04862,-5.60991 -10.5,-7.625 -6.99238,-3.16537 -11.75771,-1.72306 -16.1875,0.21875 -4.42979,1.94181 -10.51206,5.75768 -11.34375,14.90625 -0.0615,0.67674 -0.002,1.20721 0,1.8125 -1.98087,2.54527 -3.67292,6.07145 -3.8125,10.09375 -0.12123,3.49345 0.78965,6.42657 2.09375,9 -0.46025,0.79041 -0.9218,1.54934 -1.34375,2.59375 -1.61421,3.99552 -2.27125,9.6468 -0.1875,14.6875 1.42399,3.44471 3.76917,5.92438 6.15625,7.6875 -0.7125,3.51654 -1.22231,7.09648 -1.1875,10.84375 0.0155,1.66858 0.15749,2.94468 0.25,4.34375 -0.87717,3.23563 -1.49608,6.73035 -1,10.8125 0.2508,2.06375 0.94418,4.21571 1.84375,6.3125 -2.78031,6.40668 -5.98127,12.95549 -9.3125,19.84375 a 14.14355,14.14355 0 0 0 -8.875,7.59375 c -6.60755,14.09235 -9.45227,25.13895 -10.34375,34.46875 a 14.14355,14.14355 0 0 0 3.65625,10.90625 l 2.75,3 c -2.71287,12.98501 -5.74256,26.48176 -8.375,39.09375 -1.51464,0.82256 -2.98631,1.78825 -4.1875,3.15625 -5.75026,6.54873 -7.23297,13.55945 -7.90625,20.3125 -0.67328,6.75305 -0.31204,13.29281 2.375,20.03125 3.17413,7.95995 6.94239,14.05373 12.6875,18.375 4.63169,3.4838 10.65458,4.87906 15.78125,4.65625 0.28836,0.0298 0.58893,0.10637 0.875,0.125 4.92535,4.25276 11.83598,8.712 21.15625,10.40625 -3.77899,-0.68918 -3.78051,-0.67903 0,0.0312 a 14.14355,14.14355 0 0 0 0.125,0 c 0.66081,0.11867 1.49738,0.27113 2.46875,0.40625 3.54777,0.49349 7.25899,0.24675 10.625,-0.5 a 14.14355,14.14355 0 0 0 8.0625,2.15625 c 4.74526,-0.18801 11.27423,0.65576 19.75,3.03125 2.20569,4.0986 5.54529,6.32199 7.96875,7.5 2.81648,1.36904 5.33726,2.04004 8.4375,2.75 9.75444,2.23379 22.61282,7.45256 39.8125,5.875 1.88929,-0.17329 3.72769,-0.48012 5.46875,-0.9375 1.35849,-0.35635 2.65994,-0.81243 3.875,-1.34375 -0.002,8.5e-4 0.0324,-0.0318 0.0312,-0.0312 -0.0454,0.0218 0.47299,-0.16805 1.46875,-0.6875 0.0329,-0.0172 4e-4,0.0162 0.0312,0 0.69595,-0.36576 0.9325,-0.53608 0.53125,-0.3125 a 14.14355,14.14355 0 0 0 0.0312,0 c 1.35507,-0.75762 2.24555,-1.45296 2.71875,-1.8125 -0.37861,0.28783 -0.0344,0.0713 0.90625,-0.71875 -0.008,0.007 0.0384,-0.006 0.0312,0 -0.16824,0.14264 -0.0458,0.053 0.4375,-0.375 0.0474,-0.042 0.18576,-0.16128 0.25,-0.21875 l 0.75,0.125 c 0.59141,1.02201 1.22977,1.97972 1.96875,2.71875 0.69806,0.69806 1.36923,1.28063 2.03125,1.8125 0.47701,0.38137 0.75853,0.59437 0.84375,0.65625 0.002,0.001 0.0295,-0.001 0.0312,0 0.76017,0.55753 1.46181,1.02291 2,1.34375 a 14.14355,14.14355 0 0 0 0.0312,0 c 0.52479,0.3116 0.96589,0.53879 1.3125,0.71875 0.0297,0.0155 0.005,0.0176 0.0312,0.0312 0.26285,0.13565 0.4265,0.21319 0.375,0.1875 0.35229,0.17539 0.71497,0.34488 1.0625,0.5 0.0124,0.006 0.0189,0.0258 0.0312,0.0312 7.8191,3.48382 14.7455,3.04851 20.65625,2.71875 5.92047,-0.3303 11.16395,-0.92115 14.0625,-0.84375 a 14.14355,14.14355 0 0 0 3.5625,-0.34375 c 0.26442,-0.061 0.46347,-0.1525 0.71875,-0.21875 1.82764,0.64918 3.77735,1.09375 5.6875,1.09375 a 14.14355,14.14355 0 0 0 1.15625,-0.0625 c 12.30543,-1.00688 20.22314,-2.84979 26.5,-6 1.85678,-0.93187 3.33908,-1.90131 4.6875,-2.84375 21.32506,6.66185 46.07303,3.67503 70.3125,-6.96875 a 14.14355,14.14355 0 0 0 0.21875,-0.0937 c 29.31309,-13.451 60.00955,-17.2594 84.71875,-43.5625 12.35687,-13.15396 9.92025,-32.03867 1.1875,-48.59375 A 14.14355,14.14355 0 0 0 635.53125,720 c -2.38838,-7.38864 -4.9587,-13.32046 -7.5,-18.84375 0.59307,-1.24007 1.08742,-2.53185 1.4375,-3.84375 1.42402,-5.33648 0.80596,-10.44339 -0.40625,-14.75 -2.42442,-8.61321 -7.08398,-15.47533 -12.34375,-23.09375 a 14.14355,14.14355 0 0 0 -6.8125,-5.28125 l -3.875,-1.40625 C 599.33473,638.44776 590.66846,622.63143 579.75,609.3125 c -8.4e-4,-0.009 8.5e-4,-0.0221 0,-0.0312 -0.31198,-3.35264 -1.20549,-5.59802 -2.15625,-7.6875 2.87925,-3.38487 4.55906,-9.6126 3.84375,-14.78125 1.25886,-2.65318 2.0285,-5.63726 2,-9 -0.048,-5.65794 -3.48949,-12.12142 -8.40625,-15.40625 -4.91676,-3.28483 -10.22461,-3.99456 -15.4375,-3.75 -7.76694,0.36438 -8.98122,0.29533 -10.5625,-0.71875 -0.0525,-0.10694 -0.0553,-0.0906 -0.1875,-0.34375 -0.2632,-0.50608 -0.42536,-0.82994 -0.46875,-0.90625 -0.008,-0.0139 -0.0235,-0.0484 -0.0312,-0.0625 -0.20226,-0.36941 -0.4439,-0.79123 -0.9375,-1.5625 -4.60614,-7.19719 -10.26004,-11.76952 -15.09375,-14.40625 -0.13778,-0.28179 -0.16031,-0.40029 -0.4375,-0.875 a 14.14355,14.14355 0 0 0 -0.0625,-0.0937 c 0.89819,1.51274 0.52753,0.8279 -0.0625,-0.15625 -0.009,-0.0148 -0.0223,-0.0166 -0.0312,-0.0312 -0.52338,-0.86202 -1.03827,-1.46286 -1.53125,-2.0625 1.59245,-3.13821 2.57926,-6.49797 2.59375,-9.09375 0.0242,-4.33553 -0.75215,-6.45368 -0.75,-6.4375 a 14.14355,14.14355 0 0 0 -0.90625,-3.375 c 11.13865,-4.95098 22.40871,-11.6019 33.09375,-23.59375 9.33244,4.73125 19.46587,7.64882 30.34375,8.375 a 14.14355,14.14355 0 0 0 12.125,-22.78125 c -2.1977,-2.84233 -2.76938,-3.96001 -3.6875,-5.4375 8.76071,-1.96394 17.73659,-4.23195 26.21875,-6.96875 12.81,-4.13319 23.30959,-7.34264 32.0625,-15.625 8.15395,-7.7156 7.87946,-17.83016 7.25,-24.3125 -0.62946,-6.48234 -1.78533,-11.92057 -1.84375,-14.5625 A 14.14355,14.14355 0 0 0 666.5,411.78125 c 1.2232,-0.17152 2.38077,-0.33036 3.625,-0.5 5.25358,-0.7163 12.30855,-2.92503 16.96875,-8.90625 4.6602,-5.98122 5.39613,-12.85922 5.1875,-19.34375 -0.41725,-12.96907 -4.62763,-29.07247 -11.9375,-56.5625 a 14.14355,14.14355 0 0 0 -4.03125,-6.75 c -10.38502,-9.64255 -22.17978,-22.17542 -41.375,-29.5625 a 14.14355,14.14355 0 0 0 -17.625,6.65625 c -0.68278,-10.01792 -2.09628,-21.03154 -4.625,-33.375 0.82821,-0.67457 1.50099,-1.04273 2.34375,-1.8125 2.71149,-2.47664 5.65204,-5.41226 7.96875,-10.25 2.31671,-4.83774 3.13095,-13.65763 -1.125,-20.03125 -12.61635,-18.89396 -25.43835,-34.61146 -45.75,-47.125 A 14.14355,14.14355 0 0 0 557,204.15625 c 0.13116,0.19466 0.64616,1.6382 1.125,3.3125 -1.99179,-1.44323 -4.21389,-3.20855 -6.90625,-5.78125 L 505.78125,158.25 c -3.03894,-3.26717 -6.31063,-6.64734 -11.0625,-9.46875 -5.04938,-2.99806 -11.9477,-4.73219 -18.5625,-4.125 -11.23045,1.03087 -21.84666,6.54918 -36.625,16.21875 -2.82792,-1.43711 -5.93329,-2.78357 -9.59375,-3.90625 -13.3288,-4.088 -29.39665,-7.54553 -37.90625,-12.03125 -3.47677,-1.83274 -7.4668,-5.10357 -15.59375,-4.375 z M 273.71875,311.59375 c -0.50451,1.5447 0.47465,-0.23181 0,0 z m 344.3125,0.1875 c 2.52856,6.23311 5.613,11.92674 7.90625,16.3125 -2.04331,0.0986 -3.71464,0.28162 -4.8125,0.40625 -0.72055,-1.44683 -1.81885,-4.44067 -2.9375,-9.375 -0.0232,-2.40164 -0.10163,-4.88111 -0.15625,-7.34375 z"
       transform="matrix(-1,0,0,1,906.43353,0)" />
    <path
       style="fill:#deaa87;fill-opacity:1;stroke:none"
       d="m 596.56924,554.60952 c 4.63824,-6.07882 5.95903,-13.40168 15.40482,-17.67767 2.53881,-1.14929 7.32361,0.75761 7.57615,3.53553 0.25253,2.77792 -5.30331,7.19733 -5.30331,7.19733 1.85533,-1.11319 8.96482,0.26736 9.09138,3.91435 0.1397,4.02553 -5.42958,7.44987 -10.85914,7.3236 0.908,3.93634 9.88652,6.05886 11.11168,9.09138 3.67608,9.09906 -12.71025,8.447 -15.5311,5.3033 l -11.49048,-18.68782 z"
       id="path3921"
       sodipodi:nodetypes="csscscscc" />
    <path
       style="fill:#f4eed7;fill-opacity:1;stroke:none"
       d="m 562.72913,507.13235 c 1.59859,4.70479 17.16276,29.29766 24.31763,36.37818 5.00223,4.95025 11.34626,7.20631 11.34626,7.20631 3.92858,0.35714 19.54132,28.70667 19.38942,45.05639 -0.1548,16.66202 -4.54569,15.32065 -6.81853,22.98097 l -64.14469,-18.94036 1.26269,-63.89215 c -4.61598,-20.13276 -11.7618,-37.73568 -17.67767,-56.56854 l 26.60842,-3.64014 c -3.41563,-1.99994 4.573,28.054 5.71647,31.41934 z"
       id="path3919"
       sodipodi:nodetypes="cscscccccs" />
    <path
       style="opacity:0.3;fill:#552200;fill-opacity:1;stroke:none"
       d="m 554.15228,497.53125 5.53125,1.28125 c -1.97039,3.53866 -9.54001,4.46968 -14.5,6.8125 0.49201,2.32853 6.9436,1.94506 10.71875,2.78125 -12.39292,10e-4 -14.30284,0.93162 -10.59375,3.78125 1.56408,1.20165 11.75,0.375 11.75,0.375 -1.92622,1.70451 -5.96258,2.38471 -9.96875,2.625 l 6.5625,21.25 c 0,0 -3.02118,-0.10975 -5.5625,-0.3125 l 0,-0.21875 C 545.35216,523.96604 541.72901,512.94484 537.99603,502 l 16.15625,-4.46875 z"
       id="path3968" />
    <path
       style="fill:#782121;fill-opacity:1;stroke:none"
       d="m 459.93353,517.5 34.875,15.125 -12.375,35.1875 83.4375,2.21875 -24.78125,-31.25 L 520.37103,527 l 9.625,-6.4375 c 34.12416,12.87724 65.85512,45.16599 79.65625,77.5 6.15749,26.74794 15.72463,38.01465 24.28125,59.65625 -1.42857,21.42857 15.35714,76.42857 17.5,100 l -11.375,1.3125 c 0.83887,6.34122 1.57704,12.68842 2.21875,19.0625 -7.42981,6.38937 -9.04901,15.29487 -26.25,17.6875 -8.30002,1.15452 -8.59054,-2.43131 -12.125,-4.03125 l -4.0625,5.5625 c -8.74489,-0.34648 -19.68392,1.52529 -33.8125,6.5625 1.33221,2.72952 4.0618,4.74401 -6.0625,7.0625 -11.18678,2.5618 -21.73887,6.81321 -35.375,5.5625 -8.51993,-0.78145 -8.34196,-4.93959 -12.125,-7.59375 l -19.6875,3.53125 c 0,0 4.05155,2.5422 2.03125,4.5625 -6.93106,6.93107 -22.06879,2.74353 -32.84375,3.03125 -3.283,-0.75761 -5.5625,-4.5625 -5.5625,-4.5625 0,0 -0.49572,5.0625 -4.03125,5.0625 -27.87086,-2.28052 -23.79926,-8.95464 -34.34375,-13.625 l 2.5,-18.34375 -2.5,9.75 -96.96875,-15.65625 -43.4375,-26.78125 c 4.04061,-39.90103 23.71875,-67.6875 23.71875,-67.6875 5.55584,-18.18275 29.31456,-74.74302 57.09375,-87.875 -0.50507,-13.63706 62.11404,-59.50052 101.5,-82.8125 z m 155.375,132 c 2.93193,9.11029 5.64954,18.25634 8.15625,27.4375 l -3.46875,-18.5 -4.6875,-8.9375 z"
       id="path3915" />
    <path
       style="fill:#2b0000;fill-opacity:1;stroke:none"
       d="m 575.00496,584.50504 c -20.12755,9.68113 -59.4647,19.2847 -97.67858,7.67857 l 21.25001,-64.82143 27.85714,0 48.57143,57.14286 z"
       id="path3913"
       sodipodi:nodetypes="ccccc" />
    <path
       style="fill:#782121;fill-opacity:1;stroke:none"
       d="m 562.50496,493.79075 c 0.9893,2.14286 4.39839,4.28571 1.07143,6.42857 -11.34003,-2.07465 -16.98836,3.4321 -25.71429,5.71429 l -1.07143,-6.42857 c 8.57143,-5.1918 17.14286,-8.11264 25.71429,-5.71429 z"
       id="path3907"
       sodipodi:nodetypes="ccccc" />
    <path
       style="fill:#782121;fill-opacity:1;stroke:none"
       d="m 558.93353,483.07647 c 1.56634,2.5 4.36045,5 1.42857,7.5 -10.39657,-1.34857 -18.55403,2.90065 -27.14286,6.07143 l 1.07143,-8.57143 c 7.80429,-3.30667 15.8899,-5.48802 24.64286,-5 z"
       id="path3905"
       sodipodi:nodetypes="ccccc" />
    <path
       style="fill:#ffd42a;fill-opacity:1;stroke:none"
       d="m 535.70754,159.89241 c 10.81224,13.10092 13.13199,34.34518 13.13199,34.34518 l -88.38835,-8.58629 c 6.59193,-5.05076 3.73521,-10.10153 20.20305,-15.15229 12.04756,-3.69504 28.73211,-6.94002 40.35689,-13.06787 6.88591,-3.62982 8.87243,-4.59552 14.69642,2.46127 z"
       id="path3873"
       sodipodi:nodetypes="cccsss" />
    <path
       style="fill:#1a1a1a;fill-opacity:1;stroke:none"
       d="m 469.54255,179.59039 c 17.18922,11.87126 63.51208,5.69558 104.94209,14.66754 52.54932,11.37992 88.28998,26.25474 92.03766,46.95176 4.70796,26.00021 -34.34518,45.45686 -34.34518,45.45686 3.86286,-13.49862 12.66106,-25.58021 9.59644,-27.27412 -21.1612,-11.69643 -33.95964,40.27397 -22.22335,46.46703 34.58272,18.24876 31.6139,2.57683 18.18274,-10.10153 0,0 21.29678,10.54122 29.29442,21.71828 11.34398,15.85368 17.86957,25.6178 1.01016,29.29442 -23.11343,5.04048 -59.599,2.52538 -59.599,2.52538 l -21.2132,23.23351 c -13.08553,14.33177 9.37881,15.04312 17.17259,13.13198 12.98458,-3.18399 4.7854,-12.80419 7.07107,-19.1929 7.24814,9.59645 16.91777,29.79951 -1.51523,43.43657 -33.03729,4.08539 -38.11951,-1.9947 -57.07362,-3.03046 L 357.9207,464.4534 c -13.75102,16.05949 -27.84556,23.4719 -46.97209,24.74874 6.65624,-8.60862 10.71997,-13.98949 8.08121,-25.25382 -23.06514,-4.04061 -55.4234,-13.46584 -64.14468,-21.71827 -6.18908,-5.85636 -1.2268,-18.48728 -1.01015,-28.28428 8.41794,5.56084 15.40953,17.03904 25.25381,5.05077 6.64398,-8.09098 3.68995,-15.07901 0,-23.23351 -7.21519,6.71044 -22.05296,4.08645 -40.91118,1.51522 -13.9832,-1.90654 -13.02821,-12.48205 1.51523,-67.17514 10.80762,-10.03494 20.88535,-20.6173 36.87056,-26.76904 -4.77981,14.22352 -27.57093,41.53198 0.50508,38.89087 9.58456,-0.90162 19.14526,7.797 25.25382,-21.2132 0.14995,-18.76674 0.69556,-37.40219 7.07107,-63.63961 0,0 -18.27459,-10.4813 -13.13199,-18.18275 12.21364,-18.29087 23.23679,-31.73153 41.41626,-42.93148 -8.30325,12.3234 -7.29087,48.68612 27.27412,15.65736 l 45.45686,-43.43655 c 12.06689,-13.03129 19.01494,-16.56776 59.09392,11.11168 z"
       id="path3822"
       sodipodi:nodetypes="csscsscsscssccccccscscsccsccscscs" />
    <path
       style="fill:#000000;fill-opacity:1;stroke:none"
       d="m 576.62103,220.5 2.03125,1 c 0.0573,0.13997 0.10082,0.23858 0.15625,0.375 -0.71075,-0.47069 -1.43709,-0.92673 -2.1875,-1.375 z m 2.1875,1.375 c 14.1681,9.3828 24.62886,22.56368 26.09375,37 3.41347,33.6395 -10.51072,17.69058 -12.125,3.03125 L 582.18353,239.9375 c -0.0529,-7.57543 0.38379,-8.81233 -3.375,-18.0625 z m -32.90625,6.6875 c 1.77409,0.0316 2.65214,0.54472 2.1875,1.78125 0.42701,2.96946 -0.81057,2.21034 -4.8125,5.8125 l -27.53125,8.59375 -76.75,71.96875 -11.15625,-9.625 -6.40625,9.9375 c 0.20726,-0.0249 0.41851,-0.0343 0.625,-0.0625 l 123.75,63.125 c 1.36205,4.71621 -1.1563,11.47162 5.8125,14.40625 19.4711,8.19947 53.99954,6.39961 61.625,3.78125 0.0813,4.86172 -3.77504,10.07344 -21.21875,10.09375 -21.05153,0.0245 -41.3538,-5.68063 -61.125,-7.8125 l -85.09375,1.78125 c -5.86559,-9.17136 -16.1533,-15.59027 -17.1875,-27.78125 -10.20559,1.19326 -21.53927,-22.26939 -25.25,-33.84375 -9.33579,-8.1983 -11.49591,-17.29952 -15.09375,-26.21875 l -9.15625,-8.125 c 26.90413,-0.0614 21.68508,-12.17862 29.3125,-19.46875 19.7895,7.84946 68.19216,-25.89514 82.3125,-37.875 6.55099,-5.23412 12.96091,-10.59773 21.46875,-13.875 9.51792,-0.71757 27.35145,-6.70673 33.6875,-6.59375 z m -237.71875,5.84375 c -1.76776,11.36422 17.65625,25.5 17.65625,25.5 -6.90271,-1.69797 -13.78479,-4.25873 -20.6875,-10.625 -7.92448,-7.30863 -1.56699,-10.88524 3.03125,-14.875 z M 668.02728,333.125 c 3.12917,1.18994 13.65575,9.65884 -9.34375,12.625 0.10202,0.51009 -43.17063,2.31691 -50.25,-0.25 -6.17275,-2.23818 -0.5,-10.34375 -0.5,-10.34375 27.37446,9.39408 54.07747,5.52302 60.09375,-2.03125 z m -433.34375,49.5 c 0.12627,12.2481 43.18052,7.4659 56.3125,1.53125 -21.2132,14.39467 -27.82844,12.57428 -46.46875,11.21875 -17.55132,-1.27634 -9.84375,-12.75 -9.84375,-12.75 z m 22.71875,49 c 7.8334,13.97781 56.05655,20.94308 63.65625,20.46875 0.96069,3.19671 2.09043,6.42504 -1.53125,8.3125 -17.67767,-4.71405 -35.56803,-8.15212 -57.0625,-15.15625 -10.51713,-3.42708 -7.56525,-7.13942 -5.0625,-13.625 z"
       id="path3940" />
    <path
       style="fill:#782121;fill-opacity:1;stroke:none"
       d="m 505.90805,399.80364 c 0,0 12.52173,-14.81928 29.29442,-10.6066 16.77269,4.21268 44.74199,37.35002 48.48732,54.04316 3.74533,16.69314 -6.40771,22.16482 -11.11168,27.7792 -4.70397,5.61438 -48.99239,18.68781 -48.99239,18.68781 l -17.67767,-89.90357 z"
       id="path3885"
       sodipodi:nodetypes="czzzcc" />
    <path
       sodipodi:nodetypes="czssssscc"
       id="path4014"
       d="m 623.12635,670.01944 c 0,0 9.41361,48.24649 15.15228,63.13454 5.73868,14.88805 10.04315,8.6742 12.62692,11.61675 5.02345,5.721 5.85048,18.68695 3.03045,25.75889 -9.40698,23.59039 -21.24392,11.65101 -23.73858,9.09137 -6.83281,-7.01078 -4.75824,-13.36481 -6.06092,-32.82995 -0.9041,-13.50943 -1.2085,-16.85991 -3.17308,-30.48261 -2.1088,-14.62275 -6.71371,-39.23901 -11.47413,-54.37021 l 13.63706,8.08122 z"
       style="opacity:0.5;fill:#2b1100;fill-opacity:1;stroke:none" />
    <path
       style="fill:#f4eed7;fill-opacity:1;stroke:none"
       d="m 627.12635,670.01944 c 0,0 9.41361,48.24649 15.15228,63.13454 5.73868,14.88805 10.04315,8.6742 12.62692,11.61675 5.02345,5.721 5.85048,18.68695 3.03045,25.75889 -9.40698,23.59039 -21.24392,11.65101 -23.73858,9.09137 -6.83281,-7.01078 -4.75824,-13.36481 -6.06092,-32.82995 -0.9041,-13.50943 -1.2085,-16.85991 -3.17308,-30.48261 -2.1088,-14.62275 -6.71371,-39.23901 -11.47413,-54.37021 l 13.63706,8.08122 z"
       id="path3891"
       sodipodi:nodetypes="czssssscc" />
    <path
       sodipodi:nodetypes="cccccscc"
       id="path4012"
       d="m 597.87254,611.38999 c 4.32541,25.864 12.32875,42.01302 25.75889,44.44671 l 8.58629,-1.01015 c 6.09368,12.99639 8.36213,22.16754 9.09138,29.7995 -2.94204,3.53703 -5.48965,8.65175 -11.64214,-0.65302 -13.32882,-10.23892 -31.93919,-10.97794 -41.39087,-38.74293 -3.32626,-9.77113 -5.42302,-23.6413 -8.5863,-36.3655 l 18.18275,2.52539 z"
       style="opacity:0.46000001;fill:#2b1100;fill-opacity:1;stroke:none" />
    <path
       style="fill:#f4eed7;fill-opacity:1;stroke:none"
       d="m 601.87254,607.38999 c 4.32541,25.864 12.32875,42.01302 25.75889,44.44671 l 8.58629,-1.01015 c 6.09368,12.99639 14.27534,24.15103 9.09138,29.7995 l -7.68818,8.37708 -3.95396,-9.0301 c -10.48066,-8.50656 -31.93919,-10.97794 -41.39087,-38.74293 -3.32626,-9.77113 -5.42302,-23.6413 -8.5863,-36.3655 l 18.18275,2.52539 z"
       id="path3889"
       sodipodi:nodetypes="cccscsscc" />
    <path
       sodipodi:nodetypes="cssccccscc"
       id="path4010"
       d="m 520.32857,535.37506 c 20.95755,13.6367 28.30394,27.16248 35.77864,43.35477 9.8021,21.23409 18.1203,42.24422 35.46918,40.34664 l 18.84495,-2.06122 c 12.54326,3.66487 -5.00452,-20.20092 -5.27352,-25.08164 l -6.42858,-0.71429 2.85715,5 c -8.90492,-2.01939 -9.45587,5.95569 -30.95939,-23.78063 -11.00036,-15.21194 -17.69483,-30.02889 -49.04061,-44.79079 l -1.24782,7.72716 z"
       style="opacity:0.5;fill:#2b1100;fill-opacity:1;stroke:none" />
    <path
       style="fill:#f4eed7;fill-opacity:1;stroke:none"
       d="m 515.00496,531.6479 c 26.51339,9.84863 35.62755,24.88964 43.10225,41.08193 9.8021,21.23409 18.1203,42.24422 35.46918,40.34664 l 18.84495,-2.06122 2.60246,4.8218 c 9.58723,-7.83989 -1.7193,-23.29698 -7.87598,-29.90344 -1.5603,-1.67429 -2.69903,-1.31319 -3.75001,-0.17858 0.0284,1.39927 2.37251,4.40215 -0.71428,4.46429 -8.34021,0.1679 -8.56301,5.95569 -30.06653,-23.78063 -11.00036,-15.21194 -17.69483,-30.02889 -49.04061,-44.79079 l -8.57143,10 z"
       id="path3887"
       sodipodi:nodetypes="cssccscsscc" />
    <path
       style="opacity:0.5;fill:#28170b;fill-opacity:1;stroke:none"
       d="m 571.08978,465.21875 -4.21875,9.34375 c -6.58234,3.12704 -17.26467,6.83882 -26.4375,9.84375 l -2.5625,-6.34375 11.40625,0.375 c 3.26807,-1.23656 0.48365,-3.98177 0.375,-6.0625 l 5.71875,4.625 c 1.65184,-0.65455 2.08022,-6.13599 2.84375,-10.34375 l 1.4375,8.90625 11.4375,-10.34375 z"
       id="path4000" />
    <path
       style="opacity:0.3;fill:#28170b;fill-opacity:1;stroke:none"
       d="m 529.12103,388.4375 c -2.03029,31.50034 13.30556,65.04981 33.84375,87.84375 -14.4345,6.04865 -39.375,13.4375 -39.375,13.4375 l -17.6875,-89.90625 c 0,0 9.58562,-11.36066 23.21875,-11.375 z"
       id="path3704"
       sodipodi:nodetypes="ccccc" />
    <path
       style="fill:#2b0000;fill-opacity:1;stroke:none"
       d="m 506.43353,410.21932 c 33.12904,10.22488 47.7292,70.3538 35,92.85715 -12.7292,22.50335 -18.57143,33.57143 -18.57143,33.57143 0,0 -6.22461,2.55709 -16.42857,0.71428 -10.20396,-1.84281 -40,-20.71428 -40,-20.71428 -13.57143,-19.09427 -27.14286,-32.14 -40.71429,-47.85715 l -7.85714,-65 88.57143,6.42857 z"
       id="path3881"
       sodipodi:nodetypes="czzzcccc" />
    <path
       style="fill:#782121;fill-opacity:1;stroke:none"
       d="m 521.31288,396.52064 c 10.58087,33.39022 -11.40899,34.44641 -17.93022,52.02286 l 0.50508,-31.0622 -22.22335,0.75762 21.2132,29.04189 c 0,0 -25.37484,-15.83168 -52.4491,-27.27647 -12.72248,-5.37803 -21.55295,-18.18067 -23.81742,-24.24131 -2.26448,-6.06064 8.59625,-19.14498 23.48604,-20.70813 24.2661,-2.54748 57.63883,-2.31731 71.21577,21.46574 z"
       id="path3871"
       sodipodi:nodetypes="cccccszsc" />
    <path
       style="opacity:0.5;fill:#28170b;fill-opacity:1;stroke:none"
       d="m 507.68353,434.32647 c 10,-16.42857 10.02462,-26.78434 3.03572,-34.46429 -5.15347,-5.66302 -24.34388,-25.40528 -59.64286,-16.42857 -23.08779,5.87134 5.62577,24.40963 9.46428,28.39285 l 5.17857,2.67858 41.96429,19.82143 z"
       id="path3961"
       sodipodi:nodetypes="cssccc" />
    <path
       style="fill:#deaa87;fill-opacity:1;stroke:none"
       d="m 497.14782,367.00504 c -0.14244,12.37275 -2.46343,23.18938 0.35714,37.67857 1.38817,7.13098 8.85985,6.81465 14.93128,9.96937 0.69087,10.26066 -3.68131,17.18964 -7.07414,25.2092 l -2.32143,7.5 c -7.66078,-10.5446 -23.48989,-25.84434 -43.03571,-35.71428 4.44549,-2.2543 10.39111,-1.72263 11.78571,-9.64286 3.15659,-17.92695 0.39121,-33.80953 -3.21428,-50.71429 l 28.57143,15.71429 z"
       id="path3869"
       sodipodi:nodetypes="csccccscc" />
    <path
       style="opacity:0.5;fill:#a05a2c;fill-opacity:1;stroke:none"
       d="m 470.30853,352.84375 8.90625,4.28125 17.9375,9.875 c -0.0883,7.66987 -1.01237,14.7493 -1.03125,22.46875 -6.51404,-3.77504 -17.49857,-12.33598 -23.875,-17.4375 -0.64106,-5.2292 -1.55688,-10.4432 -2.625,-15.71875 l 0.6875,-3.46875 z"
       id="path3931" />
    <path
       style="fill:#deaa87;fill-opacity:1;stroke:none"
       d="m 582.17456,237.67415 c 10.32929,15.99211 26.75708,29.67731 16.66752,56.56855 -2.61978,6.98239 -4.08689,9.0626 -0.50508,16.66752 11.48495,24.38486 -36.25101,70.31053 -50.50762,73.23605 -9.29582,1.90754 -37.89921,-1.81823 -54.04317,-11.11167 -18.28011,-10.52315 -39.93505,-15.84466 -46.97209,-34.85027 -0.91111,9.11115 -25.84125,-2.55674 -31.81981,-14.64721 -6.73387,-13.61797 -2.4784,-20.75896 5.05077,-23.23351 5.32633,-1.75056 15.15229,9.09137 15.15229,9.09137 l 3.03045,-16.66751 c 34.14185,-12.94548 50.32616,-38.02419 68.1853,-45.96194 47.15522,-20.95881 40.26,-14.36324 47.47717,-12.62691 7.21716,1.73633 12.17814,9.35409 7.57615,15.15229 -8.74076,11.01278 -19.32103,12.82805 -29.29443,17.67767 15.15229,0.0498 23.22246,-1.23119 39.39595,-6.566 4.96457,-1.63755 10.37249,-4.37732 10.6066,-22.72843 z"
       id="path3824"
       sodipodi:nodetypes="csssscssccszscsc" />
    <path
       style="opacity:0.5;fill:#a05a2c;fill-opacity:1;stroke:none"
       d="m 569.04258,289.44447 c -0.25254,-1.01015 -1.35241,-13.58401 2.77792,-16.92005 6.56599,-5.30331 16.16244,-5.55584 16.16244,-5.55584 l 11.61676,2.77791 c 2.47581,9.03406 -0.81796,15.59544 -2.77793,22.72844 -12.45472,6.17857 -18.51946,-2.02031 -27.77919,-3.03046 z"
       id="path3929"
       sodipodi:nodetypes="cscccc" />
    <path
       style="opacity:0.5;fill:#a05a2c;fill-opacity:1;stroke:none"
       d="m 546.56669,265.20081 c 9.03893,9.5316 5.75819,14.06764 3.53553,20.70813 -1.74353,5.20901 4.43417,17.13261 -1.01015,24.74874 -1.52732,3.41973 -6.22106,4.06884 -13.13199,2.77791 l -27.52665,-30.80965 c 0.17136,2.2277 -9.18049,2.44283 -11.11168,-4.79822 -2.87799,-10.79113 38.03167,-19.40537 49.24494,-12.62691 z"
       id="path3927"
       sodipodi:nodetypes="cscccsc" />
    <path
       style="fill:#000000;fill-opacity:1;stroke:none"
       d="m 548.08192,262.67543 c 0,0 0.88634,6.55164 -0.25254,5.80838 -8.79726,-5.74135 -35.07134,-1.75123 -40.15357,3.03045 -3.18604,-2.16544 13.51373,-10.69698 20.20305,-10.6066 7.03678,0.0951 20.20306,1.76777 20.20306,1.76777 z"
       id="path3857"
       sodipodi:nodetypes="cscsc" />
    <path
       style="fill:#ffffff;fill-opacity:1;stroke:none"
       d="m 544.79892,278.83787 c -0.30615,1.69887 2.01544,3.19638 -2.52539,2.27284 1.0827,9.72649 -0.45068,16.99232 -1.26268,25.25382 l 0.37881,2.27285 c -6.39581,3.6075 -23.68031,1.00052 -39.26969,3.78806 l 0,-4.54568 6.81853,-22.22336 c -2.37934,-1.86789 -0.94259,-4.76199 1.76777,-5.80837 8.47107,-3.27042 15.69608,-4.75061 24.74874,-4.04062 3.74276,0.29354 9.34391,3.03046 9.34391,3.03046 z"
       id="path3826"
       sodipodi:nodetypes="cccccccssc" />
    <path
       sodipodi:type="arc"
       style="fill:#000000;fill-opacity:1;stroke:none"
       id="path3828"
       sodipodi:cx="374.51407"
       sodipodi:cy="289.44446"
       sodipodi:rx="8.586297"
       sodipodi:ry="11.111678"
       d="m 383.10037,289.44446 a 8.586297,11.111678 0 1 1 -0.0106,-0.551"
       sodipodi:start="0"
       sodipodi:end="6.2335773"
       sodipodi:open="true"
       transform="matrix(-1.0882353,0,0,1.0795455,939.98396,-23.655336)" />
    <path
       style="fill:#ffffff;fill-opacity:1;stroke:none"
       d="m 595.30655,289.44447 c 0,0 -2.83347,1.1824 -3.03047,2.52539 -1.13902,7.76514 -2.0203,17.17259 -2.0203,17.17259 l 1.26269,1.51523 c -11.53191,-0.35329 -14.39325,1.92936 -22.98096,2.0203 -5.21649,0.0552 -4.46677,-1.87825 -6.06092,-3.03046 2.41208,-6.05241 2.76987,-16.99516 9.59645,-25.00127 0.3225,-1.65241 -1.61155,-4.05848 0,-4.54569 12.43864,-3.76051 17.94722,-0.0477 23.23351,9.34391 z"
       id="path3830"
       sodipodi:nodetypes="csccsccsc" />
    <path
       transform="matrix(-1.0080495,0,0,1,960.13924,2.7779197)"
       sodipodi:open="true"
       sodipodi:end="6.2335773"
       sodipodi:start="0"
       d="m 383.10037,289.44446 a 8.586297,11.111678 0 1 1 -0.0106,-0.551"
       sodipodi:ry="11.111678"
       sodipodi:rx="8.586297"
       sodipodi:cy="289.44446"
       sodipodi:cx="374.51407"
       id="path3832"
       style="fill:#000000;fill-opacity:1;stroke:none"
       sodipodi:type="arc" />
    <path
       style="fill:#000000;fill-opacity:1;stroke:none"
       d="m 600.86238,268.73634 c -3.24078,-3.57769 -7.9586,-5.96613 -21.2132,-3.53553 l -0.50508,4.79823 c 11.09498,-4.39779 18.36492,-1.91048 22.72844,5.80837 0.57114,-2.0544 0.43482,-4.34463 -1.01016,-7.07107 z"
       id="path3855"
       sodipodi:nodetypes="ccccc" />
    <path
       style="opacity:0.7;fill:#552200;fill-opacity:1;stroke:none"
       d="m 423.68353,311.4375 c 0.69186,-0.004 1.44471,0.0649 2.21875,0.21875 7.4096,1.47265 9.70848,12.96362 8.03125,12.125 -5.67958,-9.00302 -7.20147,-1.63565 -4.8125,1.78125 -3.57308,-1.48837 -7.29069,-6.43163 -1.09375,-8.375 0,0 -2.76445,-2.94525 -4.625,-3.40625 -2.39407,-0.59319 -7.3125,1.09375 -7.3125,1.09375 0,0 2.75074,-3.41119 7.59375,-3.4375 z m 135.75,10.84375 c 4.60538,0.0593 4.5625,4.03125 4.5625,4.03125 -3.73584,0.72566 -8.46838,0.44511 -13.125,0.25 0,0 5.52762,-4.32035 8.5625,-4.28125 z m -0.0937,32.4375 c 0,0 -0.13216,9.36903 -8.9375,10.71875 -6.39698,0.98056 -15.90625,-10 -15.90625,-10 0,0 9.83928,6.58929 17.875,5.875 3.71404,-0.33013 6.96875,-6.59375 6.96875,-6.59375 z"
       id="path3859" />
    <path
       style="fill:#501616;fill-opacity:1;stroke:none"
       d="m 560.93353,339.36218 c 7.02642,2.42166 -0.35157,8.0021 -3.57143,9.28571 -11.9604,4.76809 -18.57667,0.31074 -27.85714,-0.89285 5.0943,-1.44596 6.93158,-1.26341 16.25,-4.82143 7.78663,-2.97314 11.86269,-4.71425 15.17857,-3.57143 z"
       id="path3861"
       sodipodi:nodetypes="cscss" />
    <path
       style="opacity:0.5;fill:#a05a2c;fill-opacity:0.97254902;stroke:none"
       d="m 530.12996,345.39027 c -0.48183,2.09 -0.17504,4.40477 -0.17858,6.60715 -1.4151,-2.20238 -2.92681,-3.41223 -2.14285,-5.44644 0.65903,-1.71003 2.56376,-2.21184 2.32143,-1.16071 z"
       id="path3865"
       sodipodi:nodetypes="ccss" />
    <path
       style="fill:#0044aa;fill-opacity:1;stroke:none"
       d="m 536.21262,170.49901 c -1.52713,-1.75837 -7.50919,-3.97463 -11.61675,-2.02031 -3.67708,1.7495 -1.45428,9.33551 1.51523,12.12184 1.91536,1.79721 10.40687,2.4972 12.12183,1.01015 2.84426,-2.46628 0.44821,-8.26937 -2.02031,-11.11168 z"
       id="path3875"
       sodipodi:nodetypes="cssss" />
    <path
       sodipodi:type="arc"
       style="fill:#aa0000;fill-opacity:1;stroke:none"
       id="path3877"
       sodipodi:cx="390.42395"
       sodipodi:cy="177.4438"
       sodipodi:rx="3.2829957"
       sodipodi:ry="4.1668792"
       d="m 393.70695,177.4438 a 3.2829957,4.1668792 0 1 1 -6.566,0 3.2829957,4.1668792 0 1 1 6.566,0 z"
       transform="matrix(-1.1923077,0,0,1.1818182,981.38879,-33.272663)" />
    <path
       d="m 393.70695,177.4438 a 3.2829957,4.1668792 0 1 1 -6.566,0 3.2829957,4.1668792 0 1 1 6.566,0 z"
       sodipodi:ry="4.1668792"
       sodipodi:rx="3.2829957"
       sodipodi:cy="177.4438"
       sodipodi:cx="390.42395"
       id="path3879"
       style="fill:#aa0000;fill-opacity:1;stroke:none"
       sodipodi:type="arc"
       transform="matrix(-1,0,0,1,934.97034,3.0304576)" />
    <path
       style="fill:#f4eed7;fill-opacity:1;stroke:none"
       d="m 452.36996,702.34433 c 9.70893,12.55464 2.42198,32.81703 3.03046,48.99239 -1.48805,58.9517 -49.18311,76.86466 -100.00511,54.54825 -31.37272,-14.39611 -59.36792,-18.1162 -80.30712,-40.40611 -6.02642,-6.41516 -6.00617,-19.02372 1.01015,-32.32488 l 6.56599,-0.50508 c -1.79645,3.70389 -0.71109,7.40778 1.51523,11.11167 12.41997,20.66286 36.77789,26.27867 67.17514,35.86042 28.42275,8.95936 63.9151,4.18127 70.20561,-25.25381 6.29052,-29.43508 5.45354,-29.13928 0,-42.42641 l 30.80965,-9.59644 z"
       id="path3899"
       sodipodi:nodetypes="cccsccsszcc" />
    <path
       sodipodi:nodetypes="cssccsscc"
       id="path4016"
       d="m 460.95626,633.61334 c 5.91873,16.62215 6.55991,33.16795 4.54568,51.51778 -3.37017,30.70265 -30.24253,42.66032 -53.53809,43.43656 -76.62042,2.5531 -89.63839,-7.06388 -117.68276,-26.26397 2.19545,-8.0509 7.63065,-15.02187 11.61675,-22.47589 15.90243,17.89434 37.33064,23.09042 69.19545,26.5165 27.38667,2.9446 58.97357,-2.08038 66.16499,-31.31472 3.38248,-13.75036 -2.50358,-25.8306 -5.55584,-38.3858 l 25.25382,-3.03046 z"
       style="opacity:0.48999999;fill:#2b1100;fill-opacity:1;stroke:none" />
    <path
       style="fill:#f4eed7;fill-opacity:1;stroke:none"
       d="m 460.95626,629.61334 c 5.91873,16.62215 6.55991,33.16795 4.54568,51.51778 -3.37017,30.70265 -30.24253,42.66032 -53.53809,43.43656 -76.62042,2.5531 -88.62824,-5.54865 -116.67261,-24.74874 -9.61706,-6.58415 -4.1567,-17.52539 6.06091,-32.32488 l 9.09138,-3.28299 -4.54569,11.61675 c 15.90243,17.89434 37.33064,23.09042 69.19545,26.5165 27.38667,2.9446 58.97357,-2.08038 66.16499,-31.31472 3.38248,-13.75036 -2.50358,-25.8306 -5.55584,-38.3858 l 25.25382,-3.03046 z"
       id="path3897"
       sodipodi:nodetypes="cssscccsscc" />
    <path
       sodipodi:nodetypes="czscccscc"
       id="path3917"
       d="m 500.37251,546.19454 c -7.38634,23.96953 -3.92501,38.78165 -22.72843,71.21575 -18.80342,32.4341 -36.38848,37.2296 -57.07361,27.27412 -15.01172,-7.22494 -80.81221,-27.7792 -80.81221,-27.7792 l 16.16244,-24.24366 c 21.7007,10.06636 42.21912,17.76818 65.15484,30.30458 20.40827,7.44693 28.28647,-7.38997 36.36549,-18.68782 14.41995,-20.16511 16.15269,-32.02449 22.72843,-48.48732 5.93791,-5.58812 4.12417,-34.43122 20.20305,-9.59645 z"
       style="opacity:0.5;fill:#2b1100;fill-opacity:1;stroke:none" />
    <path
       style="opacity:0.3;fill:#000000;fill-opacity:1;stroke:none"
       d="m 451.77728,467.1875 c 13.23526,17.90768 22.35528,39.35333 35,58.9375 l -13.375,-5.21875 c -4.07783,-2.45529 -6.96875,-4.25 -6.96875,-4.25 -9.60304,-13.51096 -19.20946,-23.98781 -28.8125,-34.53125 l 14.15625,-14.9375 z"
       id="path3963"
       sodipodi:nodetypes="cccccc" />
    <path
       style="fill:#f4eed7;fill-opacity:1;stroke:none"
       d="m 458.93595,509.91026 c 15.58498,3.0226 24.1401,10.7871 36.87057,15.65737 6.03149,2.30746 7.95406,8.12245 6.56599,12.62691 -7.38634,23.96953 -3.92501,38.78165 -22.72843,71.21575 -18.80342,32.4341 -36.38848,37.2296 -57.07361,27.27412 -13.17381,-6.34038 -64.4512,-22.69347 -77.05706,-26.66455 -1.75868,-0.55401 -3.25007,3.43104 -3.25007,3.43104 -6.16358,-2.11373 7.83258,-20.03274 15.65736,-28.78935 21.7007,10.06636 42.21912,17.76818 65.15484,30.30458 20.40827,7.44693 28.28647,-7.38997 36.36549,-18.68782 14.41995,-20.16511 16.15269,-32.02449 22.72843,-48.48732 5.47987,-7.70652 3.26751,-12.37974 -0.50508,-14.64722 -10.32103,-6.20334 -17.67767,-6.76241 -25.75889,-10.10152 l -9.59644,3.53553 c 1.56092,-7.04822 5.64326,-18.02195 12.6269,-16.66752 z"
       id="path3895"
       sodipodi:nodetypes="csszsscccscsccs" />
    <path
       style="opacity:0.3;fill:#2b1100;fill-opacity:1;stroke:none"
       d="m 457.65228,509.78125 c 0.4139,-0.008 0.84477,0.0403 1.28125,0.125 5.62847,1.0916 10.33375,2.81239 14.65625,4.78125 l 0,0.53125 c 0,0 -5.0137,3.6406 -4.125,8.03125 0.62364,3.08107 5.08074,5.57011 10.6875,8.625 l -0.875,-0.0937 c -1.93838,-1.05248 -3.76972,-1.92205 -5.53125,-2.65625 -33.26698,30.24746 -57.3125,98.25 -57.3125,98.25 l -17.125,75.125 c -2.61729,0.94948 -4.0253,1.08631 -5.21875,3.71875 -1.1572,2.5525 -5.09028,10.86138 -3.0625,15 1.24357,2.53809 3.625,3.5625 3.625,3.5625 L 382.33978,783.5 c 0.19817,-0.014 -4.21016,3.14588 -2.94178,7.03982 3.32739,10.21516 7.3383,19.78158 37.09803,21.52268 -17.39754,5.62863 -38.93892,3.54089 -61.09375,-6.1875 -31.37272,-14.39611 -59.3733,-18.11634 -80.3125,-40.40625 -6.02642,-6.41516 -6.01632,-19.01134 1,-32.3125 l 5.78125,-0.4375 c 3.71313,-14.06516 8.81588,-25.54564 12.875,-33.3125 -8.84143,-6.62242 -3.42051,-17.40129 6.59375,-31.90625 l 9.09375,-3.28125 -1.65625,4.25 c 7.50236,-17.52619 19.30872,-40.27685 33.15625,-55.21875 -5.10188,-2.66963 7.84229,-19.3447 15.5625,-28.0625 l 5.90625,1.96875 c 0.72311,0.32642 1.43491,0.6459 2.15625,0.96875 15.05921,-16.87643 51.23905,-43.50253 80.9375,-62.34375 1.56733,-6.59132 5.17812,-15.88887 11.15625,-16 z M 345.08978,610 c -0.97245,0.089 -1.80984,1.39261 -2.3125,2.375 0.77532,-0.81412 1.52519,-1.61326 2.3125,-2.375 z"
       id="path3672"
       sodipodi:nodetypes="csccscccccssccsccsccccccccccccccc" />
    <path
       style="fill:#f4eed7;fill-opacity:1;stroke:none"
       d="m 413.86233,502.33412 c -0.10504,11.40668 -3.3246,22.1055 -0.25254,34.34519 5.8824,23.43664 0.52034,22.25082 0.75762,33.33503 0.47972,0.47972 17.01514,56.76298 15.9099,62.62946 -3.06705,16.2795 -16.10881,35.05472 -27.27412,33.84011 -27.17544,-2.95627 -43.07148,-2.76394 -50.76016,-41.41625 -2.72236,-13.68574 15.20755,-56.93893 18.68782,-62.37692 6.83452,-10.67908 15.40482,-11.61675 15.40482,-11.61675 -0.94201,-4.07937 1.49313,-5.9073 4.54569,-7.32361 7.01804,-18.40993 3.97425,-28.80494 5.55584,-41.6688 l 17.42513,0.25254 z"
       id="path3923"
       sodipodi:nodetypes="cscsssscccc" />
    <path
       style="fill:#782121;fill-opacity:1;stroke:none"
       d="m 420.9334,509.91027 c 1.04512,3.73012 1.69727,7.16551 -1.01015,8.08122 -10.64812,4.20668 -19.67208,1.55957 -29.44236,2.2549 -1.3418,-4.41142 0.23007,-5.40171 2.64793,-7.9333 7.50738,-0.214 17.47826,-1.24917 27.80458,-2.40282 z"
       id="path3901"
       sodipodi:nodetypes="ccccc" />
    <path
       style="fill:#782121;fill-opacity:1;stroke:none"
       d="m 418.79067,520.93361 c 2.45033,5.41443 1.81975,9.45957 -4.28571,11.07143 0,0 -8.75222,-3.69402 -14.64286,-2.5 -1.86522,0.37807 -9.6756,3.21428 -10,3.21428 -3.20331,-2.97619 -1.82343,-5.95238 -1.42857,-8.92857 14.31392,-2.35067 21.37428,-2.28349 30.35714,-2.85714 z"
       id="path3903"
       sodipodi:nodetypes="ccsccc" />
    <path
       style="opacity:0.3;fill:#28170b;fill-opacity:1;stroke:none"
       d="m 433.24603,382.5 c -5.22793,13.13913 11.45338,30.46963 21.5,39.375 -1.43701,-0.63519 -2.86209,-1.26189 -4.3125,-1.875 -12.72248,-5.37803 -21.54803,-18.18936 -23.8125,-24.25 -1.24246,-3.32532 1.46738,-8.75895 6.625,-13.25 z"
       id="path3709" />
    <path
       style="fill:#782121;fill-opacity:1;stroke:none"
       d="m 420.04508,391.21734 c 42.22765,30.25386 44.30407,85.71405 24.74874,102.02541 -18.10944,15.10532 -41.2272,22.13327 -62.12438,13.13198 -11.36025,-4.89333 -20.75004,-10.04812 -30.80965,-21.71827 -8.82742,-10.24069 -4.86025,-28.29481 -10e-6,-40.91119 7.81949,-20.29811 22.93898,-37.79873 39.39595,-52.02285 16.13293,-13.94405 20.98718,-6.09492 28.78935,-0.50508 z"
       id="path3883"
       sodipodi:nodetypes="cssssss" />
    <path
       style="opacity:0.3;fill:#552200;fill-opacity:1;stroke:none"
       d="m 399.33085,568.61607 c 10.64618,16.435 20.69351,41.01471 23.91518,50.88393 4.99228,15.2933 1.32026,21.73561 -1.40625,23.21875 0.85111,-8.13234 -1.3642,-11.0176 -2.34375,-14.09375 -3.6742,8.08863 -5.01,12.71912 -14.09375,19.8125 5.40304,-7.92624 8.14553,-27.55433 4.28125,-34.65625 -6.60715,-12.14285 -31.79465,-19.45089 -37.6875,-14.09375 -3.77522,2.31785 -10.26132,11.66832 -15.9375,0.96875 4.89591,-16.46604 12.70396,-34.57645 14.875,-37.96875 8.91253,-1.78963 21.63046,-0.85889 28.39732,5.92857 z"
       id="path3981"
       sodipodi:nodetypes="cscccscccc" />
    <path
       style="fill:#deaa87;fill-opacity:1;stroke:none"
       d="m 372.44608,565.46866 c 0,0 18.18274,-6.06092 26.76904,4.04061 5.72445,6.73465 1.94148,4.69889 4.29315,7.57614 -6.01104,4.61219 -11.71031,3.91693 -18.68782,16.41498 -5.63886,10.10028 -12.22799,-3.08165 -11.11168,-7.32361 0,0 -1.90044,8.09429 -9.84898,11.36422 -6.13107,2.52224 -10.35407,-2.04398 -6.06092,-7.32361 -4.18137,3.42239 -5.95914,3.59454 -10.85914,4.04061 -4.89999,0.44608 -14.43583,-2.46946 -3.53554,-9.84898 -7.50724,-1.18026 -10.09965,-12.22091 2.77792,-11.61676 17.14161,0.80418 18.33988,-3.70763 26.26397,-7.3236 z"
       id="path3925"
       sodipodi:nodetypes="cscscsczcsc" />
    <path
       style="opacity:0.5;fill:#a05a2c;fill-opacity:1;stroke:none"
       d="m 487.47276,340.20463 c -12.87944,-1.26268 -29.54696,-11.36421 -29.54696,-11.36421 0,0 12.07477,12.29947 18.43528,13.8896 6.06092,1.51523 10.60661,-3.03046 11.11168,-2.52539 z"
       id="path3936"
       sodipodi:nodetypes="cczc" />
    <path
       style="opacity:0.5;fill:#a05a2c;fill-opacity:1;stroke:none"
       d="m 496.81667,418.99654 c -0.12626,4.16687 -2.06192,4.80487 -3.78807,4.92449 -2.64939,0.18361 -3.91434,-5.3033 -3.283,-5.05076 0.63135,0.25253 7.07107,0.12627 7.07107,0.12627 z"
       id="path3938"
       sodipodi:nodetypes="cssc" />
    <path
       style="opacity:0.3;fill:#552200;fill-opacity:1;stroke:none"
       d="m 391.40228,542.3125 c 2.05638,0.73216 9.47942,3.3793 10.59375,3.96875 2.70062,1.42857 1.04527,2.46126 -1.25,1.96875 -3.32883,-0.71428 -6.41518,-5.16518 -9.09375,-2.84375 -2.67857,2.32143 -2.875,4.46875 -2.875,4.46875 8.29449,-0.35127 16.35275,-0.25684 20.90625,6.40625 1.65286,3.1985 -0.52432,3.05553 -2.15625,2.5 0.34796,-3.78538 -9.89509,-7.16705 -17.125,-7.5 -2.45237,-0.11293 -3.65207,-0.68899 -4.25,-1.28125 -0.30183,-3.32901 1.95237,-4.96647 4.71875,-6.25 0.18733,-0.4914 0.35798,-0.95732 0.53125,-1.4375 z"
       id="path3976" />
    <path
       style="opacity:0.5;fill:#2b1100;fill-opacity:1;stroke:none"
       d="m 580.65228,665.46875 c 5,4.64286 19.16291,83.0203 24.71875,81 4.64566,-1.68934 4.70385,-9.9615 4.25,-13.59375 0.48049,3.35077 6.49434,45.13885 10.09375,62.21875 -1.15132,0.25779 -2.36075,0.50295 -3.6875,0.6875 -8.30002,1.15452 -8.59054,-2.43131 -12.125,-4.03125 l -1.09375,1.5 c -4.18712,-44.04565 -17.35661,-87.42397 -22.15625,-127.78125 z m -69.6875,48.5 c 0,0 4.37519,83.6133 10.6875,102.0625 -5.59603,-1.37424 -5.9032,-4.82076 -9.1875,-7.125 l -1.5625,0.28125 -0.4375,-32.59375 0.5,-62.625 z M 560.87103,731 c 0,0 7.71939,53.9575 11.28125,70.8125 -1.65792,0.51577 -3.33863,1.10578 -5.09375,1.71875 C 564.172,779.35615 562.66324,755.1751 560.87103,731 z m -69.09375,33.46875 4.0625,47.40625 -3.0625,0.5625 c 0,0 4.05155,2.5422 2.03125,4.5625 -1.33755,1.33755 -2.98611,2.25356 -4.84375,2.875 l 1.8125,-55.40625 z m -30.3125,30.8125 1.0625,24.75 c -0.18613,0.002 -0.37884,-0.005 -0.5625,0 -3.283,-0.75761 -5.5625,-4.5625 -5.5625,-4.5625 0,0 -0.27445,2.9019 -1.9375,4.3125 l 7,-24.5 z"
       id="path3986" />
    <path
       style="opacity:0.5;fill:#28170b;fill-opacity:1;stroke:none"
       d="m 441.43353,486.28125 c -2.45165,5.16887 -6.92451,10.68028 -9.71875,15.90625 -14.79277,8.13858 -31.42197,10.90469 -46.96875,5.03125 -0.24307,-0.21652 -0.51847,-0.4064 -0.8125,-0.5625 -5.2596,-2.79225 -13.40917,-8.79615 -12.84375,-8.9375 7.45698,4.18671 15.258,6.14842 23.1875,7.5 -5.59489,-3.74048 -7.3204,-5.98631 -12.5,-13.21875 10.74458,7.97107 9.94839,9.45984 16.09375,11.0625 l 1.0625,-3.90625 c 0,0 5.71875,5 5.71875,2.5 0,-2.5 1.42858,-3.92411 2.5,0.71875 1.07143,4.64286 7.86161,2.5 8.21875,0 0.35714,-2.5 3.90625,-10 3.90625,-10 0,0 -0.70089,11.04464 2.15625,8.1875 2.85714,-2.85715 9.64286,-6.06696 20,-14.28125 z"
       id="path4005" />
    <path
       style="font-size:medium;font-style:normal;font-variant:normal;font-weight:normal;font-stretch:normal;text-indent:0;text-align:start;text-decoration:none;line-height:normal;letter-spacing:normal;word-spacing:normal;text-transform:none;direction:ltr;block-progression:tb;writing-mode:lr-tb;text-anchor:start;color:#000000;fill:#000000;fill-opacity:1;stroke:none;stroke-width:2;marker:none;visibility:visible;display:inline;overflow:visible;enable-background:accumulate;font-family:Advert;-inkscape-font-specification:Advert"
       d="m 534.96478,274.5 c 3.20337,0.49968 6.40419,1.3382 9.26802,2.85015 2.79499,1.47561 0.53285,4.50561 -0.17797,6.61674 -0.97104,2.88396 -1.25904,9.46649 -1.65255,9.03311 -0.51681,-0.56919 -0.15297,-8.08352 -0.92684,-12.02722 -0.55748,-2.84099 -4.14407,-2.30657 -6.33586,-2.82798 -3.14132,-0.74729 -6.38445,-0.51111 -9.56796,-0.0912 -4.30037,0.56723 -8.269,2.50847 -12.39965,3.68608 -2.7437,0.78221 -3.70728,3.37419 -4.36111,5.81483 -1.08371,4.0453 -2.73248,7.92216 -3.50163,12.06268 -0.56149,3.02263 -1.82455,5.94252 -2.09407,8.98638 -0.26563,2.99997 3.77417,2.36906 5.80466,2.24025 9.60831,-0.60955 19.28625,-1.84169 28.84221,-1.58733 2.58258,0.0687 2.74839,-2.79113 3.19147,-2.93129 0.46842,-0.14817 1.05547,3.86369 -1.66334,4.40631 -4.18694,0.83564 -8.21976,0.21547 -12.48207,0.6031 -7.60071,0.69124 -15.22057,1.3168 -22.84019,1.68429 -2.76416,0.13332 -2.83171,-3.10638 -2.12954,-5.15036 1.53628,-4.47206 2.93828,-9.03497 4.17318,-13.60304 0.67816,-2.50862 1.19515,-5.18163 1.02605,-7.75188 -0.14472,-2.19979 -2.36375,-5.03103 0.34781,-6.65292 2.8164,-1.6846 5.86794,-2.90012 9.09922,-3.44925 5.9372,-1.00897 11.97797,-2.66753 17.95939,-1.96114 0,0 0.35143,0.17273 0.42084,0.0497 2e-5,-3e-5 -3e-5,-10e-5 -7e-5,-9e-5 -3e-5,1e-5 -3e-5,8e-5 0,8e-5 z m 8.3125,5.28125 c -0.14827,0.17638 0.23159,-0.0279 0,0 z"
       id="path4018"
       sodipodi:nodetypes="cssssssssssssssssssssssssscc" />
    <path
       style="font-size:medium;font-style:normal;font-variant:normal;font-weight:normal;font-stretch:normal;text-indent:0;text-align:start;text-decoration:none;line-height:normal;letter-spacing:normal;word-spacing:normal;text-transform:none;direction:ltr;block-progression:tb;writing-mode:lr-tb;text-anchor:start;color:#000000;fill:#000000;fill-opacity:1;stroke:none;stroke-width:2;marker:none;visibility:visible;display:inline;overflow:visible;enable-background:accumulate;font-family:Advert;-inkscape-font-specification:Advert"
       d="m 581.30853,277.40625 c 2.47957,0.16909 4.91844,0.90134 7.05851,2.20047 2.40388,1.45927 4.64057,3.2521 6.54953,5.33216 1.40056,1.52608 1.77487,3.7041 0.38071,5.33994 -1.40285,1.64603 -2.04281,3.97565 -3.29462,5.55594 -0.32248,0.4071 -0.62495,-2.19603 -0.50663,-3.05351 0.2705,-1.96026 1.96372,-4.3123 -0.20714,-5.93754 -1.83468,-1.37355 -3.245,-3.28334 -5.04286,-4.68746 -1.66141,-1.29755 -3.95468,-1.2704 -5.99612,-1.29015 -2.07535,-0.0201 -4.70918,-0.30727 -6.25814,1.23191 -1.56279,1.55293 -2.09701,3.89739 -3.43568,5.6759 -0.56281,0.74773 -1.54853,2.82739 -0.97195,0.66258 0.59027,-2.21624 1.02419,-4.48836 1.06997,-6.78439 0.0429,-2.14949 2.19569,-2.91618 3.95665,-3.29865 2.20243,-0.47836 4.44277,-1.10098 6.69777,-0.9472 z m 9.8125,26.28125 c 0.52389,0.76353 0.63139,3.83262 0.61674,5.76034 -0.0118,1.55012 -1.76783,2.03938 -3.10208,2.13956 -4.28598,0.32179 -8.58505,1.25305 -12.89271,1.20796 -3.13404,-0.0328 -6.19937,0.35461 -9.32164,0.4846 -2.02325,0.0842 -4.51847,-0.90117 -5.29243,-2.94049 -0.48731,-1.28401 2.17938,-3.41089 2.11162,-2.87512 -0.26173,2.06956 0.94246,4.08603 3.18739,4.07081 2.41624,-0.0164 4.88065,0.49463 7.28304,0.13611 3.89019,-0.58055 7.75515,-1.57062 11.70044,-1.59024 1.90225,-0.009 3.81672,-0.90327 4.22962,-2.91719 0.24225,-1.18159 1.18585,-3.90505 1.48001,-3.47634 z"
       id="path4025"
       sodipodi:nodetypes="csssssssssssssscsssssssssss" />
    <path
       style="opacity:0.5;fill:#a05a2c;fill-opacity:1;stroke:none"
       d="m 616.43353,547.28125 c -1.72903,7.69853 -0.43249,9.08559 2.28125,10.21875 -1.78981,0.8794 -4.10353,1.54528 -6.22065,1.53252 -1.49082,-6.24412 0.7395,-8.52999 2.22065,-11.53252 0.45571,-0.13798 1.04904,-0.24027 1.71875,-0.21875 z"
       id="path2883"
       sodipodi:nodetypes="ccccc" />
    <path
       style="opacity:0.5;fill:#a05a2c;fill-opacity:1;stroke:none"
       d="m 375.18353,574.5 c 2.5422,0.23043 2.8254,1.25838 2.84375,2.6875 0.032,2.48841 -4.8125,9.09375 -4.8125,9.09375 l -0.28125,2.0625 c -1.12845,2.62977 -3.69407,6.979 -9.0625,9.1875 -2.52278,1.03784 -4.7087,0.85585 -6.125,-0.0625 0.97677,-2.40757 2.6335,-5.37736 0.0625,-7.25 -4.18137,3.42239 -5.975,3.58518 -10.875,4.03125 -2.64545,0.24083 -6.62879,-0.48266 -8.03125,-2.375 5.11871,-0.46957 9.73562,-1.47231 11.09375,-5.9375 l -6.75,-1.40625 c 0.0591,-0.0406 0.0959,-0.0841 0.15625,-0.125 -4.29796,-0.67571 -6.96704,-4.58341 -6.0625,-7.6875 2.16464,5.42409 18.29153,4.3857 24.625,2.4375 1.0382,-0.31936 8.56908,-5.07771 13.21875,-4.65625 z"
       id="path3660"
       sodipodi:nodetypes="csccsccscccccsc" />
    <path
       style="opacity:0.3;fill:#28170b;fill-opacity:1;stroke:none"
       d="m 381.1542,406.36963 c -21.48758,47.03447 8.16118,80.76496 31.31474,100.0051 -18.47954,2.32052 -25.37267,0.48418 -39.90104,-8.5863 -40.57682,-25.33327 -19.75914,-55.89947 8.5863,-91.4188 z"
       id="path3702"
       sodipodi:nodetypes="ccsc" />
  </g>
</svg>
