<?xml version="1.0" encoding="UTF-8" standalone="no"?>
<!-- Created with Inkscape (http://www.inkscape.org/) -->

<svg
   xmlns:dc="http://purl.org/dc/elements/1.1/"
   xmlns:cc="http://creativecommons.org/ns#"
   xmlns:rdf="http://www.w3.org/1999/02/22-rdf-syntax-ns#"
   xmlns:svg="http://www.w3.org/2000/svg"
   xmlns="http://www.w3.org/2000/svg"
   xmlns:sodipodi="http://sodipodi.sourceforge.net/DTD/sodipodi-0.dtd"
   xmlns:inkscape="http://www.inkscape.org/namespaces/inkscape"
   width="350.47705"
   height="513.02124"
   id="svg2"
   version="1.1"
   inkscape:version="0.47 r22583"
   sodipodi:docname="robot.svg"
   style="display:inline">
  <title
     id="title4055">robot</title>
  <defs
     id="defs4">
    <inkscape:perspective
       sodipodi:type="inkscape:persp3d"
       inkscape:vp_x="0 : 526.18109 : 1"
       inkscape:vp_y="0 : 1000 : 0"
       inkscape:vp_z="744.09448 : 526.18109 : 1"
       inkscape:persp3d-origin="372.04724 : 350.78739 : 1"
       id="perspective10" />
    <inkscape:perspective
       id="perspective3779"
       inkscape:persp3d-origin="0.5 : 0.33333333 : 1"
       inkscape:vp_z="1 : 0.5 : 1"
       inkscape:vp_y="0 : 1000 : 0"
       inkscape:vp_x="0 : 0.5 : 1"
       sodipodi:type="inkscape:persp3d" />
  </defs>
  <sodipodi:namedview
     id="base"
     pagecolor="#ffffff"
     bordercolor="#666666"
     borderopacity="1.0"
     inkscape:pageopacity="0.0"
     inkscape:pageshadow="2"
     inkscape:zoom="1.2823262"
     inkscape:cx="-133.35284"
     inkscape:cy="297.66266"
     inkscape:document-units="px"
     inkscape:current-layer="layer2"
     showgrid="false"
     inkscape:window-width="1920"
     inkscape:window-height="1152"
     inkscape:window-x="0"
     inkscape:window-y="0"
     inkscape:window-maximized="1" />
  <metadata
     id="metadata7">
    <rdf:RDF>
      <cc:Work
         rdf:about="">
        <dc:format>image/svg+xml</dc:format>
        <dc:type
           rdf:resource="http://purl.org/dc/dcmitype/StillImage" />
        <dc:title>robot</dc:title>
        <dc:date>2011-03-06</dc:date>
        <dc:creator>
          <cc:Agent>
            <dc:title>tzunghaor (Prim András)</dc:title>
          </cc:Agent>
        </dc:creator>
        <cc:license
           rdf:resource="http://creativecommons.org/licenses/publicdomain/" />
        <dc:publisher>
          <cc:Agent>
            <dc:title>openclipart.org</dc:title>
          </cc:Agent>
        </dc:publisher>
        <dc:subject>
          <rdf:Bag>
            <rdf:li>robot</rdf:li>
            <rdf:li>machine</rdf:li>
            <rdf:li>droid</rdf:li>
            <rdf:li></rdf:li>
          </rdf:Bag>
        </dc:subject>
      </cc:Work>
      <cc:License
         rdf:about="http://creativecommons.org/licenses/publicdomain/">
        <cc:permits
           rdf:resource="http://creativecommons.org/ns#Reproduction" />
        <cc:permits
           rdf:resource="http://creativecommons.org/ns#Distribution" />
        <cc:permits
           rdf:resource="http://creativecommons.org/ns#DerivativeWorks" />
      </cc:License>
    </rdf:RDF>
  </metadata>
  <g
     inkscape:groupmode="layer"
     id="layer2"
     inkscape:label="Réteg"
     transform="translate(-150.49947,-144.21132)">
    <path
       sodipodi:type="inkscape:offset"
       inkscape:radius="3.6421568"
       inkscape:original="M 292.84375 149.15625 C 265.17886 150.14428 223.3506 157.49257 214.46875 160.59375 C 211.65455 161.07394 209.08393 162.04471 207.15625 163.78125 C 199.36802 170.79723 199.93254 177.69841 200 178.3125 L 198.125 179.875 C 197.52648 180.15703 196.97591 180.5146 196.4375 180.9375 C 194.80964 182.21612 193.3238 183.59566 191.96875 185.03125 L 190 186.65625 L 190.28125 186.9375 C 179.2512 200.25409 178.378 219.19692 182.1875 238.59375 C 180.53495 239.70108 179.11604 241.10887 177.96875 242.75 C 177.23527 237.35395 176.54813 232.13528 176.125 227.78125 C 175.69811 223.38854 174.99582 221.40472 173.78125 221.90625 C 169.5218 223.66508 165.81829 232.19471 163.96875 238.28125 C 163.51945 238.72946 163.10515 239.59228 162.78125 240.9375 C 161.62207 245.75183 157.70982 263.4866 158.78125 267.59375 C 159.85267 271.70089 162.14765 277.3313 166.28125 277.59375 C 166.59781 277.61385 166.84088 277.64015 167.125 277.65625 C 167.87444 278.04647 168.77406 278.37262 169.71875 278.65625 C 160.76179 304.47313 162.1071 333.799 161.4375 360.5625 C 161.4041 361.89562 162.59486 363.28948 164.0625 363.09375 C 163.29381 364.77113 162.84375 366.65016 162.84375 368.625 C 162.84375 370.354 163.18342 371.9902 163.78125 373.5 C 161.53242 373.93712 159.4786 374.53347 157.8125 375.3125 C 157.58698 375.3711 157.37639 375.45137 157.15625 375.5625 C 156.90539 375.68913 156.66001 375.87409 156.4375 376.0625 C 156.31397 376.1394 156.17949 376.20148 156.0625 376.28125 C 156.0605 376.27525 156.09405 376.40897 156.09375 376.40625 C 150.77314 382.05723 154.34234 406.33631 156.71875 408.1875 C 166.31184 415.6604 175.43855 438.90005 181.0625 454.875 C 182.49552 458.94549 189.2991 467.01339 192.15625 469.15625 C 193.32448 470.03242 194.76586 470.68901 196.1875 471.09375 C 196.72512 472.67824 197.5955 474.10875 198.75 475.25 C 195.23822 475.60664 192.5 478.58162 192.5 482.1875 C 192.5 484.551 193.66852 486.64723 195.46875 487.90625 C 195.56225 489.08214 196.07945 490.11571 196.875 490.875 C 196.17465 491.73081 195.71875 492.98005 195.71875 494.5 C 195.00447 501.64286 193.21429 507.36161 191.25 516.46875 C 191.14681 516.94719 191.2781 517.48494 191.5625 518.03125 L 189.96875 518.15625 C 185.50446 518.69197 182.94556 524.40658 181.875 528.21875 C 178.77198 539.26831 190.22894 542.51967 197.9375 537.46875 C 201.72152 534.98932 203.69112 529.5368 203.21875 525.9375 C 203.32685 524.42412 202.48751 521.63719 201.78125 519.59375 C 203.81383 515.45885 205.24704 505.6938 204.09375 496.8125 C 203.77289 494.34161 203.13282 492.59988 202.3125 491.4375 C 203.58201 490.62416 204.4375 489.17603 204.4375 487.53125 C 204.4375 487.37731 204.3895 487.24381 204.375 487.09375 C 205.37819 486.09056 206.10049 484.80554 206.34375 483.34375 C 206.95754 484.05126 207.7114 484.6483 208.5625 485.0625 C 208.85306 486.32497 209.64418 487.37719 210.71875 488 C 210.45961 489.05753 210.53219 490.30446 211.03125 491.65625 C 212.99887 499.3243 213.27695 505.92713 214.65625 516.09375 C 214.74875 516.77572 215.25516 517.41938 216.03125 517.96875 C 215.95175 518.21162 215.88286 518.45972 215.84375 518.71875 C 212.34884 520.70057 208.59652 526.33486 207.75 527.75 C 199.96778 540.75967 212.18439 545.01494 216.6875 542.09375 C 219.20913 540.45796 222.27709 536.19736 224.5 532.09375 C 226.42016 533.45613 228.93181 533.8549 231 533.46875 C 233.39004 538.12576 236.3963 542.14422 240.21875 545.3125 C 241.17829 545.85224 242.21262 546.01924 243.28125 545.875 C 245.44976 548.02058 248.3335 549.42272 251.53125 549.65625 C 244.97915 559.86543 237.87383 571.29574 235.03125 584.1875 C 230.83815 603.2042 225.83411 624.92963 231.4375 625.5625 C 232.67966 625.7028 233.78069 625.82586 234.875 625.9375 C 232.2527 629.05967 232.23293 632.40174 232.59375 635.46875 C 233.09883 639.7619 234.61818 645.80997 238.40625 646.0625 C 238.90707 646.0959 239.69744 646.13885 240.6875 646.15625 C 242.85817 651.58543 247.71237 656.88026 257.59375 656.34375 C 273.00945 655.50676 300.01681 656.08026 304.5625 654.3125 C 309.10819 652.54474 316.18496 652.04918 316.4375 640.9375 C 316.69004 629.82583 303.81012 619.22128 294.71875 618.96875 C 289.29634 618.81813 281.31474 618.13912 274.28125 618.25 C 274.29245 618.1502 274.3024 618.07223 274.3125 617.96875 C 275.44638 606.35473 272.22636 540.13953 269.65625 535.03125 C 267.87741 531.49568 266.20021 530.45517 264.65625 530.8125 C 263.84112 528.87029 262.58616 527.16013 261.03125 525.8125 C 262.30573 523.4719 263.37169 521.26526 264.15625 519.5 C 267.47639 512.02968 254.56931 477.61585 249.25 463.21875 C 250.01962 463.33583 250.79227 463.4375 251.59375 463.4375 C 258.46843 463.4375 264.3158 458.96568 266.53125 452.71875 C 271.1098 455.01682 275.76101 456.57629 280.0625 456.875 C 283.2354 457.09533 288.25584 456.2687 292.5 454.875 C 297.44268 458.44643 301.75661 460.33741 304.75 459.03125 C 306.85849 460.00332 308.99861 460.52786 311.125 460.40625 C 315.41384 460.16097 320.19275 455.79249 324.59375 450.03125 C 324.94104 450.39022 325.30894 450.7377 325.6875 451.0625 C 324.46821 453.54493 323.75 455.40454 323.75 456.125 C 323.75 459.15546 317.58853 503.80901 319.21875 508.15625 C 321.01479 512.94568 322.35234 518.19068 327.9375 520.3125 C 328.82303 526.91079 334.33469 532 341.03125 532 C 341.06225 532 341.0941 532.00022 341.125 532 C 335.07197 541.10733 328.73647 548.78888 327.59375 550.3125 C 325.32091 553.34295 322.53379 558.1342 322.28125 563.4375 C 322.02871 568.7408 317.46875 594.57528 317.46875 600.8125 C 317.46875 605.57793 319.36878 607.29308 322.21875 607.96875 C 318.10725 608.63735 315.9588 610.26205 316.4375 611.9375 C 317.95273 617.2408 318.98141 619.8209 322.25 621.78125 C 330.99046 623.1409 361.64599 624.00877 368.46875 621.53125 C 369.15258 621.06916 369.7313 620.67437 370.21875 620.28125 C 370.56528 620.31525 370.92601 620.34375 371.28125 620.34375 C 373.20128 620.34375 374.99595 619.82897 376.5625 618.9375 C 377.92791 621.74901 379.49838 623.60238 381.09375 623.5625 C 391.19527 623.30996 418.80833 624.60563 426.28125 625.5625 C 435.88578 626.79231 438.12639 620.80966 440.1875 615.46875 C 442.41648 609.69287 440.95838 601.44318 436.375 597.28125 C 423.20955 585.32636 403.58784 589.88641 385.875 591.46875 C 382.02815 591.8124 372 593.91908 372 597.78125 C 372 597.88055 371.99911 597.99326 372 598.09375 C 371.76376 598.07815 371.52135 598.0625 371.28125 598.0625 C 369.91995 598.0625 368.60763 598.31495 367.40625 598.78125 C 364.54196 595.35617 358.96825 597.04626 355.5625 597.03125 C 354.88808 597.02825 354.24726 597.0747 353.59375 597.125 C 353.75356 597.01532 353.93871 596.88903 354.09375 596.78125 C 358.59978 593.64887 364.56448 589.87917 364.96875 584.40625 C 366.39785 565.0591 364.23272 530.74397 360.90625 504.59375 C 360.29282 499.77141 352.87047 497.81663 352.84375 505.375 C 352.83775 507.04201 352.51033 508.86414 351.96875 510.8125 C 350.94051 509.27792 349.60582 507.95937 348.0625 506.96875 C 359.44412 483.48202 359.2106 433.78279 356.34375 429.34375 C 353.4708 424.89527 351.80537 421.04484 349.25 422.53125 C 347.85852 423.34065 346.50596 424.31626 345.15625 425.40625 C 343.44221 424.14601 341.47399 423.23279 339.34375 422.75 C 343.1257 411.27737 344.38322 394.1509 342.4375 391.71875 C 342.09938 391.2961 339.75835 391.06856 336.1875 390.96875 L 336.875 381.625 C 344.72452 380.28516 347.87772 373.49988 348.5625 368.0625 C 350.25973 354.58595 351.15713 338.13436 351.625 324.15625 C 354.89404 318.25839 357.48144 311.47329 358.96875 304.5625 C 362.69051 314.09539 366.0625 323.2977 366.0625 325.21875 C 366.0625 327.89732 367.55473 328.05222 369.3125 327.90625 C 368.38223 329.71586 367.84375 331.78245 367.84375 333.96875 C 367.84375 339.05491 370.71985 343.44547 374.875 345.59375 C 373.85551 346.39702 373.07866 347.22608 372.6875 348.09375 L 372.5 347.90625 C 371.07143 354.33482 371.79911 363.62053 374.65625 366.65625 C 376.42133 368.53165 389.43178 381.61836 399.28125 388.78125 C 407.97767 395.1056 418.40625 409.67858 423.40625 410.75 C 424.29728 410.94093 425.36043 411.17387 426.46875 411.40625 C 426.9599 412.73916 427.85948 413.88053 429 414.6875 C 427.21878 420.4444 430.55386 436.2245 433.34375 437.4375 C 434.74331 438.04601 436.15343 438.58118 437.53125 438.90625 C 437.43255 448.05562 443.46746 456.18844 449 455.625 C 455.5495 454.95799 460.63248 454.18391 467.4375 453.34375 C 472.8705 452.67297 473.32501 438.66386 470.21875 434.15625 C 464.09335 428.04647 455.57841 427.00108 448.09375 429.71875 C 447.26838 425.80257 443.04109 421.65202 441.4375 416.71875 C 440.91179 415.10145 440.0167 413.72426 438.9375 412.65625 C 438.9614 412.61755 438.9768 412.57045 439 412.53125 C 441.05899 411.52205 442.72 409.82972 443.75 407.75 C 444.13492 411.23212 447.10278 413.9375 450.6875 413.9375 C 453.58256 413.9375 456.04295 412.17018 457.09375 409.65625 C 460.13353 411.29292 470.42418 412.70762 472.75 410.15625 C 472.97002 409.91489 473.18282 409.68302 473.375 409.4375 C 474.24104 411.36185 477.64935 418.6421 480.59375 420.75 C 484.15367 423.29855 491.01679 422.83742 494.71875 420.5 C 498.37943 418.18865 497.0878 412.76339 495.71875 408.65625 C 495.66175 408.48533 495.60319 408.29884 495.53125 408.125 C 497.81124 403.89837 498.04456 398.04566 496 393.75 C 492.57351 386.55086 479.59955 383.39047 473.3125 384.53125 C 475.37921 381.49156 476.66443 376.98822 474.8125 372.375 C 473.83026 369.92822 465.1074 358.36142 458.25 360.9375 C 456.20724 361.70489 454.02548 362.80031 452.21875 364.21875 C 449.86692 364.28915 447.19047 364.92967 445.40625 366.53125 C 443.20657 368.50576 436.57266 384.717 435.5625 388 C 435.5041 388.18986 435.45665 388.37216 435.4375 388.5625 C 430.16791 383.70433 418.89457 375.74751 415.34375 369.875 C 410.70089 362.19642 405.22456 351.59032 401.0625 342 C 399.23607 337.7915 395.86712 336.84991 392.875 337.46875 C 393.17907 336.35298 393.34375 335.18365 393.34375 333.96875 C 393.34375 328.64498 390.2235 324.08675 385.75 322.0625 C 386.2604 320.50152 386.29826 318.73823 386.0625 317 C 382.61448 291.5784 383.42285 267.98734 371.71875 244.375 C 373.05208 244.03737 374.38542 243.6022 375.71875 243.0625 C 379.36198 241.58781 377.70734 238.92708 376.0625 231.28125 C 374.41766 223.63542 370.56307 213.54807 366.78125 208.4375 C 357.68096 196.13982 354.87649 201.60268 354.6875 212.90625 C 353.97014 212.79688 353.24749 212.71875 352.5 212.71875 C 351.75251 212.71875 351.02986 212.79685 350.3125 212.90625 C 346.78232 194.38728 342.60103 178.50716 338.21875 173.0625 C 334.23175 168.10896 331.63517 165.55308 327.15625 163.78125 C 323.16489 162.2023 314.28125 163.0625 314.28125 163.0625 C 308.20989 158.41964 305.03211 153.79911 292.84375 149.15625 z M 206.25 173.125 L 200.03125 178.28125 C 200.29773 177.59074 202.30997 175.16489 206.25 173.125 z M 202.71875 294.15625 C 207.88673 304.28281 212.58509 312.12467 215 315.9375 C 225.90008 333.14726 242.15179 368.08036 241.4375 375.9375 C 241.05407 380.15524 247.66608 383.32824 255.3125 385.15625 L 255.625 393.875 C 253.28915 393.98702 249.82402 394.1707 248 394.25 C 248 394.25 248.344 394.53665 248.375 394.5625 C 242.90054 393.57204 236.03979 396.59284 235.375 403.34375 C 234.76274 409.56113 237.38674 429.08439 242.4375 433.125 C 242.59534 433.25127 242.74463 433.35531 242.875 433.4375 C 242.9062 433.4778 242.93725 433.5221 242.96875 433.5625 C 238.60461 436.45918 235.71875 441.47123 235.71875 447.1875 C 235.71875 447.1981 235.71873 447.20825 235.71875 447.21875 C 234.58272 446.48491 233.41122 445.78688 232.1875 445.125 C 232.139 444.94734 232.07982 444.77137 232.03125 444.59375 C 229.57707 443.14252 227.89708 441.11917 225.15625 440 C 222.83482 439.10714 222.93396 441.63805 222.875 443.25 C 222.8516 450.71471 222.61853 458.71841 222.46875 466.8125 C 221.47291 466.26335 220.31138 465.9375 219.09375 465.9375 C 218.07449 465.9375 217.12251 466.1378 216.25 466.53125 C 215.93595 463.36933 214.27179 460.62272 211.84375 458.90625 C 213.1917 455.48756 214.04194 452.23768 214.28125 450.5625 C 214.63443 448.09023 206.81725 437.50735 198.875 415.34375 C 192.51771 397.6031 192.70482 376.84372 190.71875 375.21875 C 190.06399 374.68304 188.83052 374.20932 187.28125 373.8125 C 187.9611 372.21815 188.34375 370.47539 188.34375 368.625 C 188.34375 367.27511 188.15376 365.97456 187.78125 364.75 C 191.52203 360.97318 194.02771 334.95696 195.34375 327.71875 C 196.1397 323.34101 199.83306 308.37475 202.71875 294.15625 z M 453.15625 388 C 453.30881 388.12361 453.46414 388.26515 453.625 388.375 C 453.83914 388.52123 454.06147 388.65354 454.28125 388.78125 C 453.41123 389.55069 452.45417 390.43309 451.40625 391.40625 C 451.12293 391.29751 450.83099 391.19638 450.53125 391.125 C 451.44518 390.15208 452.30285 389.06673 453.15625 388 z M 428.0625 394.59375 C 428.1252 394.59439 428.18734 394.59339 428.25 394.59375 C 428.2206 394.61685 428.18545 394.63285 428.15625 394.65625 C 428.12735 394.63285 428.0913 394.61675 428.0625 394.59375 z M 469.1875 398.625 C 469.31166 399.07708 469.45886 399.49297 469.625 399.875 C 468.81846 399.73747 468.01431 399.62707 467.21875 399.5625 C 467.56899 399.4862 468.31824 399.12727 469.1875 398.625 z M 455.78125 399.15625 C 458.67932 399.32007 461.38538 399.48477 463.3125 399.5625 C 460.23517 399.85239 457.6415 400.87467 456.21875 402.78125 C 455.83551 402.27873 455.40984 401.81939 454.90625 401.4375 C 455.31754 400.7429 455.6317 399.97884 455.78125 399.15625 z M 218.46875 480 C 218.93783 480.61602 219.56838 481.12921 220.28125 481.4375 C 220.03886 482.54477 220.21755 483.89975 220.96875 485.28125 C 221.5111 486.56989 221.99552 487.83335 222.4375 489.09375 C 222.28384 490.59521 222.12427 491.97552 221.96875 493.15625 C 221.62319 492.41775 221.28501 491.68616 220.90625 490.96875 C 219.6261 488.54401 218.25295 486.96704 216.9375 486.0625 C 217.24574 485.4394 217.4375 484.746 217.4375 484 C 217.4375 483.60123 217.3745 483.21271 217.28125 482.84375 C 217.87118 482.01767 218.28556 481.03995 218.46875 480 z "
       style="fill:#000000;fill-opacity:1;stroke:none"
       id="path3874"
       d="m 292.71875,145.53125 c -14.08887,0.50317 -31.53249,2.5739 -46.65625,4.9375 -14.78623,2.31084 -26.75286,4.70348 -32.21875,6.53125 -0.13898,0.0237 -0.26729,0.0991 -0.40625,0.125 -0.0326,0.0113 -0.12414,0.02 -0.15625,0.0312 -3.06177,0.59077 -6.09386,1.68239 -8.5625,3.90625 -6.58253,5.92983 -8.04586,12.17306 -8.3125,15.46875 l -0.625,0.53125 c -0.55725,0.32238 -1.12033,0.62815 -1.59375,1 -1.65682,1.30136 -3.14687,2.71743 -4.53125,4.15625 -0.01,0.0103 -0.0213,0.0209 -0.0312,0.0312 l -1.9375,1.59375 a 3.6425211,3.6425211 0 0 0 -1.28125,2.3125 c -7.05862,9.32046 -9.81906,20.71189 -9.84375,32.84375 -1.16315,-0.73493 -3.02424,-0.93619 -4.15625,-0.46875 -3.70532,1.53001 -5.76455,4.75943 -7.625,8.1875 -1.79332,3.30437 -3.20739,6.96483 -4.1875,10.125 -0.63778,0.98473 -1.05158,2.03655 -1.34375,3.25 -0.59956,2.4901 -1.89764,8.15378 -2.90625,13.8125 -0.5043,2.82936 -0.93799,5.62713 -1.1875,8.09375 -0.24951,2.46662 -0.47237,4.32989 0.0937,6.5 0.59343,2.27482 1.4828,4.9978 3.03125,7.46875 1.42091,2.26743 3.74165,4.51273 6.9375,5.0625 -7.99018,25.79578 -6.80179,54.02856 -7.4375,79.4375 -0.0446,1.78172 0.64203,3.29688 1.78125,4.46875 0.0151,0.0155 0.0471,0.0158 0.0625,0.0312 -0.26153,1.17154 -0.4375,2.40272 -0.4375,3.65625 0,0.83573 0.13087,1.63657 0.25,2.4375 -0.8404,0.26064 -1.75068,0.41363 -2.53125,0.75 l 0,-0.0312 c -0.13751,0.0357 -0.26909,0.11085 -0.40625,0.15625 -0.0663,0.0301 -0.1529,0.0317 -0.21875,0.0625 -0.26232,0.0962 -0.54371,0.19258 -0.78125,0.3125 -0.47725,0.24091 -0.71587,0.46358 -1,0.6875 l 0,-0.0312 c 0.13668,-0.0851 -0.0363,-0.004 -0.5,0.3125 l 0.0625,0.0937 a 3.6425211,3.6425211 0 0 0 -0.625,0.53125 c -2.36177,2.50841 -3.01808,5.7028 -3.4375,9.15625 -0.41942,3.45345 -0.39996,7.26233 -0.125,10.9375 0.27496,3.67517 0.80336,7.1892 1.4375,10.03125 0.31707,1.42103 0.66027,2.66069 1.0625,3.75 0.40223,1.08931 0.44861,1.99971 2.09375,3.28125 3.79433,2.95573 8.53924,10.3077 12.625,18.84375 4.08576,8.53605 7.7405,18.26031 10.53125,26.1875 1.06576,3.02729 3.23379,5.95926 5.59375,8.90625 2.35996,2.94699 4.67632,5.50724 6.75,7.0625 1.01658,0.76243 2.10483,1.31429 3.21875,1.78125 -2.56928,1.94712 -4.34375,4.90614 -4.34375,8.34375 0,3.05611 1.3633,5.80141 3.46875,7.75 0.12114,0.39001 0.13773,0.82346 0.3125,1.1875 0.004,0.008 -0.004,0.0236 0,0.0312 -0.32111,0.9231 -0.46376,1.93473 -0.5,2.96875 l -0.0312,0 c -0.65373,6.53738 -2.32957,12.1048 -4.25,20.875 -2.75666,0.88579 -4.83319,2.85417 -6.21875,4.90625 -1.66319,2.46327 -2.63858,5.13527 -3.25,7.3125 -0.94606,3.36882 -0.85478,6.58328 0.28125,9.25 1.13603,2.66672 3.26794,4.61961 5.6875,5.71875 4.83912,2.19828 10.74793,1.48765 15.59375,-1.6875 0.8932,-0.58526 1.54629,-1.35473 2.25,-2.09375 0.59456,2.07977 1.59106,3.95252 3.03125,5.21875 3.94395,3.46758 9.24697,4.24967 13.4375,1.53125 2.95397,-1.91625 5.22354,-5.08935 7.25,-8.4375 1.02193,0.30169 2.03176,0.28316 3.0625,0.3125 2.39537,4.18866 5.25091,8.03808 8.9375,11.09375 a 3.6425211,3.6425211 0 0 0 0.53125,0.375 c 1.08407,0.60979 2.27598,0.873 3.46875,0.96875 1.18055,0.97094 2.4885,1.81221 3.90625,2.4375 -5.81276,9.24358 -11.72393,19.61851 -14.34375,31.5 -2.09375,9.49565 -4.41934,19.7145 -5.53125,27.875 -0.55596,4.08025 -0.81348,7.59556 -0.5,10.59375 0.15674,1.4991 0.43011,2.91809 1.21875,4.3125 0.56004,0.99021 1.65175,1.80673 2.875,2.375 -0.76938,2.64829 -0.80616,5.27261 -0.5625,7.34375 0.27887,2.37035 0.80284,5.19738 1.96875,7.84375 0.58295,1.32319 1.31449,2.61843 2.46875,3.75 1.15426,1.13157 2.85635,2.06126 4.75,2.1875 0.0903,0.006 0.29996,0.0249 0.40625,0.0312 3.11784,5.62524 9.2889,10.78914 19.21875,10.25 7.54791,-0.40981 18.15293,-0.47329 27.4375,-0.65625 4.64229,-0.0915 8.95704,-0.19227 12.46875,-0.40625 3.51171,-0.21398 5.85363,-0.27989 8.1875,-1.1875 1.78495,-0.69414 5.16541,-1.30719 8.375,-3.65625 3.20959,-2.34906 5.69995,-6.70404 5.84375,-13.03125 0.15883,-6.98831 -3.64273,-13.23956 -8.5,-17.8125 -4.85727,-4.57294 -10.8688,-7.74202 -16.78125,-7.90625 -4.33599,-0.12044 -10.6415,-0.52663 -16.84375,-0.625 0.15462,-3.58369 0.23953,-7.61353 0.0937,-13.9375 -0.18369,-7.96879 -0.5685,-17.52015 -1.0625,-26.875 -0.494,-9.35485 -1.09767,-18.50568 -1.75,-25.6875 -0.32617,-3.59091 -0.65316,-6.69762 -1,-9.125 -0.34684,-2.42738 -0.38117,-3.74306 -1.34375,-5.65625 -1.0315,-2.05019 -2.10541,-3.64021 -3.59375,-4.8125 -0.6833,-0.5382 -1.5323,-0.9063 -2.40625,-1.15625 -0.45887,-0.78469 -0.95986,-1.52196 -1.53125,-2.21875 0.74921,-1.47958 1.59318,-3.05341 2.125,-4.25 1.60724,-3.6163 0.93281,-7.32071 0.0625,-12.0625 -0.87031,-4.74179 -2.36329,-10.28659 -4.125,-16.03125 -2.9031,-9.46656 -6.33014,-18.7885 -9,-26.03125 5.89443,-0.88589 10.7721,-4.54796 13.71875,-9.53125 3.85426,1.642 7.75762,2.91677 11.65625,3.1875 3.55759,0.24704 7.8836,-0.52235 12.03125,-1.71875 2.10686,1.4221 4.16126,2.67493 6.25,3.4375 2.08013,0.75942 4.36247,1.11234 6.5625,0.625 2.1149,0.79982 4.34938,1.32122 6.6875,1.1875 3.1002,-0.1773 5.80726,-1.50346 8.3125,-3.4375 -0.13807,1.21236 -0.28438,2.34343 -0.46875,3.90625 -0.55149,4.67467 -1.26678,10.6853 -1.9375,16.75 -0.67072,6.0647 -1.30143,12.15935 -1.65625,17.09375 -0.17741,2.4672 -0.26777,4.66017 -0.28125,6.4375 -0.0135,1.77733 -0.19609,2.80001 0.5,4.65625 0.84891,2.26376 1.65146,4.96706 3.1875,7.625 1.25089,2.16452 3.16737,4.25308 5.78125,5.71875 1.36761,5.3111 5.11771,9.69056 10.09375,11.6875 -4.67013,6.57227 -8.9808,12.04732 -10.1875,13.65625 -2.52092,3.36123 -5.72311,8.65406 -6.03125,15.125 -0.0901,1.89198 -1.29504,10.08428 -2.46875,18 -1.17371,7.91572 -2.375,15.55631 -2.375,19.5625 0,2.32097 0.55262,4.29669 1.46875,6.03125 -0.75518,0.5725 -1.47198,1.25223 -1.96875,2.25 -0.55197,1.10863 -0.73509,2.58342 -0.375,3.84375 0.77456,2.71097 1.44736,4.91236 2.5625,6.9375 1.11514,2.02514 2.78081,3.77525 4.875,5.03125 a 3.6425211,3.6425211 0 0 0 1.3125,0.46875 c 4.89297,0.76114 14.64501,1.2968 24.375,1.375 4.86499,0.0391 9.65082,-0.0587 13.75,-0.3125 4.09918,-0.25379 7.31396,-0.52742 9.90625,-1.46875 A 3.6425211,3.6425211 0 0 0 370.5,624.5625 c 0.27022,-0.1826 0.52092,-0.38197 0.78125,-0.5625 1.35482,0 2.66014,-0.20573 3.90625,-0.5625 0.31829,0.43792 0.53341,0.97914 0.90625,1.375 1.15974,1.23133 2.85715,2.46216 5.09375,2.40625 9.62459,-0.24062 37.86238,1.10283 44.625,1.96875 5.57566,0.71393 10.04058,-0.86518 12.8125,-3.625 2.77192,-2.75982 3.94305,-6.12337 4.96875,-8.78125 2.84046,-7.36038 1.29084,-16.67375 -4.78125,-22.1875 -7.42002,-6.73775 -16.6697,-8.77253 -25.90625,-8.9375 -9.23655,-0.16497 -18.67746,1.41331 -27.34375,2.1875 -2.30103,0.20556 -5.87796,0.83254 -9.28125,2.03125 -1.70165,0.59935 -3.35787,1.29807 -4.84375,2.40625 -0.81467,0.60758 -1.64765,1.45821 -2.25,2.5 -0.23437,0.0352 -0.45642,0.10975 -0.6875,0.15625 -1.37,-0.96437 -2.8397,-1.31994 -4.3125,-1.5625 2.18781,-2.25878 4.13777,-5.05287 4.40625,-8.6875 1.47232,-19.9322 -0.71066,-54.21287 -4.0625,-80.5625 -0.53099,-4.17422 -3.7403,-7.11421 -7.59375,-7.40625 -0.43112,-0.0327 -0.89332,0.13013 -1.34375,0.1875 3.17024,-11.05655 4.85306,-23.93773 5.59375,-35.65625 0.5108,-8.0814 0.56683,-15.56173 0.3125,-21.375 -0.12716,-2.90664 -0.3412,-5.39766 -0.625,-7.40625 -0.2838,-2.00859 -0.27633,-3.2474 -1.46875,-5.09375 -1.35067,-2.09137 -2.418,-4.15704 -3.90625,-5.96875 -0.74412,-0.90585 -1.62867,-1.84615 -3.125,-2.4375 -1.49633,-0.59135 -3.59052,-0.39544 -4.96875,0.40625 -0.86369,0.5024 -1.62659,1.13836 -2.4375,1.71875 -0.4335,-0.23292 -0.82919,-0.51884 -1.28125,-0.71875 1.44211,-5.32665 2.50395,-11.04332 2.96875,-16.1875 0.283,-3.13216 0.3891,-6.00129 0.28125,-8.375 -0.0539,-1.18686 -0.14457,-2.25234 -0.34375,-3.25 -0.19918,-0.99766 -0.35823,-1.93216 -1.3125,-3.125 -1.26567,-1.58209 -1.96605,-1.37914 -2.5625,-1.53125 -0.59645,-0.15211 -1.14857,-0.24051 -1.78125,-0.3125 -0.22948,-0.0261 -0.59597,-0.0404 -0.84375,-0.0625 l 0.21875,-3.09375 c 3.46075,-1.21785 6.18956,-3.38115 8.03125,-5.90625 2.32113,-3.18245 3.43823,-6.78004 3.84375,-10 1.69302,-13.44309 2.5548,-29.59297 3.03125,-43.46875 1.54123,-2.86988 2.96867,-5.8768 4.15625,-9.03125 0.32877,0.9034 0.80823,2.09168 1.09375,2.90625 0.64149,1.83015 1.15623,3.41642 1.5,4.59375 0.34377,1.17733 0.4375,2.27274 0.4375,1.6875 0,1.80857 0.76944,3.87765 2.25,5.09375 -0.2652,1.18582 -0.46875,2.39294 -0.46875,3.65625 0,4.75653 2.00799,9.04795 5.1875,12.09375 a 3.6425211,3.6425211 0 0 0 -0.4375,1.0625 c -0.82325,3.70464 -0.99489,7.91292 -0.59375,11.8125 0.40114,3.89958 1.06321,7.46364 3.65625,10.21875 2.09143,2.22215 14.8028,15.05583 25.125,22.5625 3.83209,2.78683 8.61893,7.93114 12.96875,12.53125 2.17491,2.30005 4.26504,4.45339 6.25,6.21875 1.98496,1.76536 3.66212,3.27582 6.3125,3.84375 0.4295,0.092 0.99384,0.20338 1.5,0.3125 0.28947,0.45261 0.58606,0.88079 0.9375,1.28125 -0.60319,3.89688 -0.0734,8.2739 0.78125,12.5625 0.51237,2.5709 1.17766,4.9986 1.96875,7.03125 0.39555,1.01632 0.82687,1.94897 1.375,2.8125 0.54813,0.86353 1.13637,1.79435 2.6875,2.46875 0.6785,0.295 1.43924,0.48631 2.15625,0.75 0.42293,4.34521 1.91609,8.33255 4.125,11.46875 2.65699,3.77237 6.53119,6.7242 11.1875,6.25 6.6431,-0.67654 11.74609,-1.4474 18.5,-2.28125 2.88223,-0.35585 4.89399,-2.52945 5.96875,-4.625 1.07476,-2.09555 1.57894,-4.41633 1.8125,-6.8125 0.46712,-4.79234 0.16307,-9.66371 -2.4375,-13.4375 a 3.6425211,3.6425211 0 0 0 -0.4375,-0.53125 c -6.22595,-6.21008 -14.65208,-7.74712 -22.40625,-6.0625 -0.68165,-1.36464 -1.48406,-2.63677 -2.25,-3.84375 -1.34654,-2.12192 -2.57325,-4.13435 -3.1875,-5.96875 1.68179,1.11047 3.60448,1.90625 5.75,1.90625 3.13226,0 5.93185,-1.43927 7.875,-3.625 1.95932,0.55688 4.02673,0.95402 6.34375,1.125 1.8136,0.13383 3.63529,0.1668 5.375,-0.0937 0.53848,-0.0806 1.08054,-0.26745 1.625,-0.40625 0.43138,0.84787 0.5828,1.30139 1.125,2.25 1.42478,2.49275 2.8924,5.05296 5.4375,6.875 2.76529,1.97967 6.06276,2.48299 9.25,2.375 3.18724,-0.10799 6.31881,-0.84656 8.9375,-2.5 3.08159,-1.94571 4.14207,-5.54498 4.09375,-8.40625 -0.0435,-2.57712 -0.71434,-4.9221 -1.375,-6.96875 2.16937,-5.0752 2.29658,-11.00912 -0.0937,-16.03125 -2.39098,-5.0235 -7.35031,-7.89163 -12.34375,-9.625 -2.73967,-0.95102 -5.52297,-1.53661 -8.15625,-1.78125 0.72969,-2.99722 0.78474,-6.31614 -0.59375,-9.75 -0.57028,-1.42057 -1.35053,-2.52061 -2.53125,-4.0625 -1.18072,-1.54189 -2.68695,-3.25394 -4.46875,-4.875 -1.7818,-1.62106 -3.82588,-3.15723 -6.1875,-4.15625 -2.36162,-0.99902 -5.23897,-1.45521 -8.03125,-0.40625 -2.01971,0.75873 -4.14083,1.84482 -6.125,3.25 -2.62772,0.23308 -5.48359,0.88464 -7.875,3.03125 -1.71635,1.54065 -2.1218,2.82286 -3.125,4.78125 -1.0032,1.95839 -2.1073,4.32009 -3.15625,6.71875 -1.29242,2.95543 -1.95677,4.85941 -2.84375,7.15625 -2.23634,-1.85586 -4.35544,-3.62222 -6.75,-5.65625 -3.83609,-3.25851 -7.35578,-6.71341 -8.625,-8.8125 -4.53064,-7.49298 -9.97452,-18.01789 -14.0625,-27.4375 -1.19931,-2.76348 -3.15858,-4.85826 -5.4375,-5.9375 -0.65622,-0.31077 -1.32995,-0.37357 -2,-0.53125 3.4e-4,-0.0438 0.0312,-0.0812 0.0312,-0.125 0,-5.68452 -2.91461,-10.61182 -7.25,-13.625 0.11838,-1.31346 0.0733,-2.61228 -0.0937,-3.84375 -3.22011,-23.74128 -2.74895,-46.68371 -13.03125,-69.90625 0.15614,-0.0606 0.31277,-0.0931 0.46875,-0.15625 1.35277,-0.54757 2.74926,-1.46944 3.59375,-2.9375 0.84449,-1.46806 0.93007,-3.04854 0.8125,-4.34375 -0.23513,-2.59042 -1.08712,-4.9939 -1.875,-8.65625 -1.75237,-8.14568 -5.46517,-18.21729 -9.90625,-24.21875 -2.40498,-3.24997 -4.42264,-5.47576 -6.59375,-6.9375 -1.08556,-0.73087 -2.25024,-1.3165 -3.625,-1.5 -1.37476,-0.1835 -2.96604,0.1649 -4.125,0.9375 -1.97056,1.31363 -2.69968,3.18353 -3.21875,5.125 -1.29637,-6.10368 -2.62246,-11.91323 -4.0625,-16.84375 -2.08695,-7.14549 -4.11042,-12.65233 -7.03125,-16.28125 -4.08761,-5.07854 -7.41724,-8.33957 -12.5625,-10.375 -3.06555,-1.21271 -6.41359,-1.2376 -9.3125,-1.21875 -2.01924,0.0131 -2.77269,0.11834 -3.65625,0.1875 -5.16996,-4.1611 -9.382,-9.04466 -21.40625,-13.625 a 3.6425211,3.6425211 0 0 0 -1.40625,-0.21875 z M 204.15625,304.5 c 3.19567,5.78804 6.10426,10.72725 7.78125,13.375 5.2918,8.35505 12.04099,21.33962 17.3125,33.0625 2.63575,5.86144 4.90034,11.42173 6.4375,15.90625 1.53716,4.48452 2.1688,8.26822 2.125,8.75 -0.18503,2.03538 0.53742,4.01032 1.625,5.46875 1.08758,1.45843 2.48179,2.56279 4.03125,3.5 2.387,1.4438 5.28833,2.47137 8.3125,3.34375 l 0.0937,2.53125 c -1.47869,0.0746 -3.08635,0.14642 -4.03125,0.1875 a 3.6425211,3.6425211 0 0 0 -1.40625,0.34375 c -2.83444,-0.0383 -5.68798,0.43361 -8.21875,1.9375 -3.30588,1.96449 -6.0218,5.55495 -6.46875,10.09375 -0.3923,3.98373 0.20226,10.30355 1.46875,16.75 0.63324,3.22322 1.44447,6.40495 2.5,9.1875 0.59585,1.57076 1.2904,2.97938 2.125,4.28125 -2.10821,2.15286 -3.69001,4.78018 -4.65625,7.71875 -1.62781,-1.16501 -3.40458,-2.98474 -6.65625,-4.3125 a 3.6425211,3.6425211 0 0 0 -0.0625,-0.0312 c -1.11034,-0.42706 -2.62856,-0.66187 -4.09375,-0.0312 -1.46519,0.63062 -2.28037,1.93075 -2.625,2.84375 -0.68925,1.82599 -0.47579,3.05688 -0.5,3.71875 a 3.6425211,3.6425211 0 0 0 -0.0312,0.125 c -0.0188,6.00035 -0.20518,12.52918 -0.34375,19.0625 -0.66626,-1.67748 -1.59918,-3.23886 -2.8125,-4.53125 0.894,-2.61208 1.57197,-5.03506 1.8125,-6.71875 0.20288,-1.42014 -0.0976,-2.19217 -0.375,-3 -0.27738,-0.80783 -0.62944,-1.59551 -1.0625,-2.5 -0.86612,-1.80898 -2.06464,-4.04416 -3.5,-6.875 -2.87072,-5.66168 -6.71978,-13.66463 -10.625,-24.5625 -3.02263,-8.43494 -4.54662,-17.85239 -5.53125,-25.375 -0.49232,-3.76131 -0.8713,-7.02222 -1.25,-9.59375 -0.18935,-1.28576 -0.36445,-2.4059 -0.625,-3.40625 -0.26055,-1.00035 -0.14512,-1.92839 -1.875,-3.34375 -0.45057,-0.36865 -0.89843,-0.5392 -1.34375,-0.78125 0.17712,-0.97484 0.3125,-1.974 0.3125,-3 0,-0.97392 -0.24721,-1.89924 -0.40625,-2.84375 1.21957,-1.86963 1.63376,-3.94552 2.28125,-6.5 0.82994,-3.27429 1.54942,-7.19182 2.1875,-11.1875 1.27616,-7.99135 2.28159,-16.455 2.875,-19.71875 0.50065,-2.75358 3.03053,-13.99822 5.21875,-23.875 z m 3.0625,186.59375 c 0.0928,0.49213 0.14946,0.98109 0.3125,1.46875 l -0.0312,0 c 1.86305,7.26051 2.16372,13.72108 3.5625,24.03125 0.0501,0.36951 0.26828,0.58297 0.375,0.90625 -2.2629,1.90034 -3.70136,3.75789 -4.90625,5.5625 -0.24336,-1.25405 -0.52518,-2.41192 -0.90625,-3.46875 2.27098,-5.7029 3.23865,-14.43331 2.09375,-23.25 -0.20871,-1.60721 -0.58697,-3.01145 -1.0625,-4.28125 0.20719,-0.31409 0.39885,-0.62703 0.5625,-0.96875 z"
       transform="matrix(0.9987763,0.04945597,-0.04945597,0.9987763,20.317408,-15.597972)" />
    <path
       sodipodi:type="arc"
       style="fill:#999999;fill-opacity:1;stroke:none"
       id="path3711"
       sodipodi:cx="196.96428"
       sodipodi:cy="484.32648"
       sodipodi:rx="6.9642859"
       sodipodi:ry="6.9642859"
       d="m 203.92857,484.32648 c 0,3.84627 -3.11802,6.96428 -6.96429,6.96428 -3.84627,0 -6.96429,-3.11801 -6.96429,-6.96428 0,-3.84627 3.11802,-6.96429 6.96429,-6.96429 3.84627,0 6.96429,3.11802 6.96429,6.96429 z"
       transform="matrix(0.9987763,0.04945597,-0.04945597,0.9987763,277.55223,-80.296369)" />
    <path
       d="m 206.78571,252.18361 c 0,8.97463 -7.11547,16.25 -15.89286,16.25 -8.77738,0 -15.89285,-7.27537 -15.89285,-16.25 0,-8.97463 7.11547,-16.25 15.89285,-16.25 8.77739,0 15.89286,7.27537 15.89286,16.25 z"
       sodipodi:ry="16.25"
       sodipodi:rx="15.892858"
       sodipodi:cy="252.18361"
       sodipodi:cx="190.89285"
       id="path3930"
       style="fill:#1a1a1a;fill-opacity:1;stroke:none"
       sodipodi:type="arc"
       transform="matrix(0.28276411,0.01400151,-0.01400151,0.28276411,407.61509,338.81495)" />
    <path
       style="fill:#999999;fill-opacity:1;stroke:none"
       d="m 455.36621,410.28319 c -1.07619,2.12551 -0.81317,4.64439 1.22612,5.8762 2.95511,1.785 13.16406,3.71204 15.61322,1.27882 3.80042,-3.77571 3.88027,-8.42988 0.4746,-9.58472 -6.95634,-2.35884 -14.98138,-2.17724 -17.31394,2.4297 z"
       id="path3717"
       sodipodi:nodetypes="cssss" />
    <path
       style="fill:#ffffff;fill-opacity:1;stroke:none"
       d="m 464.77379,406.36816 c -3.06537,-0.0849 -5.84422,0.4986 -7.69728,1.9029 3.86171,-1.09251 7.4163,-1.02026 12.28168,0.29526 0,0 -2.24517,3.44553 -1.18508,5.01511 1.0601,1.56958 3.18226,0.77826 3.18226,0.77826 l 1.64431,2.17773 c 2.97519,-3.58444 2.82076,-7.61742 -0.32098,-8.68275 -2.60863,-0.88456 -5.35226,-1.41584 -7.90491,-1.48651 z"
       id="path4006"
       sodipodi:nodetypes="cccsccsc" />
    <path
       transform="matrix(0.28276411,0.01400151,-0.01400151,0.28276411,423.77024,339.36205)"
       sodipodi:type="arc"
       style="fill:#1a1a1a;fill-opacity:1;stroke:none"
       id="path3932"
       sodipodi:cx="190.89285"
       sodipodi:cy="252.18361"
       sodipodi:rx="15.892858"
       sodipodi:ry="16.25"
       d="m 206.78571,252.18361 c 0,8.97463 -7.11547,16.25 -15.89286,16.25 -8.77738,0 -15.89285,-7.27537 -15.89285,-16.25 0,-8.97463 7.11547,-16.25 15.89285,-16.25 8.77739,0 15.89286,7.27537 15.89286,16.25 z" />
    <path
       style="fill:#ffffff;fill-opacity:1;stroke:none"
       d="m 472.53272,415.93732 c 0,0 3.71418,9.90012 6.96737,12.48168 3.42952,2.7215 10.32428,2.59866 14.13731,0.44719 3.77051,-2.12748 2.76018,-7.63499 1.59593,-11.80481 -1.8223,-6.52668 -14.38438,-15.88313 -17.71087,-9.9795 l -4.98974,8.85544 z"
       id="path3719"
       sodipodi:nodetypes="cssssc" />
    <path
       style="fill:#999999;fill-opacity:1;stroke:none"
       d="m 478.22139,410.28802 -2.67464,0.3056 -3.01864,5.35726 c 0,0 3.73316,9.87294 6.98635,12.45451 1.01209,0.80315 2.31745,1.35958 3.76486,1.68826 0.46722,-2.20476 1.55613,-4.57752 2.91234,-5.73799 1.89896,-1.62487 7.23992,-2.14457 7.23992,-2.14457 l -1.1217,-5.7813 -14.08849,-6.14177 z"
       id="path4014" />
    <path
       transform="matrix(0.68467804,0.0339029,-0.0339029,0.68467804,238.86075,432.0949)"
       sodipodi:type="arc"
       style="fill:#1a1a1a;fill-opacity:1;stroke:none"
       id="path3699"
       sodipodi:cx="190.89285"
       sodipodi:cy="252.18361"
       sodipodi:rx="15.892858"
       sodipodi:ry="16.25"
       d="m 206.78571,252.18361 c 0,8.97463 -7.11547,16.25 -15.89286,16.25 -8.77738,0 -15.89285,-7.27537 -15.89285,-16.25 0,-8.97463 7.11547,-16.25 15.89285,-16.25 8.77739,0 15.89286,7.27537 15.89286,16.25 z" />
    <path
       style="fill:#ffffff;fill-opacity:1;stroke:none"
       d="m 306.0966,611.23825 c 1.2511,5.37175 2.14654,8.00459 5.31418,10.12419 8.66252,1.79025 39.23348,4.17042 46.17042,2.03336 2.8234,-1.71082 4.0103,-2.31319 3.88091,-6.88756 -0.13439,-4.75107 -1.31315,-9.54787 -2.84428,-14.04746 -1.99255,-5.85559 -8.80216,-3.95853 -12.68884,-4.16817 -12.16043,-0.65591 -21.1634,7.99798 -33.57905,9.20972 -4.33048,0.42264 -6.65795,1.99869 -6.25334,3.73592 z"
       id="path3697"
       sodipodi:nodetypes="cccsssss" />
    <path
       d="m 206.78571,252.18361 c 0,8.97463 -7.11547,16.25 -15.89286,16.25 -8.77738,0 -15.89285,-7.27537 -15.89285,-16.25 0,-8.97463 7.11547,-16.25 15.89285,-16.25 8.77739,0 15.89286,7.27537 15.89286,16.25 z"
       sodipodi:ry="16.25"
       sodipodi:rx="15.892858"
       sodipodi:cy="252.18361"
       sodipodi:cx="190.89285"
       id="path3691"
       style="fill:#1a1a1a;fill-opacity:1;stroke:none"
       sodipodi:type="arc"
       transform="matrix(0.83213505,0.04120447,-0.04120447,0.83213505,186.84854,301.36366)" />
    <path
       style="fill:#ffffff;fill-opacity:1;stroke:none"
       d="m 348.25353,423.69005 c -13.82447,7.15094 -26.98637,29.25828 -27.13625,32.28503 -0.14987,3.02675 -8.52619,47.31184 -7.11297,51.73439 1.97032,6.16591 3.14647,13.05103 13.47538,13.81533 10.3289,0.76429 12.04929,-7.4586 15.3287,-13.40044 12.59993,-22.82939 14.81977,-72.68929 12.17034,-77.27442 -2.64943,-4.58512 -4.09945,-8.5181 -6.7252,-7.15989 z"
       id="path3689"
       sodipodi:nodetypes="csssazs" />
    <path
       style="fill:#999999;fill-opacity:1;stroke:none"
       d="m 228.65265,617.8109 c -7.26225,3.68596 -7.75177,8.46582 -7.45964,12.77869 0.29214,4.31288 1.50576,10.44132 5.27671,10.88088 3.77094,0.43958 23.96176,1.18652 23.96176,1.18652 l -4.03677,-25.12473 -17.74206,0.27864 z"
       id="path3687"
       sodipodi:nodetypes="cssccc" />
    <path
       transform="matrix(0.83213505,0.04120447,-0.04120447,0.83213505,97.526408,314.66039)"
       sodipodi:type="arc"
       style="fill:#1a1a1a;fill-opacity:1;stroke:none"
       id="path3679"
       sodipodi:cx="190.89285"
       sodipodi:cy="252.18361"
       sodipodi:rx="15.892858"
       sodipodi:ry="16.25"
       d="m 206.78571,252.18361 c 0,8.97463 -7.11547,16.25 -15.89286,16.25 -8.77738,0 -15.89285,-7.27537 -15.89285,-16.25 0,-8.97463 7.11547,-16.25 15.89285,-16.25 8.77739,0 15.89286,7.27537 15.89286,16.25 z" />
    <path
       style="fill:#666666;fill-opacity:1;stroke:none"
       d="m 240.86394,412.0513 c -0.53705,10.84585 -1.61443,14.03342 0.18461,16.69708 7.06728,10.46385 23.10309,24.23598 36.39563,25.82271 6.28342,0.75005 20.08847,-2.29231 20.54053,-6.31549 0.45206,-4.02318 -5.04917,-35.90153 -5.04917,-35.90153 l -52.0716,-0.30277 z"
       id="path3897"
       sodipodi:nodetypes="cssscc" />
    <path
       d="m 206.78571,252.18361 c 0,8.97463 -7.11547,16.25 -15.89286,16.25 -8.77738,0 -15.89285,-7.27537 -15.89285,-16.25 0,-8.97463 7.11547,-16.25 15.89285,-16.25 8.77739,0 15.89286,7.27537 15.89286,16.25 z"
       sodipodi:ry="16.25"
       sodipodi:rx="15.892858"
       sodipodi:cy="252.18361"
       sodipodi:cx="190.89285"
       id="path3901"
       style="fill:#1a1a1a;fill-opacity:1;stroke:none"
       sodipodi:type="arc"
       transform="matrix(0.9987763,0.04945597,-0.04945597,0.9987763,71.313484,182.16609)" />
    <path
       transform="matrix(0.9987763,0.04945597,-0.04945597,0.9987763,92.836025,173.57714)"
       sodipodi:type="arc"
       style="fill:#1a1a1a;fill-opacity:1;stroke:none"
       id="path3909"
       sodipodi:cx="190.89285"
       sodipodi:cy="252.18361"
       sodipodi:rx="15.892858"
       sodipodi:ry="16.25"
       d="m 206.78571,252.18361 c 0,8.97463 -7.11547,16.25 -15.89286,16.25 -8.77738,0 -15.89285,-7.27537 -15.89285,-16.25 0,-8.97463 7.11547,-16.25 15.89285,-16.25 8.77739,0 15.89286,7.27537 15.89286,16.25 z" />
    <path
       style="fill:#1a1a1a;fill-opacity:1;stroke:none"
       d="m 256.34525,375.14359 -0.33995,27.29071 79.37479,0.3905 3.41666,-28.14974 -82.4515,0.46853 z"
       id="path3843" />
    <path
       style="fill:#999999;fill-opacity:1;stroke:none"
       d="m 252.45672,392.39754 c -5.20779,-3.95668 -15.76717,-1.86215 -17.00932,6.49032 -0.91899,6.1795 0.74391,25.82729 5.58866,30.11275 4.84475,4.28545 -3.79076,-15.35856 9.32516,-14.70911 8.13414,0.40279 39.90863,49.1416 51.95372,43.53388 4.28363,-1.99429 -43.28881,-68.77525 -49.85822,-65.42784 z"
       id="path3895"
       sodipodi:nodetypes="cssssc" />
    <path
       style="fill:#ffffff;fill-opacity:1;stroke:none"
       d="m 244.40217,452.93496 c 0.80908,4.08562 18.53946,54.52168 14.05417,63.4021 -4.48528,8.88042 -17.08698,28.48423 -24.9335,23.54444 -7.84652,-4.93978 -19.18893,-41.40578 -16.84636,-47.86382 2.34255,-6.45804 7.01105,-55.03915 7.01105,-55.03915 8.72082,4.07522 14.50084,8.51642 20.71464,15.95643 z"
       id="path3911"
       sodipodi:nodetypes="cssscc" />
    <path
       style="fill:#999999;fill-opacity:1;stroke:none"
       d="m 223.42391,435.00272 c -2.27443,-1.00658 -2.29076,1.52779 -2.42937,3.13485 -2.97825,35.45327 -9.66482,82.92919 12.28718,102.79927 5.26312,3.31341 13.25211,-5.28289 18.90963,-13.41157 -10.18027,-28.41731 -15.6302,-58.2504 -22.11444,-87.59821 -2.37941,-1.57083 -3.97087,-3.67099 -6.653,-4.92434 z"
       id="path3674"
       sodipodi:nodetypes="cccccc" />
    <path
       sodipodi:nodetypes="cssssc"
       id="path3885"
       d="m 225.73619,504.22066 c -3.49467,1.97244 -7.17276,8.03881 -7.98096,9.52768 -7.23223,13.32326 5.12212,17.0757 9.49934,13.96903 4.59328,-3.26002 10.86784,-15.77926 9.88028,-18.9989 -0.91447,-2.98132 -4.72388,-5.9981 -5.24634,-5.98107 -4.08884,0.13322 -4.57846,0.84421 -6.15232,1.48326 z"
       style="fill:#ffffff;fill-opacity:1;stroke:none" />
    <path
       style="fill:#999999;fill-opacity:1;stroke:none"
       d="m 225.63853,504.28631 c -3.46553,2.02837 -7.08328,7.9903 -7.88402,9.46542 -5.75163,10.5957 0.88821,15.12049 6.04811,14.97369 0.29875,-4.52087 2.21538,-10.22509 6.05312,-16.7211 0,0 -3.17501,-2.68854 -0.73635,-5.98123 l -3.48086,-1.73678 z"
       id="path3977" />
    <path
       style="fill:#ffffff;fill-opacity:1;stroke:none"
       d="m 210.54385,513.0151 c -3.65987,1.64581 -7.8754,7.35181 -8.8159,8.76084 -8.4161,12.60888 3.54496,17.47138 8.18703,14.77647 4.87121,-2.82794 12.26037,-14.72338 11.57028,-18.01962 -0.63902,-3.05224 -4.15771,-6.40357 -4.67954,-6.43421 -4.08398,-0.23987 -4.63633,0.42352 -6.26187,0.91652 z"
       id="path3883"
       sodipodi:nodetypes="cssssc" />
    <path
       d="m 206.78571,252.18361 c 0,8.97463 -7.11547,16.25 -15.89286,16.25 -8.77738,0 -15.89285,-7.27537 -15.89285,-16.25 0,-8.97463 7.11547,-16.25 15.89285,-16.25 8.77739,0 15.89286,7.27537 15.89286,16.25 z"
       sodipodi:ry="16.25"
       sodipodi:rx="15.892858"
       sodipodi:cy="252.18361"
       sodipodi:cx="190.89285"
       id="path3881"
       style="fill:#1a1a1a;fill-opacity:1;stroke:none"
       sodipodi:type="arc"
       transform="matrix(0.28276411,0.01400151,-0.01400151,0.28276411,177.91637,430.13401)" />
    <path
       style="fill:#ffffff;fill-opacity:1;stroke:none"
       d="m 184.41627,511.30765 c -4.48532,0.31428 -7.30544,5.89875 -8.56323,9.65331 -3.64569,10.88257 7.62215,14.69924 15.57107,10.03573 3.90201,-2.28925 6.14214,-7.63622 5.84836,-11.25447 0.302,-2.48811 -1.88585,-8.85411 -1.88585,-8.85411 l -10.97035,0.41954 z"
       id="path3869"
       sodipodi:nodetypes="cssccc" />
    <path
       style="fill:#999999;fill-opacity:1;stroke:none"
       d="m 184.83507,511.30818 -0.40729,0.0111 c -4.48532,0.31428 -7.32371,5.89534 -8.5815,9.6499 -3.64569,10.88258 7.63645,14.69658 15.58538,10.03307 0.66456,-0.38989 1.25974,-0.8992 1.82359,-1.44283 0.82949,-1.91647 1.43406,-3.97697 1.65584,-6.26953 0,0 -6.70942,0.20016 -6.17496,-2.93398 0.38081,-2.23306 0.78017,-2.24057 0.97748,-2.04791 -0.14739,-0.21811 -2.66226,-3.88976 -4.87853,-6.99984 z"
       id="path3957" />
    <path
       d="m 206.78571,252.18361 c 0,8.97463 -7.11547,16.25 -15.89286,16.25 -8.77738,0 -15.89285,-7.27537 -15.89285,-16.25 0,-8.97463 7.11547,-16.25 15.89285,-16.25 8.77739,0 15.89286,7.27537 15.89286,16.25 z"
       sodipodi:ry="16.25"
       sodipodi:rx="15.892858"
       sodipodi:cy="252.18361"
       sodipodi:cx="190.89285"
       id="path3871"
       style="fill:#1a1a1a;fill-opacity:1;stroke:none"
       sodipodi:type="arc"
       transform="matrix(0.28276411,0.01400151,-0.01400151,0.28276411,138.34659,442.12028)" />
    <path
       style="fill:#ffffff;fill-opacity:1;stroke:none"
       d="m 191.33597,487.98117 c -1.06667,7.0988 -3.1328,12.71778 -5.54508,21.71663 -0.79549,2.96749 7.04965,8.67324 9.98065,4.2488 2.37847,-3.59037 4.58285,-13.82834 3.83222,-23.23175 -0.81273,-10.18118 -7.97123,-8.72284 -8.26779,-2.73368 z"
       id="path3867"
       sodipodi:nodetypes="csssc" />
    <path
       transform="matrix(0.6504455,0.03220783,-0.03220783,0.6504455,86.84712,291.46286)"
       sodipodi:type="arc"
       style="fill:#1a1a1a;fill-opacity:1;stroke:none"
       id="path3859"
       sodipodi:cx="190.89285"
       sodipodi:cy="252.18361"
       sodipodi:rx="15.892858"
       sodipodi:ry="16.25"
       d="m 206.78571,252.18361 c 0,8.97463 -7.11547,16.25 -15.89286,16.25 -8.77738,0 -15.89285,-7.27537 -15.89285,-16.25 0,-8.97463 7.11547,-16.25 15.89285,-16.25 8.77739,0 15.89286,7.27537 15.89286,16.25 z" />
    <path
       transform="matrix(0.80121615,0.03967347,-0.03967347,0.80121615,240.9998,127.15897)"
       sodipodi:type="arc"
       style="fill:#1a1a1a;fill-opacity:1;stroke:none"
       id="path3851"
       sodipodi:cx="190.89285"
       sodipodi:cy="252.18361"
       sodipodi:rx="15.892858"
       sodipodi:ry="16.25"
       d="m 206.78571,252.18361 c 0,8.97463 -7.11547,16.25 -15.89286,16.25 -8.77738,0 -15.89285,-7.27537 -15.89285,-16.25 0,-8.97463 7.11547,-16.25 15.89285,-16.25 8.77739,0 15.89286,7.27537 15.89286,16.25 z" />
    <path
       style="fill:#808080;fill-opacity:1;stroke:none"
       d="m 363.93539,215.82708 c 0.60055,-12.128 3.62008,-18.30422 12.41062,-5.10676 3.52444,5.29135 6.87923,15.57059 8.14392,23.28841 1.2647,7.71782 2.77213,10.46093 -0.93957,11.75363 -6.79197,2.36549 -13.44501,1.92542 -20.09917,1.50782 l 0.4842,-31.4431 z"
       id="path3845"
       sodipodi:nodetypes="cszscc" />
    <path
       d="m 206.78571,252.18361 c 0,8.97463 -7.11547,16.25 -15.89286,16.25 -8.77738,0 -15.89285,-7.27537 -15.89285,-16.25 0,-8.97463 7.11547,-16.25 15.89285,-16.25 8.77739,0 15.89286,7.27537 15.89286,16.25 z"
       sodipodi:ry="16.25"
       sodipodi:rx="15.892858"
       sodipodi:cy="252.18361"
       sodipodi:cx="190.89285"
       id="path3837"
       style="fill:#1a1a1a;fill-opacity:1;stroke:none"
       sodipodi:type="arc"
       transform="matrix(0.80121615,0.03967347,-0.03967347,0.80121615,34.537362,151.62096)" />
    <path
       d="m 206.78571,252.18361 c 0,8.97463 -7.11547,16.25 -15.89286,16.25 -8.77738,0 -15.89285,-7.27537 -15.89285,-16.25 0,-8.97463 7.11547,-16.25 15.89285,-16.25 8.77739,0 15.89286,7.27537 15.89286,16.25 z"
       sodipodi:ry="16.25"
       sodipodi:rx="15.892858"
       sodipodi:cy="252.18361"
       sodipodi:cx="190.89285"
       id="path3806"
       style="fill:#1a1a1a;fill-opacity:1;stroke:none"
       sodipodi:type="arc"
       transform="matrix(0.92022087,0.04556618,-0.04510819,0.91097179,196.84476,-9.332844)" />
    <path
       style="fill:#ffffff;fill-opacity:1;stroke:none"
       d="m 213.35945,223.74704 -0.0431,58.64105 51.48457,101.24154 c 24.58755,1.69505 40.62493,2.28904 73.01528,-1.39066 7.97658,-0.90618 11.48563,-7.55247 12.44247,-12.97195 5.12868,-29.04831 7.18795,-72.94807 7.18795,-72.94807 l -97.20667,-87.77199 -46.88054,15.20008 z"
       id="path3794"
       sodipodi:nodetypes="cccssccc" />
    <path
       style="fill:#666666;fill-opacity:1;stroke:none"
       d="m 244.95288,339.68653 c 7.82643,15.5584 21.72503,20.32601 34.84236,21.44738 13.11733,1.12137 49.43691,2.44795 55.31068,-3.83524 5.87377,-6.28318 16.79212,-12.31658 13.37604,-35.24201 0,0 -18.21903,-122.26897 -21.77521,-121.93936 -3.55618,0.3296 -118.28814,9.31362 -118.28814,9.31362 l 7.63087,80.78338 28.9034,49.47223 z"
       id="path3876"
       sodipodi:nodetypes="czzcsccc" />
    <rect
       style="fill:#1a1a1a;fill-opacity:1;stroke:none"
       id="rect3798"
       width="112.32143"
       height="16.964287"
       x="180.10391"
       y="254.74634"
       transform="matrix(0.99583542,-0.09116912,0.09116912,0.99583542,0,0)" />
    <path
       style="fill:#ffffff;fill-opacity:1;stroke:none"
       d="m 374.3432,236.72452 c -8.73757,3.14315 -8.96718,7.78032 -8.96718,7.78032 0,0 10.75332,71.69098 11.21946,76.72018 0.46613,5.02921 -1.19032,9.59574 5.64009,8.86121 6.83039,-0.73452 8.39932,-5.34106 8.00304,-9.97355 -2.49102,-29.12035 0.42694,-55.6008 -15.89541,-83.38816 z"
       id="path3847"
       sodipodi:nodetypes="ccsssc" />
    <path
       style="fill:#999999;fill-opacity:1;stroke:none"
       d="m 368.42395,240.72238 c 0,0 12.85717,83.62072 13.09024,86.13533 0.23306,2.5146 -1.37041,4.25904 -5.34629,3.36498 -2.65364,-0.59673 -6.52301,1.38558 -6.31106,-2.89489 0.21196,-4.28047 -14.55732,-45.41838 -14.55732,-45.41838 l 0.80215,-37.86381 12.32228,-3.32323 z"
       id="path3849"
       sodipodi:nodetypes="csssccc" />
    <path
       style="fill:#ffffff;fill-opacity:1;stroke:none"
       d="m 218.68245,166.79774 -17.8284,13.42042 50.83879,56.51201 8.08321,82.28616 c 0,0 14.62106,29.688 38.55569,30.158 14.3941,0.28265 36.05258,-5.33189 41.51572,-7.95653 12.8203,-6.15922 24.96559,-28.00281 25.94474,-47.34624 0.72086,-14.24102 -5.18693,-104.67032 -16.23404,-119.87814 -3.73714,-5.14466 -6.21283,-7.83073 -10.59865,-9.8219 -3.90838,-1.77442 -12.80609,-1.34927 -12.80609,-1.34927 -5.83431,-4.93745 -8.76967,-9.73133 -20.71349,-14.9713 -30.01628,-0.41356 -77.16865,5.83354 -80.50263,8.17151 -3.334,2.33798 -6.27251,11.13198 -6.25485,10.77528 z"
       id="path3788"
       sodipodi:nodetypes="ccccsssssccsc" />
    <path
       style="fill:#999999;fill-opacity:1;stroke:none"
       d="m 207.55736,174.8288 c -43.15822,30.57292 2.54459,119.27626 11.87215,135.75327 10.03562,17.72777 24.53087,53.42142 23.42887,61.23362 -1.102,7.8122 22.22863,13.25843 31.57364,12.29084 9.345,-0.9676 1.02445,-20.68894 1.02445,-20.68894 0,0 -40.46631,-34.90115 -56.58443,-99.34858 -2.79443,-11.17338 1.85889,-47.50846 14.46639,-32.18107 13.49106,16.40156 12.17406,78.19291 34.39802,99.6803 -5.60258,-28.30438 -11.50764,-80.8709 -11.32157,-103.54376 0.18607,-22.67287 -34.10278,-63.6478 -48.85752,-53.19568 z"
       id="path3786"
       sodipodi:nodetypes="cssscssczs" />
    <path
       style="fill:#999999;fill-opacity:1;stroke:none"
       d="m 211.24806,172.50848 c 0,0 -0.65099,-7.33682 7.8583,-14.27168 7.78046,-6.34088 24.60927,-1.27067 28.14444,2.10878 10.61086,10.14348 10.04391,22.47666 13.10592,31.40087 0,0 -20.48732,-26.76025 -31.58053,-26.59439 -11.80602,0.17653 -17.4928,6.64301 -17.52813,7.35642 z"
       id="path3790"
       sodipodi:nodetypes="cssczc" />
    <path
       style="fill:#000000;fill-opacity:1;stroke:none"
       d="m 292.47749,229.09501 c -6.9717,3.58817 -8.65147,8.1635 -10.35524,14.14804 -1.70376,5.98455 -1.7507,14.1041 1.52549,19.74246 3.27619,5.63835 18.99767,8.25611 23.34485,-2.06227 4.34717,-10.31837 14.48985,-11.8617 19.49172,-3.68338 5.00188,8.17832 17.3054,2.97798 18.97606,-0.49069 1.67066,-3.46867 3.87209,-10.93902 2.00625,-18.85242 -1.89021,-8.01676 -5.29768,-12.01141 -15.04153,-13.97529 -9.74385,-1.96387 -32.9759,1.58538 -39.9476,5.17355 z"
       id="path3792"
       sodipodi:nodetypes="czzzzzzzz" />
    <path
       sodipodi:type="arc"
       style="fill:#1a1a1a;fill-opacity:1;stroke:none"
       id="path3796"
       sodipodi:cx="190.89285"
       sodipodi:cy="252.18361"
       sodipodi:rx="15.892858"
       sodipodi:ry="16.25"
       d="m 206.78571,252.18361 c 0,8.97463 -7.11547,16.25 -15.89286,16.25 -8.77738,0 -15.89285,-7.27537 -15.89285,-16.25 0,-8.97463 7.11547,-16.25 15.89285,-16.25 8.77739,0 15.89286,7.27537 15.89286,16.25 z"
       transform="matrix(0.9987763,0.04945597,-0.04945597,0.9987763,20.317408,-15.597972)" />
    <path
       style="fill:#1a1a1a;fill-opacity:1;stroke:none"
       d="m 229.62841,234.77884 -27.06187,2.47716 1.57182,16.91093 24.64157,-2.25283 0.84848,-17.13526 z"
       id="rect3800" />
    <path
       style="fill:#ffffff;fill-opacity:1;stroke:none"
       d="m 185.83797,255.99683 c 7.90051,-0.68154 26.98062,1.65692 27.2544,5.6405 0.72741,10.58465 -12.04915,51.96769 -13.86456,59.74457 -1.8154,7.77688 -6.15272,37.59887 -10.41554,37.0302 -4.2628,-0.56866 -14.10926,-3.91686 -13.93263,-7.48392 0.17663,-3.56706 10.54864,-93.87891 10.95833,-94.93135 z"
       id="path3833"
       sodipodi:nodetypes="cssssc" />
    <path
       style="fill:#999999;fill-opacity:1;stroke:none"
       d="m 181.17739,260.36377 c 3.13514,-3.8949 6.66543,-7.88292 7.33295,-1.09716 1.46614,14.90438 -5.59128,55.10437 -6.31404,67.17729 -0.72276,12.07293 3.35091,29.30347 -1.66064,29.41289 -5.01154,0.10943 -3.58637,-2.93136 -8.4713,-2.85373 -4.88493,0.0776 -3.4282,1.29057 -5.14588,1.98703 -1.79412,0.72747 -3.31698,-0.93789 -3.2027,-2.46922 2.28164,-30.57345 2.10597,-64.63056 17.46161,-92.1571 z"
       id="path3835"
       sodipodi:nodetypes="cszszssc" />
    <path
       style="fill:#e6e6e6;fill-opacity:1;stroke:none"
       d="m 182.92631,214.61872 c -6.20374,2.20932 -11.99401,18.35786 -12.15298,21.56822 -0.15896,3.21035 -1.09165,29.26754 0.90729,32.22716 1.99892,2.95963 11.61466,5.07468 13.78788,3.18579 4.67078,-4.05968 0.29021,-34.00536 -0.51505,-50.98071 -0.20912,-4.40845 -0.78925,-6.4413 -2.02714,-6.00046 z"
       id="path3808"
       sodipodi:nodetypes="csssss" />
    <path
       style="fill:#999999;fill-opacity:1;stroke:none"
       d="m 170.97935,233.08364 c -1.39586,4.75111 -6.16252,22.29648 -5.29553,26.45159 0.86699,4.15511 2.88069,9.89213 6.99626,10.35869 5.60046,0.63489 5.98794,0.49426 5.76739,-4.54176 -0.66905,-15.27697 -1.75446,-28.13102 -2.55662,-31.41488 -0.80215,-3.28386 -3.35138,-6.16386 -4.9115,-0.85364 z"
       id="path3810"
       sodipodi:nodetypes="czsszs" />
    <path
       style="fill:#ffffff;fill-opacity:1;stroke:none"
       d="m 157.58803,367.95098 c 8.11247,-4.96201 30.88865,-2.76146 34.65346,0.64317 1.90327,1.72121 0.6868,22.44787 6.15893,40.48122 6.8364,22.52927 14.1318,33.49769 13.65678,35.94947 -0.96068,4.95855 -7.96082,23.56369 -16.68417,19.19836 -8.72335,-4.36534 -38.07105,-97.71671 -37.785,-96.27222 z"
       id="path3839"
       sodipodi:nodetypes="cssssc" />
    <path
       style="fill:#999999;fill-opacity:1;stroke:none"
       d="m 158.69347,367.29056 c -6.98534,3.10276 -4.45024,30.45872 -2.0304,32.54401 9.21178,7.93819 17.18152,31.59456 22.00853,47.8281 1.22996,4.13638 7.6037,12.53423 10.35138,14.81578 4.43048,3.67886 13.25799,4.32561 8.75488,-2.25361 -14.11414,-20.62125 -29.93034,-78.02063 -32.12653,-88.50825 -0.41497,-1.98159 -3.87905,-5.79358 -6.95786,-4.42603 z"
       id="path3841"
       sodipodi:nodetypes="cssssss" />
    <path
       style="fill:#ffffff;fill-opacity:1;stroke:none"
       d="m 394.55592,341.24491 c -11.43178,3.80777 -21.79976,6.96612 -19.21106,12.45801 2.58871,5.49189 40.93244,39.93036 43.27042,43.26435 2.33797,3.334 20.19093,3.86043 19.99319,0.63242 -0.19775,-3.22802 -17.47667,-15.34739 -21.73409,-23.24618 -4.25742,-7.8988 -9.20785,-18.74515 -12.89052,-28.52958 -1.88523,-5.00883 -6.08713,-5.69178 -9.42794,-4.57902 z"
       id="path3853"
       sodipodi:nodetypes="cssszss" />
    <path
       style="fill:#999999;fill-opacity:1;stroke:none"
       d="m 375.15595,350.29656 c -1.74475,6.35005 -1.49057,15.65972 1.21294,18.83303 1.67017,1.9604 14.03443,15.69325 23.5176,23.33449 8.373,6.7467 18.05049,21.81226 22.99139,23.12964 4.94089,1.3174 14.61783,4.47843 13.86564,-1.99526 -0.75219,-6.47369 -8.53252,-15.44088 -11.7252,-15.95656 -3.19269,-0.51566 -49.86237,-47.34534 -49.86237,-47.34534 z"
       id="path3855"
       sodipodi:nodetypes="csssssc" />
    <path
       d="m 206.78571,252.18361 c 0,8.97463 -7.11547,16.25 -15.89286,16.25 -8.77738,0 -15.89285,-7.27537 -15.89285,-16.25 0,-8.97463 7.11547,-16.25 15.89285,-16.25 8.77739,0 15.89286,7.27537 15.89286,16.25 z"
       sodipodi:ry="16.25"
       sodipodi:rx="15.892858"
       sodipodi:cy="252.18361"
       sodipodi:cx="190.89285"
       id="path3857"
       style="fill:#1a1a1a;fill-opacity:1;stroke:none"
       sodipodi:type="arc"
       transform="matrix(0.6504455,0.03220783,-0.03220783,0.6504455,318.33582,238.20332)" />
    <path
       style="fill:#999999;fill-opacity:1;stroke:none"
       d="m 193.65133,483.64785 c -1.23844,0.66952 -2.20569,2.2089 -2.31065,4.32852 -1.06666,7.0988 -3.13748,12.72201 -5.54977,21.72086 -0.52984,1.97653 2.778,5.16443 5.90947,5.76807 1.75951,-9.06654 5.67278,-30.86087 2.13667,-31.77697 l -0.18572,-0.0404 z"
       id="path3952" />
    <path
       transform="matrix(0.28276411,0.01400151,-0.01400151,0.28276411,145.43697,407.2497)"
       sodipodi:type="arc"
       style="fill:#1a1a1a;fill-opacity:1;stroke:none"
       id="path3873"
       sodipodi:cx="190.89285"
       sodipodi:cy="252.18361"
       sodipodi:rx="15.892858"
       sodipodi:ry="16.25"
       d="m 206.78571,252.18361 c 0,8.97463 -7.11547,16.25 -15.89286,16.25 -8.77738,0 -15.89285,-7.27537 -15.89285,-16.25 0,-8.97463 7.11547,-16.25 15.89285,-16.25 8.77739,0 15.89286,7.27537 15.89286,16.25 z" />
    <path
       sodipodi:type="arc"
       style="fill:#b3b3b3;fill-opacity:1;stroke:none"
       id="path3861"
       sodipodi:cx="196.96428"
       sodipodi:cy="484.32648"
       sodipodi:rx="6.9642859"
       sodipodi:ry="6.9642859"
       d="m 203.92857,484.32648 c 0,3.84627 -3.11802,6.96428 -6.96429,6.96428 -3.84627,0 -6.96429,-3.11801 -6.96429,-6.96428 0,-3.84627 3.11802,-6.96429 6.96429,-6.96429 3.84627,0 6.96429,3.11802 6.96429,6.96429 z"
       transform="matrix(0.9987763,0.04945597,-0.04945597,0.9987763,22.920326,-17.614567)" />
    <path
       style="fill:#999999;fill-opacity:1;stroke:none"
       d="m 211.83634,512.58261 c -0.4068,0.14643 -0.82923,0.29191 -1.30441,0.43603 -3.65987,1.64581 -7.87864,7.35303 -8.81913,8.76206 -7.18468,10.76396 0.49015,15.83865 5.77523,15.4295 0.0153,-0.49101 0.0685,-0.99931 0.20058,-1.52319 0.71038,-2.8188 8.50087,-13.58986 8.50087,-13.58986 -3.92759,-0.5167 -4.92074,-3.48784 -1.65175,-5.03297 l -2.70139,-4.48157 z"
       id="path3967"
       sodipodi:nodetypes="ccscsccc" />
    <path
       transform="matrix(0.28276411,0.01400151,-0.01400151,0.28276411,164.19278,440.09248)"
       sodipodi:type="arc"
       style="fill:#1a1a1a;fill-opacity:1;stroke:none"
       id="path3887"
       sodipodi:cx="190.89285"
       sodipodi:cy="252.18361"
       sodipodi:rx="15.892858"
       sodipodi:ry="16.25"
       d="m 206.78571,252.18361 c 0,8.97463 -7.11547,16.25 -15.89286,16.25 -8.77738,0 -15.89285,-7.27537 -15.89285,-16.25 0,-8.97463 7.11547,-16.25 15.89285,-16.25 8.77739,0 15.89286,7.27537 15.89286,16.25 z" />
    <path
       sodipodi:nodetypes="csssc"
       id="path3875"
       d="m 206.76654,485.90247 c 1.58599,7.75598 1.53245,14.34515 2.40726,24.56754 0.28849,3.37096 10.88597,6.39993 12.32517,0.73127 1.16789,-4.60005 -0.40593,-16.03112 -4.82459,-25.50827 -4.78416,-10.26101 -11.89229,-6.11196 -9.90784,0.20946 z"
       style="fill:#ffffff;fill-opacity:1;stroke:none" />
    <path
       style="fill:#999999;fill-opacity:1;stroke:none"
       d="m 208.09408,480.1078 c -1.42964,1.03053 -2.12519,3.21751 -1.319,5.7856 1.58599,7.75597 1.53718,14.36448 2.41199,24.58687 0.18359,2.14524 4.52233,4.12504 8.03869,3.83976 -2.16387,-11.23598 -0.90823,-21.84224 -9.13168,-34.21223 z"
       id="path3962" />
    <path
       d="m 206.78571,252.18361 c 0,8.97463 -7.11547,16.25 -15.89286,16.25 -8.77738,0 -15.89285,-7.27537 -15.89285,-16.25 0,-8.97463 7.11547,-16.25 15.89285,-16.25 8.77739,0 15.89286,7.27537 15.89286,16.25 z"
       sodipodi:ry="16.25"
       sodipodi:rx="15.892858"
       sodipodi:cy="252.18361"
       sodipodi:cx="190.89285"
       id="path3889"
       style="fill:#1a1a1a;fill-opacity:1;stroke:none"
       sodipodi:type="arc"
       transform="matrix(0.28276411,0.01400151,-0.01400151,0.28276411,158.60163,404.36171)" />
    <path
       style="fill:#ffffff;fill-opacity:1;stroke:none"
       d="m 217.0261,480.02094 c 2.45402,6.74598 3.32309,12.66937 5.50262,21.72742 0.71874,2.98701 10.33651,4.25197 10.79789,-1.03513 0.37439,-4.29042 -2.57971,-14.33773 -7.7312,-22.24026 -5.57758,-8.55614 -11.16983,-3.85531 -8.56931,1.54797 z"
       id="path3877"
       sodipodi:nodetypes="csssc" />
    <path
       style="fill:#999999;fill-opacity:1;stroke:none"
       d="m 218.17092,474.3804 -0.73024,0.21415 c -1.14163,1.10785 -1.49859,3.1924 -0.42498,5.42312 2.45403,6.74598 3.34594,12.67932 5.52547,21.73736 0.51768,2.15139 5.62947,3.36926 8.6339,1.92936 -3.17557,-9.77994 -4.96144,-19.58704 -13.00415,-29.30399 z"
       id="path3972" />
    <path
       transform="matrix(0.28276411,0.01400151,-0.01400151,0.28276411,168.01909,398.00115)"
       sodipodi:type="arc"
       style="fill:#1a1a1a;fill-opacity:1;stroke:none"
       id="path3891"
       sodipodi:cx="190.89285"
       sodipodi:cy="252.18361"
       sodipodi:rx="15.892858"
       sodipodi:ry="16.25"
       d="m 206.78571,252.18361 c 0,8.97463 -7.11547,16.25 -15.89286,16.25 -8.77738,0 -15.89285,-7.27537 -15.89285,-16.25 0,-8.97463 7.11547,-16.25 15.89285,-16.25 8.77739,0 15.89286,7.27537 15.89286,16.25 z" />
    <path
       sodipodi:type="arc"
       style="fill:#b3b3b3;fill-opacity:1;stroke:none"
       id="path3948"
       sodipodi:cx="196.96428"
       sodipodi:cy="484.32648"
       sodipodi:rx="6.9642859"
       sodipodi:ry="6.9642859"
       d="m 203.92857,484.32648 c 0,3.84627 -3.11802,6.96428 -6.96429,6.96428 -3.84627,0 -6.96429,-3.11801 -6.96429,-6.96428 0,-3.84627 3.11802,-6.96429 6.96429,-6.96429 3.84627,0 6.96429,3.11802 6.96429,6.96429 z"
       transform="matrix(0.9987763,0.04945597,-0.04945597,0.9987763,45.156278,-26.168191)" />
    <path
       style="fill:#cccccc;fill-opacity:1;stroke:none"
       d="m 349.19515,423.42297 c -0.29612,0.0135 -0.62359,0.096 -0.95181,0.26576 -13.82446,7.15093 -26.98033,29.26476 -27.13021,32.29151 -0.0236,0.47702 -0.29467,2.20142 -0.65642,4.41043 l 19.15343,8.11343 16.33056,-27.1318 c 0.018,-5.51274 -0.29881,-9.403 -0.94921,-10.52858 -2.31825,-4.01198 -3.72353,-7.51516 -5.79634,-7.42075 z"
       id="path3896" />
    <path
       transform="matrix(0.9987763,0.04945597,-0.04945597,0.9987763,155.91997,177.77358)"
       sodipodi:type="arc"
       style="fill:#1a1a1a;fill-opacity:1;stroke:none"
       id="path3905"
       sodipodi:cx="190.89285"
       sodipodi:cy="252.18361"
       sodipodi:rx="15.892858"
       sodipodi:ry="16.25"
       d="m 206.78571,252.18361 c 0,8.97463 -7.11547,16.25 -15.89286,16.25 -8.77738,0 -15.89285,-7.27537 -15.89285,-16.25 0,-8.97463 7.11547,-16.25 15.89285,-16.25 8.77739,0 15.89286,7.27537 15.89286,16.25 z" />
    <path
       style="fill:#ffffff;fill-opacity:1;stroke:none"
       d="m 248.50848,390.4321 c 23.25504,0.14012 92.56565,-0.47342 94.45858,2.14879 1.89294,2.6222 -0.44236,20.89731 -5.12986,32.11047 -4.12781,9.87431 -18.92539,34.86588 -29.5437,34.94714 -15.10033,0.11556 -29.04882,-31.17636 -32.52964,-37.5151 -7.42187,-13.51559 -27.25538,-31.6913 -27.25538,-31.6913 z"
       id="path3893"
       sodipodi:nodetypes="cssssc" />
    <path
       style="fill:#ffffff;fill-opacity:1;stroke:none"
       d="m 253.46967,532.5192 c -7.90773,12.96351 -22.17829,28.20704 -27.30674,46.99309 -5.12846,18.78606 -11.20387,40.237 -5.63864,41.14622 25.49179,4.16473 18.37004,0.46717 36.13429,-3.15553 1.41756,1.79446 5.80195,6.28555 7.0753,-2.32625 1.70688,-11.54373 1.76834,-77.83587 -0.54599,-83.06501 -3.41718,-7.72098 -6.93298,-4.1585 -9.71822,0.40748 z"
       id="path3683"
       sodipodi:nodetypes="czscsss" />
    <path
       style="fill:#ffffff;fill-opacity:1;stroke:none"
       d="m 251.72192,616.59627 c -7.08618,2.68328 -23.60071,10.85963 -24.09184,16.75922 -0.49113,5.89959 2.06277,19.39803 17.501,19.32446 15.43823,-0.0736 42.38697,1.846 47.01453,0.30522 4.62755,-1.54079 11.71495,-1.69554 12.51672,-12.78114 0.80176,-11.08558 -11.53737,-22.31619 -20.60513,-23.01803 -9.06776,-0.70185 -25.24911,-3.27302 -32.33528,-0.58973 z"
       id="path3685"
       sodipodi:nodetypes="czzzzzz" />
    <path
       style="fill:#ffffff;fill-opacity:1;stroke:none"
       d="m 347.72874,506.59806 c -0.77054,14.52191 -25.02611,40.73349 -27.44605,43.64783 -2.41994,2.91434 -5.43176,7.56931 -5.94627,12.85363 -0.51451,5.28432 -6.33234,30.86302 -6.6408,37.09261 -0.32473,6.55796 3.23201,7.47223 7.94888,7.97902 8.68925,0.9336 21.41047,-5.57643 28.82418,-10.20371 4.65543,-2.9057 10.78339,-6.37594 11.45784,-11.82217 2.38418,-19.2528 1.94013,-53.6215 -0.089,-79.90424 -0.37419,-4.84677 -7.70831,-7.19077 -8.1088,0.35703 z"
       id="path3693"
       sodipodi:nodetypes="cssssssss" />
    <path
       style="fill:#ffffff;fill-opacity:1;stroke:none"
       d="m 362.28642,599.86111 c -0.48709,9.83693 3.11023,26.062 7.80632,26.17699 10.10165,0.24735 37.63264,2.92819 45.04909,4.25346 9.53196,1.70331 12.04946,-4.1698 14.37218,-9.40224 2.51191,-5.65858 1.48774,-13.96432 -2.8842,-18.34783 -12.55809,-12.59137 -32.38913,-9.00358 -50.15855,-8.29918 -3.85914,0.15298 -13.99383,1.76136 -14.18484,5.6188 z"
       id="path3695"
       sodipodi:nodetypes="cssssss" />
    <path
       transform="matrix(0.9987763,0.04945597,-0.04945597,0.9987763,259.79628,-79.152803)"
       d="m 203.92857,484.32648 c 0,3.84627 -3.11802,6.96428 -6.96429,6.96428 -3.84627,0 -6.96429,-3.11801 -6.96429,-6.96428 0,-3.84627 3.11802,-6.96429 6.96429,-6.96429 3.84627,0 6.96429,3.11802 6.96429,6.96429 z"
       sodipodi:ry="6.9642859"
       sodipodi:rx="6.9642859"
       sodipodi:cy="484.32648"
       sodipodi:cx="196.96428"
       id="path3705"
       style="fill:#999999;fill-opacity:1;stroke:none"
       sodipodi:type="arc" />
    <path
       transform="matrix(0.9987763,0.04945597,-0.04945597,0.9987763,276.23624,-89.464043)"
       d="m 203.92857,484.32648 c 0,3.84627 -3.11802,6.96428 -6.96429,6.96428 -3.84627,0 -6.96429,-3.11801 -6.96429,-6.96428 0,-3.84627 3.11802,-6.96429 6.96429,-6.96429 3.84627,0 6.96429,3.11802 6.96429,6.96429 z"
       sodipodi:ry="6.9642859"
       sodipodi:rx="6.9642859"
       sodipodi:cy="484.32648"
       sodipodi:cx="196.96428"
       id="path3709"
       style="fill:#999999;fill-opacity:1;stroke:none"
       sodipodi:type="arc" />
    <path
       sodipodi:type="arc"
       style="fill:#999999;fill-opacity:1;stroke:none"
       id="path3707"
       sodipodi:cx="196.96428"
       sodipodi:cy="484.32648"
       sodipodi:rx="6.9642859"
       sodipodi:ry="6.9642859"
       d="m 203.92857,484.32648 c 0,3.84627 -3.11802,6.96428 -6.96429,6.96428 -3.84627,0 -6.96429,-3.11801 -6.96429,-6.96428 0,-3.84627 3.11802,-6.96429 6.96429,-6.96429 3.84627,0 6.96429,3.11802 6.96429,6.96429 z"
       transform="matrix(0.9987763,0.04945597,-0.04945597,0.9987763,267.00368,-91.943989)" />
    <path
       d="m 206.78571,252.18361 c 0,8.97463 -7.11547,16.25 -15.89286,16.25 -8.77738,0 -15.89285,-7.27537 -15.89285,-16.25 0,-8.97463 7.11547,-16.25 15.89285,-16.25 8.77739,0 15.89286,7.27537 15.89286,16.25 z"
       sodipodi:ry="16.25"
       sodipodi:rx="15.892858"
       sodipodi:cy="252.18361"
       sodipodi:cx="190.89285"
       id="path3922"
       style="fill:#1a1a1a;fill-opacity:1;stroke:none"
       sodipodi:type="arc"
       transform="matrix(0.28276411,0.01400151,-0.01400151,0.28276411,390.41872,323.55114)" />
    <path
       style="fill:#ffffff;fill-opacity:1;stroke:none"
       d="m 436.16726,393.46412 c 1.17129,-3.22902 8.60391,-19.08908 10.89855,-20.95239 3.45668,-2.80692 9.80477,-2.2455 11.45093,-0.8506 5.03542,4.26685 7.30647,13.47929 1.34342,16.71108 -4.4682,2.42163 -9.87374,13.17206 -16.22351,12.5415 -3.49922,-0.3475 -8.66848,-4.1439 -7.46939,-7.44959 z"
       id="path3701"
       sodipodi:nodetypes="csssss" />
    <path
       d="m 206.78571,252.18361 c 0,8.97463 -7.11547,16.25 -15.89286,16.25 -8.77738,0 -15.89285,-7.27537 -15.89285,-16.25 0,-8.97463 7.11547,-16.25 15.89285,-16.25 8.77739,0 15.89286,7.27537 15.89286,16.25 z"
       sodipodi:ry="16.25"
       sodipodi:rx="15.892858"
       sodipodi:cy="252.18361"
       sodipodi:cx="190.89285"
       id="path3926"
       style="fill:#1a1a1a;fill-opacity:1;stroke:none"
       sodipodi:type="arc"
       transform="matrix(0.28276411,0.01400151,-0.01400151,0.28276411,403.3348,328.23626)" />
    <path
       style="fill:#999999;fill-opacity:1;stroke:none"
       d="m 451.16086,398.19112 c -1.93952,1.62827 -1.59737,6.78011 2.42481,7.1998 6.98246,0.7286 12.32176,1.36867 13.5954,1.17889 1.27363,-0.18978 8.05973,-3.62271 7.94155,-7.19219 -0.14378,-4.34244 -5.89671,-7.64874 -10.21893,-8.09143 -5.09998,-0.52235 -7.73228,1.85895 -13.74283,6.90493 z"
       id="path3713"
       sodipodi:nodetypes="csssss" />
    <path
       style="fill:#f9f9f9;fill-opacity:1;stroke:none"
       d="M 466.80965,401.30484 C 464.70881,399.0516 465.98,393.80475 465.98,393.80475 l 7.77729,-1.32162 -6.94764,8.82171 z"
       id="path4002" />
    <path
       transform="matrix(0.28276411,0.01400151,-0.01400151,0.28276411,419.85459,326.52579)"
       sodipodi:type="arc"
       style="fill:#1a1a1a;fill-opacity:1;stroke:none"
       id="path3928"
       sodipodi:cx="190.89285"
       sodipodi:cy="252.18361"
       sodipodi:rx="15.892858"
       sodipodi:ry="16.25"
       d="m 206.78571,252.18361 c 0,8.97463 -7.11547,16.25 -15.89286,16.25 -8.77738,0 -15.89285,-7.27537 -15.89285,-16.25 0,-8.97463 7.11547,-16.25 15.89285,-16.25 8.77739,0 15.89286,7.27537 15.89286,16.25 z" />
    <path
       style="fill:#ffffff;fill-opacity:1;stroke:none"
       d="m 470.60504,393.59128 c -1.97974,4.29526 -2.31514,11.01066 -0.69942,14.12484 1.61573,3.11418 8.35573,12.55074 15.25346,13.65053 10.09665,1.60984 14.38543,-11.20052 11.06337,-19.1743 -3.90481,-9.3725 -23.59291,-12.99342 -25.61741,-8.60107 z"
       id="path3715"
       sodipodi:nodetypes="cssss" />
    <path
       style="fill:#999999;fill-opacity:1;stroke:none"
       d="m 445.81626,374.07858 c -3.02094,4.53591 -8.65208,16.61597 -9.65826,19.38982 -1.1991,3.30568 3.98564,7.09429 7.48487,7.44178 6.34976,0.63056 11.73363,-10.10492 16.20183,-12.52655 1.89413,-1.02656 2.94672,-2.67517 3.35455,-4.55843 l -10.35793,-4.39264 c -1.88403,0.62576 -3.19187,2.77036 -5.66234,1.87852 0,0 -2.09935,-1.01517 -1.36272,-7.2325 z"
       id="path3992" />
    <path
       transform="matrix(0.28276411,0.01400151,-0.01400151,0.28276411,401.82172,302.62374)"
       sodipodi:type="arc"
       style="fill:#1a1a1a;fill-opacity:1;stroke:none"
       id="path3924"
       sodipodi:cx="190.89285"
       sodipodi:cy="252.18361"
       sodipodi:rx="15.892858"
       sodipodi:ry="16.25"
       d="m 206.78571,252.18361 c 0,8.97463 -7.11547,16.25 -15.89286,16.25 -8.77738,0 -15.89285,-7.27537 -15.89285,-16.25 0,-8.97463 7.11547,-16.25 15.89285,-16.25 8.77739,0 15.89286,7.27537 15.89286,16.25 z" />
    <path
       style="fill:#ffffff;fill-opacity:1;stroke:none"
       d="m 454.18431,394.72695 c 4.9828,3.77707 11.97274,2.14773 16.07191,0.3795 3.4744,-1.49874 8.37521,-8.08573 5.88684,-15.29705 -0.86004,-2.49237 -9.01386,-14.49208 -15.99027,-12.25829 -4.42753,1.41766 -9.60173,4.26561 -10.37291,8.85016 -0.83464,4.96173 -0.28094,14.77405 4.40443,18.32568 z"
       id="path3703"
       sodipodi:nodetypes="csssss" />
    <path
       d="m 206.78571,252.18361 c 0,8.97463 -7.11547,16.25 -15.89286,16.25 -8.77738,0 -15.89285,-7.27537 -15.89285,-16.25 0,-8.97463 7.11547,-16.25 15.89285,-16.25 8.77739,0 15.89286,7.27537 15.89286,16.25 z"
       sodipodi:ry="16.25"
       sodipodi:rx="15.892858"
       sodipodi:cy="252.18361"
       sodipodi:cx="190.89285"
       id="path3918"
       style="fill:#1a1a1a;fill-opacity:1;stroke:none"
       sodipodi:type="arc"
       transform="matrix(0.28276411,0.01400151,-0.01400151,0.28276411,382.10492,343.36727)" />
    <path
       style="fill:#ffffff;fill-opacity:1;stroke:none"
       d="m 428.35759,419.56542 c -2.21687,5.45591 0.38863,21.79773 3.15135,23.16516 5.67638,2.80955 11.65689,4.14454 14.86659,-4.06796 1.84264,-4.71468 -4.07257,-9.95148 -5.77112,-16.21516 -1.76311,-6.50175 -9.43653,-9.79845 -12.24682,-2.88204 z"
       id="path3721"
       sodipodi:nodetypes="cssss" />
    <path
       style="fill:#999999;fill-opacity:1;stroke:none"
       d="m 432.07703,415.85647 c -1.49926,0.3805 -2.84035,1.53423 -3.71857,3.69562 -2.21687,5.4559 0.3758,21.81616 3.13852,23.18358 2.67231,1.32267 5.41893,2.28556 7.90521,2.1123 0.75629,-2.15559 1.27787,-3.69132 1.27787,-3.69132 0,0 -7.28787,-0.7295 -6.84831,-4.50045 0.43958,-3.77094 5.53783,-4.41903 5.53783,-4.41903 0,0 -3.83226,-7.49542 -7.29255,-16.3807 z"
       id="path3982" />
    <path
       transform="matrix(0.28276411,0.01400151,-0.01400151,0.28276411,390.04862,366.76975)"
       sodipodi:type="arc"
       style="fill:#1a1a1a;fill-opacity:1;stroke:none"
       id="path3920"
       sodipodi:cx="190.89285"
       sodipodi:cy="252.18361"
       sodipodi:rx="15.892858"
       sodipodi:ry="16.25"
       d="m 206.78571,252.18361 c 0,8.97463 -7.11547,16.25 -15.89286,16.25 -8.77738,0 -15.89285,-7.27537 -15.89285,-16.25 0,-8.97463 7.11547,-16.25 15.89285,-16.25 8.77739,0 15.89286,7.27537 15.89286,16.25 z" />
    <path
       style="fill:#ffffff;fill-opacity:1;stroke:none"
       d="m 435.82181,442.43845 c -1.57475,9.85377 4.47488,19.5368 10.42608,19.22698 6.57448,-0.34228 11.68689,-0.85574 18.52513,-1.35833 5.45953,-0.40126 6.60326,-14.37631 3.72373,-19.03202 -8.87307,-9.77248 -23.89775,-8.01912 -32.67494,1.16337 z"
       id="path3723"
       sodipodi:nodetypes="csscc" />
    <path
       style="fill:#999999;fill-opacity:1;stroke:none"
       d="m 248.56301,539.86986 c -7.94141,11.31342 -18.20045,24.26887 -22.39352,39.6285 -5.12846,18.78605 -11.20082,40.23742 -5.63559,41.14664 9.42537,1.53987 14.36241,1.99624 17.77709,1.78762 3.28678,-13.50699 9.69658,-62.46791 10.25202,-82.56276 z"
       id="path3878"
       sodipodi:nodetypes="csscc" />
    <path
       style="fill:#999999;fill-opacity:1;stroke:none"
       d="m 228.86733,630.53799 c -0.72081,0.97078 -1.16023,1.92404 -1.2346,2.81739 -0.49113,5.89959 2.06487,19.40035 17.5031,19.32678 4.19522,-0.02 9.22671,0.0809 14.44301,0.24585 l 2.04844,-17.35744 c 0,0 -20.50565,1.34468 -32.75995,-5.03258 z"
       id="path3884" />
    <path
       style="fill:#999999;fill-opacity:1;stroke:none"
       d="m 321.70216,454.19469 c -3.29871,17.55886 -7.20905,35.58715 -7.68799,53.52903 1.97032,6.16591 3.1297,13.04321 13.45861,13.80751 4.02647,0.29789 6.74884,-0.77257 8.76127,-2.53856 -1.63623,-2.5565 -1.72716,-7.14699 -1.85189,-9.63016 -0.36016,-7.16944 11.87992,-51.98054 11.87992,-51.98054 0,0 -15.62449,8.68122 -24.55992,-3.18728 z"
       id="path3890"
       sodipodi:nodetypes="ccscscc" />
    <path
       style="fill:#999999;fill-opacity:1;stroke:none"
       d="m 336.18972,530.62972 c -6.90968,9.66232 -14.58774,18.03772 -15.89568,19.61286 -2.41993,2.91434 -5.44059,7.56188 -5.9551,12.8462 -0.51451,5.28432 -6.34656,30.86167 -6.65503,37.09126 -0.32473,6.55797 3.24111,7.49032 7.95798,7.99711 7.66481,0.82353 18.45467,-4.14762 25.98375,-8.50661 l 1.49678,-67.50859 c 0,0 -3.58095,2.8867 -6.9327,-1.53223 z"
       id="path3902" />
    <path
       style="fill:#999999;fill-opacity:1;stroke:none"
       d="m 342.44118,598.36553 c -10.46421,0.91168 -18.88655,8.05565 -30.08301,9.14841 -4.33048,0.42264 -6.65906,1.98925 -6.25445,3.72649 1.2511,5.37174 2.15092,7.99956 5.31856,10.11916 8.66252,1.79026 39.23761,4.17316 46.17455,2.0361 2.82341,-1.71082 4.0056,-2.30484 3.87622,-6.87921 -0.13439,-4.75107 -1.30805,-9.56429 -2.83919,-14.06388 -0.13001,-0.38208 -0.31226,-0.70625 -0.48114,-1.02505 -5.41364,1.93405 -14.29587,3.72836 -15.71154,-3.06202 z"
       id="path3907" />
    <path
       style="fill:#999999;fill-opacity:1;stroke:none"
       d="m 394.21682,604.18326 c -11.22128,-0.51319 -24.44472,-0.41387 -31.89134,0.17299 0.52303,9.61014 3.74901,21.59387 7.78045,21.69259 10.10165,0.24735 37.61684,2.90706 45.03329,4.23234 2.0711,0.37009 3.80377,0.36612 5.28251,0.10513 -1.47747,-9.54587 -3.98411,-22.1037 -7.17596,-23.79025 -2.28679,-1.20833 -9.9911,-1.9995 -19.02895,-2.4128 z"
       id="path3913" />
    <path
       transform="matrix(0.9987763,0.04945597,-0.04945597,0.9987763,35.154301,-19.154265)"
       d="m 203.92857,484.32648 c 0,3.84627 -3.11802,6.96428 -6.96429,6.96428 -3.84627,0 -6.96429,-3.11801 -6.96429,-6.96428 0,-3.84627 3.11802,-6.96429 6.96429,-6.96429 3.84627,0 6.96429,3.11802 6.96429,6.96429 z"
       sodipodi:ry="6.9642859"
       sodipodi:rx="6.9642859"
       sodipodi:cy="484.32648"
       sodipodi:cx="196.96428"
       id="path3944"
       style="fill:#b3b3b3;fill-opacity:1;stroke:none"
       sodipodi:type="arc" />
    <path
       style="fill:#ffffff;fill-opacity:1;stroke:none"
       d="m 218.27562,460.35055 c -0.8691,-0.043 -1.70748,0.0929 -2.48891,0.34608 -2.603,8.56572 1.84688,11.6396 6.40878,12.11303 1.55015,-1.20207 2.59109,-3.04138 2.69571,-5.15424 0.19022,-3.84157 -2.77401,-7.11465 -6.61558,-7.30487 z"
       id="path3950" />
    <path
       style="fill:#ffffff;fill-opacity:1;stroke:none"
       d="m 196.03967,468.90418 c -0.86911,-0.043 -1.70749,0.0929 -2.48892,0.34608 -2.603,8.56572 1.84689,11.6396 6.40878,12.11302 1.55015,-1.20206 2.59109,-3.04137 2.69571,-5.15424 0.19022,-3.84156 -2.77401,-7.11464 -6.61557,-7.30486 z"
       id="path3939" />
    <path
       id="path3946"
       d="m 208.27364,467.36447 c -0.8691,-0.043 -1.70748,0.0929 -2.48891,0.34609 -2.603,8.56571 1.84688,11.6396 6.40878,12.11302 1.55015,-1.20207 2.59109,-3.04138 2.69571,-5.15424 0.19022,-3.84156 -2.77401,-7.11464 -6.61558,-7.30487 z"
       style="fill:#ffffff;fill-opacity:1;stroke:none" />
    <path
       style="fill:#999999;fill-opacity:1;stroke:none"
       d="m 449.13642,441.57156 c 0,0 -8.87159,-2.07964 -13.41628,1.81127 -1.06309,9.52053 4.75236,18.59236 10.51445,18.29238 6.28811,-0.32737 11.30924,-0.8319 17.71162,-1.31316 -5.11129,-0.6955 -10.96946,-1.47877 -12.22325,-2.10709 -7.27839,-3.64742 -2.58654,-16.6834 -2.58654,-16.6834 z"
       id="path3987"
       sodipodi:nodetypes="ccscsc" />
    <path
       style="fill:#999999;fill-opacity:1;stroke:none"
       d="m 454.90913,369.89816 c -2.55935,1.57143 -4.67254,3.7222 -5.14044,6.50374 -0.83464,4.96173 -0.27422,14.78271 4.41116,18.33434 3.09648,2.3472 6.97289,2.58337 10.44418,2.019 -2.77016,-1.12178 -6.33471,-3.11014 -7.00837,-6.3231 -0.4473,-2.13335 0.0338,-5.82382 3.68989,-8.17126 0,0 -3.7544,-6.59414 -6.39642,-12.36272 z"
       id="path3997" />
    <path
       style="fill:#999999;fill-opacity:1;stroke:none"
       d="m 470.42172,394.03864 c -1.80797,4.3016 -2.0829,10.66779 -0.52087,13.67848 1.61574,3.11418 8.35231,12.54612 15.25004,13.64591 2.50657,0.39965 4.67675,-0.0685 6.43984,-1.15167 -1.63599,-1.42489 -3.95251,-1.51221 -5.91719,-5.61201 -1.14723,-2.39398 2.83458,-12.11124 3.80583,-13.67226 0.96185,-1.54593 -6.85326,-4.75366 -19.05765,-6.88845 z"
       id="path4009"
       sodipodi:nodetypes="csscssc" />
    <path
       sodipodi:type="arc"
       style="fill:#ffffff;fill-opacity:1;stroke:none"
       id="path4019"
       sodipodi:cx="195.75589"
       sodipodi:cy="241.49167"
       sodipodi:rx="3.3085501"
       sodipodi:ry="1.9299877"
       d="m 199.06444,241.49167 c 0,1.0659 -1.48129,1.92999 -3.30855,1.92999 -1.82726,0 -3.30855,-0.86409 -3.30855,-1.92999 0,-1.0659 1.48129,-1.92999 3.30855,-1.92999 1.82726,0 3.30855,0.86409 3.30855,1.92999 z"
       transform="matrix(0.95330492,0.30200949,-0.30200949,0.95330492,89.739335,-55.735372)" />
    <path
       transform="matrix(0.95330492,0.30200949,-0.30200949,0.95330492,253.03977,-70.009372)"
       d="m 199.06444,241.49167 c 0,1.0659 -1.48129,1.92999 -3.30855,1.92999 -1.82726,0 -3.30855,-0.86409 -3.30855,-1.92999 0,-1.0659 1.48129,-1.92999 3.30855,-1.92999 1.82726,0 3.30855,0.86409 3.30855,1.92999 z"
       sodipodi:ry="1.9299877"
       sodipodi:rx="3.3085501"
       sodipodi:cy="241.49167"
       sodipodi:cx="195.75589"
       id="path4021"
       style="fill:#ffffff;fill-opacity:1;stroke:none"
       sodipodi:type="arc" />
    <path
       sodipodi:type="arc"
       style="fill:#ffffff;fill-opacity:1;stroke:none"
       id="path4023"
       sodipodi:cx="195.75589"
       sodipodi:cy="241.49167"
       sodipodi:rx="3.3085501"
       sodipodi:ry="1.9299877"
       d="m 199.06444,241.49167 c 0,1.0659 -1.48129,1.92999 -3.30855,1.92999 -1.82726,0 -3.30855,-0.86409 -3.30855,-1.92999 0,-1.0659 1.48129,-1.92999 3.30855,-1.92999 1.82726,0 3.30855,0.86409 3.30855,1.92999 z"
       transform="matrix(0.95330492,0.30200949,-0.30200949,0.95330492,140.08982,142.75353)" />
    <path
       transform="matrix(0.95330492,0.30200949,-0.30200949,0.95330492,228.23446,141.04504)"
       d="m 199.06444,241.49167 c 0,1.0659 -1.48129,1.92999 -3.30855,1.92999 -1.82726,0 -3.30855,-0.86409 -3.30855,-1.92999 0,-1.0659 1.48129,-1.92999 3.30855,-1.92999 1.82726,0 3.30855,0.86409 3.30855,1.92999 z"
       sodipodi:ry="1.9299877"
       sodipodi:rx="3.3085501"
       sodipodi:cy="241.49167"
       sodipodi:cx="195.75589"
       id="path4025"
       style="fill:#ffffff;fill-opacity:1;stroke:none"
       sodipodi:type="arc" />
    <path
       style="fill:#ffffff;fill-opacity:1;stroke:none"
       d="m 308.89621,227.53399 c -6.6327,1.07697 -12.77287,2.74944 -15.15259,3.97423 -2.28503,1.17605 -3.05362,2.02068 -4.23439,3.34225 26.98351,-9.64597 44.41141,-7.4474 50.54728,-2.1679 2.57739,2.21767 4.29689,2.77233 5.85018,6.90039 -0.93285,-7.57154 -7.2485,-11.39217 -14.02871,-13.0073 -7.61201,-1.19902 -15.42083,-0.13734 -22.98177,0.95833 z"
       id="path4029"
       sodipodi:nodetypes="cscsccc" />
  </g>
</svg>
