<?xml version="1.0" encoding="UTF-8" standalone="no"?>
<!-- Created with Inkscape (http://www.inkscape.org/) -->

<svg
   xmlns:dc="http://purl.org/dc/elements/1.1/"
   xmlns:cc="http://creativecommons.org/ns#"
   xmlns:rdf="http://www.w3.org/1999/02/22-rdf-syntax-ns#"
   xmlns:svg="http://www.w3.org/2000/svg"
   xmlns="http://www.w3.org/2000/svg"
   xmlns:sodipodi="http://sodipodi.sourceforge.net/DTD/sodipodi-0.dtd"
   xmlns:inkscape="http://www.inkscape.org/namespaces/inkscape"
   width="210.69608"
   height="219.56113"
   id="svg4087"
   version="1.1"
   inkscape:version="0.48.1 r9760"
   sodipodi:docname="stone-giant.svg">
  <title
     id="title4143">stone giant</title>
  <defs
     id="defs4089" />
  <sodipodi:namedview
     id="base"
     pagecolor="#ffffff"
     bordercolor="#666666"
     borderopacity="1.0"
     inkscape:pageopacity="0.0"
     inkscape:pageshadow="2"
     inkscape:zoom="1.8426208"
     inkscape:cx="191.0554"
     inkscape:cy="84.428597"
     inkscape:document-units="px"
     inkscape:current-layer="layer1"
     showgrid="false"
     fit-margin-top="0"
     fit-margin-left="0"
     fit-margin-right="0"
     fit-margin-bottom="0"
     inkscape:window-width="1920"
     inkscape:window-height="1152"
     inkscape:window-x="0"
     inkscape:window-y="0"
     inkscape:window-maximized="1" />
  <metadata
     id="metadata4092">
    <rdf:RDF>
      <cc:Work
         rdf:about="">
        <dc:format>image/svg+xml</dc:format>
        <dc:type
           rdf:resource="http://purl.org/dc/dcmitype/StillImage" />
        <dc:title>stone giant</dc:title>
        <dc:date>2012-06-23</dc:date>
        <dc:creator>
          <cc:Agent>
            <dc:title>tzunghaor (Prim András)</dc:title>
          </cc:Agent>
        </dc:creator>
        <cc:license
           rdf:resource="http://creativecommons.org/licenses/publicdomain/" />
        <dc:publisher>
          <cc:Agent>
            <dc:title>openclipart.org</dc:title>
          </cc:Agent>
        </dc:publisher>
        <dc:subject>
          <rdf:Bag>
            <rdf:li>stone</rdf:li>
            <rdf:li>giant</rdf:li>
            <rdf:li>troll</rdf:li>
            <rdf:li>fantasy</rdf:li>
            <rdf:li>rpg</rdf:li>
            <rdf:li>monster</rdf:li>
            <rdf:li>rock</rdf:li>
            <rdf:li>mushroom</rdf:li>
            <rdf:li>fist</rdf:li>
            <rdf:li></rdf:li>
          </rdf:Bag>
        </dc:subject>
      </cc:Work>
      <cc:License
         rdf:about="http://creativecommons.org/licenses/publicdomain/">
        <cc:permits
           rdf:resource="http://creativecommons.org/ns#Reproduction" />
        <cc:permits
           rdf:resource="http://creativecommons.org/ns#Distribution" />
        <cc:permits
           rdf:resource="http://creativecommons.org/ns#DerivativeWorks" />
      </cc:License>
    </rdf:RDF>
  </metadata>
  <g
     inkscape:label="1. réteg"
     inkscape:groupmode="layer"
     id="layer1"
     transform="translate(-274.65496,-514.29201)">
    <path
       transform="translate(-176.53254,270.47791)"
       sodipodi:type="inkscape:offset"
       inkscape:radius="3"
       inkscape:original="M 563.3125 255.34375 C 556.53697 256.14155 547.86961 260.86638 544.5625 261.96875 C 541.25539 263.07112 540.4375 276.28125 540.4375 276.28125 C 534.92565 276.55684 529.125 303.3125 529.125 303.3125 L 504.875 304.40625 C 504.875 304.40625 500.28871 300.75903 496.90625 300 C 493.83764 299.3114 486.6875 300 486.6875 300 C 486.6875 300 475.67941 297.25 470.71875 297.25 C 465.75808 297.25 460.78125 301.09914 460.78125 304.40625 C 460.78125 307.71336 459.6875 313.78125 459.6875 313.78125 C 459.6875 313.78125 454.1875 317.07651 454.1875 319.28125 L 454.1875 328.65625 C 454.1875 330.86099 458.03125 334.71875 458.03125 334.71875 C 458.03125 334.71875 454.16757 344.08782 454.71875 346.84375 C 455.26994 349.59967 459.14668 355.08276 464.65625 355.65625 C 470.1585 356.22898 486.05856 353.78637 488.90625 352.34375 C 490.87302 351.3474 493.3125 345.1875 493.3125 345.1875 C 493.3125 345.1875 518.65032 343.53125 521.40625 343.53125 C 524.16217 343.53125 528.59375 347.9375 528.59375 347.9375 C 528.59375 347.9375 518.65086 378.82544 515.34375 393.15625 C 512.03664 407.48706 509.28125 441.0846 509.28125 448.25 C 509.28125 455.41541 514.79796 456.53125 518.65625 456.53125 C 522.51455 456.53125 541.26078 458.1848 547.875 456.53125 C 554.48922 454.87769 558.90625 453.21875 558.90625 453.21875 L 557.25 431.71875 L 557.25 416.84375 C 557.25 416.84375 591.41164 413.53987 594.71875 412.4375 C 598.02586 411.33513 600.81783 411.26875 603.5625 412.15625 C 606.40561 413.07558 609.625 417.40625 609.625 417.40625 C 609.625 417.40625 612.90625 444.94289 612.90625 448.25 C 612.90625 451.55711 616.78664 460.375 620.09375 460.375 C 623.40086 460.375 652.61045 460.38362 656.46875 459.28125 C 660.32704 458.17888 658.66487 450.47198 657.5625 446.0625 C 656.46013 441.65302 647.65625 397 647.65625 397 C 647.65625 397 651.5 390.93211 651.5 387.625 C 651.5 384.31789 647.10237 345.75054 646 339.6875 C 644.89763 333.62447 646.53718 322.02693 643.78125 306.59375 C 641.02533 291.16057 632.75376 268.01454 622.28125 264.15625 C 611.80873 260.29795 597.49192 260.57112 592.53125 259.46875 C 587.57059 258.36638 570.08803 254.54595 563.3125 255.34375 z "
       style="color:#000000;fill:#000000;stroke:none;stroke-width:1;marker:none;visibility:visible;display:inline;overflow:visible;enable-background:accumulate"
       id="path3985"
       d="m 562.96875,252.375 c -3.9233,0.46196 -7.94144,1.94607 -11.46875,3.40625 -3.52731,1.46018 -6.69538,2.95054 -7.875,3.34375 -2.49685,0.83228 -3.24259,2.76167 -3.90625,4.46875 -0.66366,1.70708 -1.07797,3.57837 -1.40625,5.40625 -0.48315,2.69026 -0.56326,4.04939 -0.65625,5.21875 -0.5677,0.38371 -1.07846,0.81556 -1.5,1.28125 -0.96621,1.06741 -1.73764,2.33807 -2.46875,3.75 -1.46223,2.82387 -2.74641,6.30105 -3.84375,9.75 -1.61005,5.06042 -2.58991,9.10074 -3.125,11.40625 L 505.75,301.375 c -0.49992,-0.37836 -0.83433,-0.67858 -1.96875,-1.40625 -1.70339,-1.09264 -3.8085,-2.36539 -6.21875,-2.90625 -2.22849,-0.50008 -4.76706,-0.40227 -7.03125,-0.3125 -2.0068,0.0796 -3.29754,0.18559 -3.65625,0.21875 -0.42341,-0.10477 -2.56938,-0.63916 -5.71875,-1.28125 -3.44264,-0.70188 -7.40281,-1.4375 -10.4375,-1.4375 -3.25627,0 -6.27394,1.20263 -8.625,2.9375 -2.35106,1.73487 -4.3125,4.06031 -4.3125,7.21875 0,2.3001 -0.69969,6.42466 -0.90625,7.6875 -0.58805,0.38171 -0.89078,0.54427 -1.8125,1.28125 -0.78299,0.62606 -1.58666,1.31618 -2.3125,2.1875 -0.72584,0.87132 -1.5625,1.92025 -1.5625,3.71875 l 0,9.375 c 0,2.84577 1.46974,4.27735 2.5625,5.6875 0.42522,0.54872 0.48615,0.56527 0.84375,0.96875 -0.36556,0.92505 -0.65783,1.63275 -1.28125,3.5 -0.46801,1.4018 -0.92906,2.88553 -1.25,4.3125 -0.32094,1.42697 -0.61534,2.64206 -0.28125,4.3125 0.46583,2.3291 1.79292,4.56412 3.875,6.71875 2.08208,2.15463 5.02555,4.08758 8.6875,4.46875 3.48391,0.36264 8.70923,-0.17027 13.84375,-0.90625 2.56726,-0.36799 5.05679,-0.80759 7.125,-1.25 2.06821,-0.44241 3.52606,-0.72247 4.9375,-1.4375 1.38034,-0.69927 1.99248,-1.60169 2.625,-2.5 0.63252,-0.89831 1.15764,-1.87215 1.625,-2.78125 0.45533,-0.8857 0.50278,-1.0521 0.78125,-1.6875 1.4005,-0.0912 5.46075,-0.36178 11.21875,-0.71875 6.67259,-0.41367 14.12926,-0.8125 14.90625,-0.8125 -0.22087,0 1.5421,0.63021 2.8125,1.59375 0.53079,0.40258 0.55686,0.47752 0.9375,0.8125 -0.98983,3.08027 -9.54659,29.64981 -12.75,43.53125 -3.45602,14.97609 -6.125,47.84677 -6.125,55.78125 0,4.35261 1.98369,7.70826 4.625,9.375 2.64131,1.66674 5.53165,1.90625 7.75,1.90625 1.50058,0 7.40035,0.4158 13.46875,0.625 6.0684,0.2092 12.28641,0.32683 16.46875,-0.71875 6.76736,-1.69185 11.375,-3.40625 11.375,-3.40625 A 3.0003,3.0003 0 0 0 561.90625,453 l -1.65625,-21.28125 0,-0.21875 0,-11.9375 c 2.076,-0.20276 7.22996,-0.71508 14.8125,-1.53125 4.48714,-0.48299 9.07943,-0.99967 12.78125,-1.46875 1.85091,-0.23454 3.48135,-0.45269 4.78125,-0.65625 1.2999,-0.20356 2.09613,-0.31329 3.03125,-0.625 2.86084,-0.95361 4.83244,-0.97204 6.96875,-0.28125 0.42483,0.13737 1.86106,1.17217 2.875,2.21875 0.73907,0.76286 0.99456,1.1118 1.25,1.4375 0.0948,0.79681 0.76459,6.46096 1.53125,13.28125 0.40945,3.64253 0.81943,7.37987 1.125,10.40625 0.30557,3.02638 0.5,5.57556 0.5,5.90625 0,2.8269 1.1277,5.76727 2.6875,8.71875 0.7799,1.47574 1.70049,2.85282 2.8125,4.03125 1.11201,1.17843 2.52755,2.375 4.6875,2.375 1.65095,0 9.79985,0.0112 18.03125,-0.125 4.1157,-0.0681 8.23959,-0.1871 11.625,-0.34375 3.38541,-0.15665 5.60427,-0.19943 7.53125,-0.75 1.90712,-0.54489 3.33405,-2.14189 3.9375,-3.6875 0.60345,-1.54561 0.69809,-3.08464 0.65625,-4.625 -0.0837,-3.08073 -0.84137,-6.24048 -1.40625,-8.5 -0.42905,-1.71618 -3.00588,-14.35253 -5.34375,-26.0625 -2.22912,-11.16526 -4.12156,-20.84437 -4.3125,-21.8125 0.37123,-0.61359 0.71428,-1.14092 1.4375,-2.59375 1.03708,-2.08332 2.25,-4.43418 2.25,-7.25 0,-1.49165 -0.28746,-4.15088 -0.71875,-8.34375 -0.43129,-4.19287 -1.00538,-9.52202 -1.625,-14.9375 -1.23925,-10.83095 -2.59289,-21.74528 -3.21875,-25.1875 -0.88827,-4.88549 0.65035,-17.20183 -2.1875,-33.09375 -1.42364,-7.9724 -4.23674,-17.78467 -8.09375,-26.28125 -3.85701,-8.49658 -8.52187,-15.92418 -15.34375,-18.4375 -5.67394,-2.0904 -12.08062,-3.00084 -17.6875,-3.5625 -5.60688,-0.56166 -10.605,-0.84278 -12.4375,-1.25 -2.49244,-0.55388 -8.16545,-1.77265 -14.09375,-2.78125 -5.9283,-1.0086 -11.8873,-1.87398 -16.125,-1.375 z" />
    <path
       style="color:#000000;fill:#e9ddaf;fill-opacity:1;fill-rule:nonzero;stroke:none;stroke-width:1;marker:none;visibility:visible;display:inline;overflow:visible;enable-background:accumulate"
       d="m 387.71746,528.77759 c -0.1875,-0.5 1.125,-5.3125 1.125,-5.3125 0,0 -3.9375,0.84375 -4.1875,-0.6875 -0.11259,-0.68964 2.3125,-3.625 2.8125,-4.6875 0.5,-1.0625 2.1875,-5.375 4.5,-3.1875 2.3125,2.1875 4,3.9375 4.0625,5 0.0625,1.0625 -3.75,2.9375 -3.75,2.9375 0,0 0.46826,5.20039 -0.4375,6.3125 -1.0109,1.2412 -4.125,-0.375 -4.125,-0.375 z"
       id="path3953"
       inkscape:connector-curvature="0"
       sodipodi:nodetypes="ccsssscsc" />
    <path
       style="color:#000000;fill:#786721;fill-opacity:1;fill-rule:nonzero;stroke:none;stroke-width:1;marker:none;visibility:visible;display:inline;overflow:visible;enable-background:accumulate"
       d="m 391.68621,514.69666 c 0.10047,0.61077 0.29551,1.58746 0.65625,2.21875 0.5,0.875 0.4375,3 -0.3125,3.1875 -0.75,0.1875 -5.5,1.6875 -5.625,2.5625 -0.125,0.875 2.53125,0.0312 2.53125,0.0312 -0.0755,0.72037 -0.21651,1.29113 -0.3125,1.90625 0.91163,0.0571 2.13511,0.60938 2.28125,1.4375 0.12587,0.71329 -0.0217,2.33747 -0.15625,3.5625 0.44622,-0.0185 0.83529,-0.12016 1.09375,-0.4375 0.90576,-1.11211 0.4375,-6.3125 0.4375,-6.3125 0,0 3.8125,-1.875 3.75,-2.9375 -0.0625,-1.0625 -1.75,-2.8125 -4.0625,-5 -0.0925,-0.0875 -0.19073,-0.1514 -0.28125,-0.21875 z"
       id="path3955"
       inkscape:connector-curvature="0"
       sodipodi:nodetypes="csssccscscscc" />
    <path
       style="color:#000000;fill:#c83737;fill-opacity:1;fill-rule:nonzero;stroke:none;stroke-width:1;marker:none;visibility:visible;display:inline;overflow:visible;enable-background:accumulate"
       d="m 373.27452,525.27537 c 0,0 -4.96067,1.65355 -5.92524,1.51576 -0.96458,-0.1378 -0.43521,-1.58278 -0.17225,-2.30809 0.7252,-2.0002 3.03152,-3.6516 4.44393,-4.58172 1.06102,-0.69872 6.61422,-0.2756 7.5788,0.41338 0.96457,0.68899 1.37796,2.06695 0.41338,2.61813 -0.96457,0.55119 -6.33862,2.34254 -6.33862,2.34254 z"
       id="path3938"
       inkscape:connector-curvature="0"
       sodipodi:nodetypes="csasscc" />
    <path
       inkscape:connector-curvature="0"
       style="color:#000000;fill:#800000;fill-opacity:1;fill-rule:nonzero;stroke:none;stroke-width:1;marker:none;visibility:visible;display:inline;overflow:visible;enable-background:accumulate"
       d="m 378.74871,520.13416 c 0.20426,0.4385 0.53602,1.17265 0.40625,1.40625 -0.17225,0.31004 -1.18996,0.9311 -1.5,1 -0.31004,0.0689 -3.37524,0.19316 -4.71875,0.46875 -1.34352,0.27559 -3.61786,2.17396 -4.03125,2.65625 -0.41339,0.48228 0.0866,0.55935 0.5,0.59375 0.68473,-0.20922 2.52626,-0.65367 4.1875,-1.0625 0.52891,-0.17695 5.11953,-1.72901 6.03125,-2.25 0.96458,-0.55118 0.52707,-1.93601 -0.4375,-2.625 -0.0977,-0.0698 -0.25512,-0.12407 -0.4375,-0.1875 z"
       id="path3942" />
    <path
       style="color:#000000;fill:#f4eed7;fill-opacity:1;fill-rule:nonzero;stroke:none;stroke-width:1;marker:none;visibility:visible;display:inline;overflow:visible;enable-background:accumulate"
       d="m 372.37885,525.03422 c 0,0 1.17126,3.96165 1.30906,4.78843 -0.2756,0.41338 2.06694,0.96457 2.06694,0.96457 l 3.16931,-1.79135 c 0,0 -1.33696,-1.28804 -2.20474,-1.79135 -0.90632,-0.52567 -2.10139,-2.92817 -2.10139,-2.92817 -0.57889,-0.35799 -2.04468,0.13212 -2.23918,0.75787 z"
       id="path3940"
       inkscape:connector-curvature="0"
       sodipodi:nodetypes="ccccscc" />
    <path
       style="color:#000000;fill:#786721;fill-opacity:1;fill-rule:nonzero;stroke:none;stroke-width:1;marker:none;visibility:visible;display:inline;overflow:visible;enable-background:accumulate"
       d="m 374.06121,524.16541 c -0.66559,0.0162 -1.54162,0.40569 -1.6875,0.875 0,0 0.2457,0.81839 0.46875,1.59375 0.40655,-0.13087 0.88208,-0.26958 1.15625,-0.25 0.48229,0.0344 2.37922,0.81804 3.0625,1.78125 0.31914,0.44989 0.3125,1.625 0.3125,1.625 l 0.375,-0.125 1.1875,-0.65625 c 0,0 -1.35097,-1.30919 -2.21875,-1.8125 -0.90632,-0.52567 -2.09375,-2.90625 -2.09375,-2.90625 -0.14472,-0.0895 -0.34064,-0.13038 -0.5625,-0.125 z"
       id="path3947"
       inkscape:connector-curvature="0"
       sodipodi:nodetypes="ccccacccscc" />
    <path
       style="color:#000000;fill:#44aa00;fill-opacity:1;fill-rule:nonzero;stroke:none;stroke-width:1;marker:none;visibility:visible;display:inline;overflow:visible;enable-background:accumulate"
       d="m 396.75428,526.72624 c 0,0 0.65533,-0.72747 0.53033,-3.97747 0.5625,1.4375 0.61872,4.5078 0.61872,4.5078 0,0 0.91606,-0.86503 0.35356,-2.74003 0.5625,0.4375 1.5026,2.91681 1.5026,2.91681 l 1.59099,-1.06066 c 0,0 -0.94455,-2.53369 -1.94455,-4.59619 0.5625,0.5625 2.64721,4.40609 2.20971,3.09359 0,0 0.0732,-0.52221 -0.17677,-2.20971 1.125,1.375 2.03293,4.41942 2.03293,4.41942 l 2.65165,-0.0884 c 0,0 -0.63833,-2.73008 -1.32583,-5.48008 1.9375,3.125 2.12132,4.94975 2.12132,4.94975 l 1.67938,1.5026 c 1.50917,-0.98372 1.10977,-2.92172 1.41422,-4.5078 l 0.17677,1.76776 c 0.99672,2.19132 0.25789,-1.98104 0.35356,-3.09359 l 1.76776,5.03814 3.35876,-0.7955 0.44194,-4.50781 0.0884,6.71752 2.2981,0.26516 c 0.32333,-0.95475 -0.12439,-2.0637 -0.61872,-3.18198 0.77155,0.9476 1.54431,1.89496 1.5026,3.00521 0.27446,-0.82496 0.6985,-1.64992 0.17678,-2.47488 0.59891,0.54608 0.93875,1.14397 0.7071,1.85616 l 3.1132,-0.91421 c 0.88197,0.65096 0.36032,-2.44106 0.33395,-4.21232 l 0.7955,1.41422 0.61871,-3.09359 c -0.37348,4.61092 0.0168,4.89418 0.0884,6.98268 l 1.32583,0.35355 0.7071,-2.74004 0.35356,4.68458 1.32582,0.0884 -0.0884,-3.71231 1.94455,3.53553 1.32582,-0.88388 -0.7071,-3.97747 2.74004,5.39168 -0.17678,-3.27036 2.12132,3.35875 c 0,0 2.56326,0.7955 2.03293,0.7955 -0.53033,0 -1.32582,-2.74004 -1.32582,-2.74004 l 2.74003,3.62392 -1.32582,1.06066 -41.36575,-6.45235 z"
       id="path3987"
       inkscape:connector-curvature="0"
       sodipodi:nodetypes="ccccccccccccccccccccccccccccccccccccccccccsccccc" />
    <path
       style="color:#000000;fill:#b8b4ab;fill-opacity:1;stroke:none;stroke-width:1;marker:none;visibility:visible;display:inline;overflow:visible;enable-background:accumulate"
       d="m 363.90437,546.77159 c -5.51185,0.27559 -11.29929,27.00806 -11.29929,27.00806 l -24.25214,1.10237 c 0,0 -4.60972,-3.65045 -7.99218,-4.40948 -3.06861,-0.6886 -10.19693,0 -10.19693,0 0,0 -11.0237,-2.75592 -15.98436,-2.75592 -4.96067,0 -9.92133,3.85829 -9.92133,7.1654 0,3.30711 -1.10237,9.37015 -1.10237,9.37015 0,0 -5.51185,3.30711 -5.51185,5.51185 0,2.20474 0,7.1654 0,9.37014 0,2.20474 3.85829,6.06304 3.85829,6.06304 0,0 -3.85829,9.37014 -3.30711,12.12607 0.55119,2.75592 4.41176,8.24547 9.92133,8.81896 5.50225,0.57273 21.40445,-1.86449 24.25214,-3.30711 1.96677,-0.99635 4.40948,-7.16541 4.40948,-7.16541 0,0 25.35451,-1.65355 28.11044,-1.65355 2.75592,0 7.1654,4.40947 7.1654,4.40947 0,0 -9.92133,30.86637 -13.22844,45.19718 -3.30711,14.33081 -6.06303,47.9531 -6.06303,55.1185 0,7.16541 5.51185,8.26778 9.37014,8.26778 3.8583,0 22.59859,1.65355 29.21281,0 6.61422,-1.65356 11.0237,-3.30711 11.0237,-3.30711 l -1.65356,-21.49622 0,-14.88199 c 0,0 34.17348,-3.30711 37.48059,-4.40948 3.30711,-1.10237 6.07429,-1.16309 8.81896,-0.27559 2.84311,0.91933 6.06303,5.23625 6.06303,5.23625 0,0 3.30711,27.55925 3.30711,30.86636 0,3.30711 3.8583,12.12607 7.16541,12.12607 3.30711,0 32.51991,0 36.37821,-1.10237 3.85829,-1.10237 2.20474,-8.81896 1.10237,-13.22844 -1.10237,-4.40948 -9.92133,-49.05547 -9.92133,-49.05547 0,0 3.85829,-6.06303 3.85829,-9.37014 0,-3.30711 -4.40948,-41.89006 -5.51185,-47.9531 -1.10237,-6.06303 0.55119,-17.63792 -2.20474,-33.0711 -2.75592,-15.43318 -11.0237,-38.58295 -21.49621,-42.44124 -10.47252,-3.8583 -24.80332,-3.58271 -29.76399,-4.68508 -4.96066,-1.10237 -22.43728,-4.93169 -29.21281,-4.13389 -6.77553,0.7978 -15.43318,5.51186 -18.74029,6.61423 -3.30711,1.10237 -4.13389,14.33081 -4.13389,14.33081 z"
       id="path3067"
       inkscape:connector-curvature="0"
       sodipodi:nodetypes="cccscsscsscssscscsssscccsscsssscssssszsc" />
    <path
       id="path3999"
       style="color:#000000;fill:#e7e7dd;fill-opacity:1;fill-rule:nonzero;stroke:none;stroke-width:1;marker:none;visibility:visible;display:inline;overflow:visible;enable-background:accumulate"
       d="m 363.90496,546.75916 c -5.51185,0.27559 -11.3125,27.03125 -11.3125,27.03125 l -0.1875,0 3.46875,1 8.09375,-25.15625 z m -69.71875,20.96875 c -4.96067,0 -9.9375,3.84914 -9.9375,7.15625 0,2.91688 -0.76795,7.4079 -0.96875,8.5625 0.40974,-0.0391 0.70078,-0.0685 1.25,-0.125 0.2755,-2.18453 1.15931,-8.67318 2.25,-10.65625 1.74688,-3.17615 4.46199,-3.49425 5.90625,-3.46875 2.52323,0.0445 3.79661,-0.35399 4.59375,-1.25 -1.1479,-0.13926 -2.22563,-0.21875 -3.09375,-0.21875 z m 21.59375,2.4375 c -2.53032,0.03 -4.80337,0.23458 -5.3125,0.28125 l 2.82496,2.63126 -8.48121,5.64999 1.9661,26.97045 4.60072,-1.05012 c -2.42279,-6.76608 -2.03693,-15.0749 -2.07776,-22.00487 l 4.77555,-0.94049 c 0.3617,-1.53817 3.65338,-5.71374 7.01664,-7.84997 -0.3155,-1.14731 -0.68841,-2.27712 -1.0625,-3.40625 -1.13791,-0.20704 -2.69168,-0.29972 -4.25,-0.28125 z m -31.375,14.125 -1.4375,0.0625 c -0.17758,0.107 -5.3125,3.23832 -5.3125,5.40625 l 0,9.375 c 0.42975,1.36004 1.22506,0.48972 2.59375,0.25 -0.47494,-2.49345 -0.36866,-9.86262 0.34375,-10.8125 0.71242,-0.94989 3.8125,-4.28125 3.8125,-4.28125 z m -3.03125,20.75 c 0.20859,1.63649 -3.74207,8.40594 -3.1875,12.28125 0.36921,0.92104 1.61583,-0.90105 2.40625,-1.3125 l 1.90625,-8.1875 c 3.23763,-1.84177 6.4008,-1.82028 9.90625,-1.625 -3.82423,-0.21806 -9.47284,-0.61081 -11.03125,-1.15625 z m 159.7379,83.83685 c -4.88258,-0.19529 -12.90808,-6.93519 -8.01915,-0.9931 0,0 3.28125,27.53664 3.28125,30.84375 0,1.15027 0.50201,2.99413 1.25,4.875 0,0 12.47508,0.67497 12.71256,-4.31193 z M 419.91174,540.67864 c 0,0 7.38839,-0.67167 8.06006,0.67168 0.67167,1.34334 16.79179,49.70369 16.79179,49.70369 0,0 -3.02252,8.06005 -3.6942,12.42592 l -1.34334,33.24774 -4.16215,-0.94989 -3.8333,2.64594 3.05628,3.10401 c -3.41974,14.75068 -0.74637,18.53375 -1.10587,27.776 l -7.46988,1.58082 -0.72928,-10.19031 c -0.23767,-2.96702 -4.42153,-3.23102 -4.5626,-5.15977 -0.47494,-2.61219 1.59769,-15.89953 1.59769,-15.89953 l 7.40527,-5.29887 1.74378,-12.04934 -7.72422,-14.77677 z m -55.72553,48.36177 -16.96875,25.65625 c 2.39558,1.24408 4.84375,3.71875 4.84375,3.71875 0,0 -9.94289,30.88794 -13.25,45.21875 -3.30711,14.33081 -6.0625,47.92835 -6.0625,55.09375 0,0.76212 0.0714,1.46284 0.1875,2.09375 0,0 2.0321,-1.86867 7.73142,0.0311 l 1.90639,-42.28125 5.93117,-5.70608 c 0,0 -2.5707,-12.52125 -2.13134,-14.71805 1.89977,-9.49886 7.44313,-24.57868 8.79983,-25.41357 3.08713,-1.89977 10.44341,-10.18722 10.44341,-10.18722 l 2.64694,-10.97213 -6.67157,5.03449 2.84375,-19.7248 z m 23.96875,-63.3125 c -0.5014,0.0155 -0.95153,0.0439 -1.375,0.0937 -6.77553,0.7978 -15.44289,5.52263 -18.75,6.625 -3.30711,1.10237 -4.125,14.3125 -4.125,14.3125 -0.37433,0.0187 -0.75003,0.1914 -1.125,0.4375 l 0.375,22.875 3.4375,-2.375 c 0,0 -1.00417,-1.16196 -0.4521,-4.08289 1.2124,-6.41462 9.94509,-3.44765 13.13503,-0.75751 1.32161,1.11453 1.00457,11.24665 1.00457,11.24665 0,0 -6.87957,0.84375 -9.0625,0.84375 -2.18293,0 -3.78125,0.5625 -3.78125,0.5625 l 1.5,2.96875 4.96875,0.65625 -8.84375,5 c 0.15171,2.72528 0.32528,5.29444 2.03125,5.84375 l 7.15625,-2.65625 -6.1875,7.5 2.90625,12.625 2.6875,4.1875 1.9375,6.125 c 0,0 2.33248,-2.51958 3.84375,-2.6875 1.51126,-0.16792 9.57416,1.17168 9.40625,0.5 -0.16792,-0.67167 1.84375,-5.71875 1.84375,-5.71875 0,0 -5.36374,-0.65625 -6.875,-0.65625 -1.51126,0 -8.40625,1.65625 -8.40625,1.65625 l -1.9375,-4.37495 c 0,0 9.34415,-3.1525 10.6875,-3.65625 1.34334,-0.50376 8.71875,2.34375 8.71875,2.34375 l -0.5,-2.6875 c 0,0 -5.55124,-2.86333 -7.0625,-3.03125 -1.51126,-0.16787 -11.40625,4.03125 -11.40625,4.03125 0,0 -2.84751,-8.39875 -2.34375,-9.40625 0.50375,-1.00751 9.40625,-5.71875 9.40625,-5.71875 0,0 2.42583,-20.45749 2.59375,-21.96875 0.16792,-1.51126 -2.76379,-4.98833 -2.76379,-4.98833 0,0 4.55805,-0.73336 5.87002,-3.26208 2.05912,-3.96879 12.26877,-4.18709 12.26877,-4.18709 0,0 0.19834,-3.36242 -3.28414,-7.47265 -0.20178,-4.9507 0.68091,-15.231 0.81539,-20.15235 -3.13639,-0.41204 -6.09764,-0.66226 -8.3125,-0.59375 z m 11.4375,48.375 -10.22666,0.99209 -0.0233,1.69541 7.71875,1.5 0,-1.5 z"
       inkscape:connector-curvature="0"
       sodipodi:nodetypes="ccccccssccsccsscccccccccsccsccscccccccccsccccsccccccccccccccccccssccccsscccccccsccccsscsccccccccccsccsccsccccccscscccccccccc" />
    <path
       id="path3932"
       style="color:#000000;fill:#595151;fill-opacity:1;fill-rule:nonzero;stroke:none;stroke-width:1;marker:none;visibility:visible;display:inline;overflow:visible;enable-background:accumulate"
       d="m 412.95984,534.36992 c 0,0 2.48033,14.33081 0.27559,15.70878 -2.20474,1.37796 -2.48033,6.33862 -2.48033,6.33862 0,0 2.48033,8.26778 2.48033,10.47252 0,2.20474 -0.55118,6.33863 -1.10237,9.09455 -0.55118,2.75593 3.03152,8.81896 3.03152,10.19692 0,1.37797 -0.82678,19.29148 -2.75593,21.49622 -1.92914,2.20474 -6.33862,12.95285 -6.33862,12.95285 0,0 -17.63793,1.37796 -21.77181,1.10237 -4.13389,-0.27559 -8.26778,-2.48033 -8.26778,-2.48033 0,0 7.99218,5.23625 8.81896,6.33862 0.82678,1.10237 10.19693,1.65356 10.19693,1.65356 0,0 4.68507,0.55118 3.85829,2.20474 -0.82678,1.65355 -4.96066,3.5827 -4.96066,3.5827 0,0 14.6064,-1.65355 16.25995,-3.03152 1.65356,-1.37796 10.74811,-19.56707 12.67726,-19.84266 1.92915,-0.27559 3.03152,-3.5827 3.03152,-3.5827 0,0 4.13388,-16.81114 3.03151,-17.63792 -1.10237,-0.82678 -2.75592,-9.64574 -2.75592,-12.40166 0,-2.75593 -2.48033,-33.62229 -5.51185,-36.65381 -3.03152,-3.03152 -7.71659,-5.51185 -7.71659,-5.51185 z m 18.47637,6.60799 c 0,0 21.5,46.02236 21.5,50.15625 0,4.13389 -2.21013,46.86638 -3.3125,47.96875 -1.10237,1.10237 -8.26697,0.83216 -9.09375,3.3125 -0.82678,2.48033 -2.23006,26.99704 -2.78125,28.375 -0.55118,1.37797 -7.42026,1.93184 -9.625,1.65625 -2.20474,-0.27559 4.94585,3.5625 6.875,3.5625 1.92915,0 10.19585,-1.90625 12.125,-1.90625 1.92915,0 5.24704,0.53125 6.625,0.53125 1.37796,0 5.79256,1.94586 6.34375,3.875 0.55118,1.92915 1.63631,12.1075 2.1875,17.34375 0.55118,5.23626 5.25,26.48276 5.25,28.6875 0,1.42931 -1.92743,4.23723 -3.3125,6.125 7.23378,-0.15119 14.00341,-0.41615 15.71875,-0.90625 3.85829,-1.10237 2.19612,-8.80927 1.09375,-13.21875 -1.10237,-4.40948 -9.90625,-49.0625 -9.90625,-49.0625 0,0 3.84375,-6.06789 3.84375,-9.375 0,-3.30711 -4.39763,-41.87446 -5.5,-47.9375 -1.10237,-6.06303 0.53718,-17.66057 -2.21875,-33.09375 -1.67696,-9.391 -5.3927,-21.60466 -10.40625,-30.625 -8.24579,-3.16066 -16.44769,-6.58472 -25.40625,-5.46875 z m -66.71875,8.8125 c 0,0 -6.87204,23.14884 -8.25,26.59375 -2.75592,1.24017 -13.59157,1.38043 -20.40625,1.65625 -2.11115,0.0855 -6.34375,0 -6.34375,0 0,0 -2.88901,-3.83809 -5.09375,-3.5625 -2.20474,0.2756 -6.45694,4.22408 -7.92543,7.56894 -1.36715,3.11406 -0.46923,8.27186 -0.19364,10.201 0.2756,1.92915 0.55657,10.75835 0.55657,12.13631 0,1.37796 -6.90329,1.625 -8.28125,1.625 -1.37796,0 -3.4526,-16.99466 -2.88739,-24.44412 0.34203,-4.50788 8.41864,-8.33713 8.41864,-8.33713 l -13.78125,-3.03125 c 0,0 1.08243,3.30388 0.53125,4.40625 -0.55119,1.10237 -2.46875,10.1875 -2.46875,10.1875 l -8,-0.8125 -2.70017,0.3315 c 0,0 2.69155,0.481 3.79392,0.481 1.10237,0 4.96875,2.21875 4.96875,2.21875 l -0.53125,17.625 -10.5,0.84375 10.5,1.09375 c 0,0 2.75566,1.65894 3.03125,3.3125 0.27559,1.65355 1.625,12.9375 1.625,12.9375 0,0 -10.7271,1.6619 -12.65625,1.9375 -0.64746,0.0925 -1.51174,0.41044 -2.375,0.78125 0.75183,0.28499 1.54205,0.50705 2.375,0.59375 5.50225,0.57273 21.40231,-1.86988 24.25,-3.3125 1.96677,-0.99635 4.40625,-7.15625 4.40625,-7.15625 0,0 25.33782,-1.65625 28.09375,-1.65625 2.75592,0 7.1875,4.40625 7.1875,4.40625 0,0 4e-5,0.0311 0,0.0312 l 0.125,-0.0312 c 0,0 2.42499,-7.38697 3.875,-11 2.89396,-7.21095 9.625,-18.73842 9.625,-21.21875 0,-2.48033 0.0763,-11.47249 -0.8125,-13.25 -0.96458,-1.92915 -1.52559,-5.09348 -1.25,-8.125 0.27559,-3.03151 1.09375,-15.03125 1.09375,-15.03125 z m 9.38383,44.65868 c -1.39696,1.07132 -1.10237,4.40948 -0.68898,5.23626 0.41339,0.82677 0.82678,-3.8583 1.37797,-3.8583 0.55118,0 4.27168,4.13389 4.27168,4.13389 0,0 -2.06694,1.65355 -2.89372,1.65355 -0.82678,0 -2.20474,-0.41338 -2.20474,-0.41338 0,0 0.27559,1.79135 1.24016,1.79135 0.96458,0 7.96481,-2.26309 8.95676,-2.20474 2.34254,0.13779 13.64183,2.61813 15.15759,2.48033 1.51576,-0.1378 2.48033,-2.61813 1.37796,-2.89372 -1.10237,-0.27559 -5.09846,-7.44101 -6.88981,-7.5788 -1.79135,-0.13779 -3.26052,-1.04106 -10.47252,-1.24016 -1.54001,-0.0425 -6.19273,0.56265 -9.23235,2.89372 z m 13.64183,-26.18129 c 0,0 -0.82677,-5.78744 0.82678,-6.75202 1.65356,-0.96457 3.5827,-1.65355 5.37406,-1.10237 1.79135,0.55119 7.0276,5.23626 7.85438,6.88982 0.64337,1.28675 1.65356,6.75201 1.65356,6.75201 0,0 -10.47252,0.82678 -11.0237,0.82678 -0.15723,-2.14608 1.95274,-2.31794 0.41338,-4.68507 -1.65355,-0.55119 -5.09846,-1.92915 -5.09846,-1.92915 z m -18.05131,-0.27559 c 0,0 -2.20474,-4.68507 0.2756,-5.51185 2.48033,-0.82678 5.58009,0.0932 7.3032,1.92915 2.43502,2.59448 3.4449,10.19692 2.06694,10.47251 -1.37796,0.27559 -8.26777,0 -8.26777,0 0,0 4.68507,-0.55118 4.40948,-2.20474 -0.2756,-1.65355 -0.55119,-1.65356 -2.34254,-2.75593 -1.17355,-0.72218 -3.44491,-1.92914 -3.44491,-1.92914 z m -18.7556,111.0482 c 0,0 6.62769,3.59941 8.28125,3.875 1.65355,0.2756 4.40625,6.34375 4.40625,6.34375 0,0 -0.54257,4.13631 -0.81816,7.99461 -0.13884,1.94378 -2.49164,14.60749 -0.83809,16.53664 1.65356,1.92914 5.78987,8.54526 4.6875,10.75 -0.45414,0.90828 -1.13923,2.07208 -1.75,3.15625 2.58779,-0.0856 4.86138,-0.29347 6.4375,-0.6875 6.61422,-1.65356 11.03125,-3.3125 11.03125,-3.3125 l -1.65625,-21.5 0,-14.875 c 0,0 34.16164,-3.30388 37.46875,-4.40625 3.30711,-1.10237 6.09908,-1.16875 8.84375,-0.28125 1.27703,0.41293 2.61561,1.50897 3.71875,2.59375 l 0.40625,-0.375 c 0,0 -3.88282,-5.24366 -6.625,-4.96875 -18.00255,1.80482 -46.84348,4.41191 -49.875,4.6875 -3.03152,0.27559 -13.50835,-3.875 -15.4375,-3.875 -1.92915,0 -8.28125,-1.65625 -8.28125,-1.65625 z"
       inkscape:connector-curvature="0"
       sodipodi:nodetypes="cscsssscscscscsscsssccssssssssssscsscsssccccccsassssccscccsccccscscsscscccsscscssscscssssssscssscccccssscssccscssscscccssccsssc" />
    <path
       style="color:#000000;fill:#447821;fill-opacity:1;fill-rule:nonzero;stroke:none;stroke-width:1;marker:none;visibility:visible;display:inline;overflow:visible;enable-background:accumulate"
       d="m 393.73652,525.9828 c 0.63502,-0.97405 -0.23847,-1.81316 -0.20595,-2.63658 0.45727,1.00795 1.0096,2.13472 0.82677,2.34254 1.50393,-0.1795 1.39452,-1.22772 1.92915,-1.92915 l 0,2.06694 2.61813,0.68899 c 1.1183,-0.877 0.47356,-2.00586 0.55119,-3.03152 l 1.10237,1.65355 c -0.31629,0.73187 1.52819,1.24664 2.20474,-0.82677 0.13779,-0.82678 -0.82678,-2.89373 -0.82678,-2.89373 0,0 1.13632,1.68614 1.5854,2.59254 0.35613,0.71878 0.89493,2.09254 0.89493,2.09254 1.03753,-0.2496 1.83588,-0.57805 1.89912,-1.36051 0.0597,-0.73903 -0.59366,-1.9269 -0.42027,-2.38262 l 1.13928,2.22737 c 0.69648,1.36166 0.36294,2.44342 1.51576,0.13779 l 1.37796,-2.75592 c -0.35478,1.80362 -1.80716,5.52803 -0.96457,5.23626 l 1.79135,0 c 1.41191,-0.13825 0.79047,-2.08391 0.82678,-3.44491 l 0.68898,0.82678 c 0.83348,0.64373 1.38115,-0.92135 0.87796,-3.24461 l 0.77559,1.59105 c 1.25,2.1875 0.63928,-2.71457 0.63928,-2.71457 0.48201,0.6249 1.20256,2.95896 0.87648,4.23033 l 1.10237,-0.68898 -0.68898,3.8583 c 1.92437,0.65474 3.67624,0.91298 4.27168,-0.1378 0.78085,-1.37796 3.06449,-8.00575 2.34254,-4.13389 -0.13937,0.74746 -0.73515,5.45869 -0.0512,3.59254 0.23476,-0.64053 0.83159,-2.79894 0.81898,-2.5792 -0.0902,1.57143 0.52218,3.01918 1.81342,1.3789 l 1.82826,-3.21902 c 0,0 -1.10237,3.03152 -0.82678,3.9961 0.2756,0.96457 -0.16042,2.56842 0.96458,2.75592 0,0 1.22885,-3.10829 1.79135,-3.85829 -0.375,1 -0.96458,3.99609 -0.96458,3.99609 l 1.79136,0.55118 c 0,0 -0.27333,-4.08374 0.13779,-6.06303 0.27234,-1.31115 1.51576,-3.7205 1.51576,-3.7205 0,0 -0.836,3.74639 -0.82678,5.64964 0.007,1.48764 0.68898,4.40948 0.68898,4.40948 0.34862,-1.35185 0.25124,-2.62938 1.51576,-4.13388 l 0.0384,3.06694 c -0.0689,1.25374 0.27142,1.48453 1.20178,0.24017 0.21786,1.30716 0.97231,-2.30061 1.14076,-3.49461 0.0861,-0.6102 0.5621,1.2585 0.92618,1.84105 0.64269,1.02832 0.0797,3.83122 2.20474,2.89372 0,0 1.37797,-2.61813 1.37797,-1.79135 0,0.82678 0.13779,2.75593 0.13779,2.75593 -0.4194,0.52425 1.41755,0.98399 1.79135,0.13779 0.1378,-0.55118 2.38845,-2.30024 1.28839,-0.66339 -0.31691,0.47156 -2.32974,2.35534 0.0128,3.31991 2.34253,0.96457 2.00592,2.44194 2.00592,2.44194 l -4.48477,-3.53003 c 0,0 -1.86961,-0.15356 -3.49609,-0.29135 -0.70013,-0.0593 -2.49165,-0.72589 -3.31843,-0.86369 -0.82678,-0.13779 -1.79135,-0.55118 -1.10237,-0.41339 0.68898,0.1378 1.51576,2.06695 1.51576,2.06695 -0.68922,-0.73491 -1.31627,-1.46983 -2.89372,-2.20474 -2.20849,-0.1004 -2.56692,-0.63734 -6.62554,-0.30119 0,0 1.41339,1.60951 0.97589,1.26576 -0.99107,-0.42295 -0.8921,-0.82475 -2.2601,-1.26576 0,0 -6.09455,-1.00296 -7.84455,-0.94046 1.3125,0.25 2.05145,2.3098 2.05145,2.3098 0,0 -1.17228,-2.0598 -3.79728,-2.9973 0.73621,0.92902 0.40647,1.82168 0.55119,2.75592 -0.60056,-1.11401 -0.55436,-2.50521 -2.20474,-3.16931 0,0 -9.64574,-1.10237 -10.19692,-1.51576 -1.875,-0.9375 -6.08029,-1.4604 -7.92404,-1.7729 z"
       id="path3936"
       inkscape:connector-curvature="0"
       sodipodi:nodetypes="ccccccccccscscsscccccccccccsssscccccccacaccccsscsccssccscccccccccccccc" />
  </g>
</svg>
